<svg width="63" height="63" viewBox="0 0 63 63" fill="none" xmlns="http://www.w3.org/2000/svg">
<path d="M0 18C0 8.05887 8.05888 0 18 0H45C54.9411 0 63 8.05888 63 18V63H18C8.05887 63 0 54.9411 0 45V18Z" fill="#63C2D4" fill-opacity="0.18"/>
<path d="M40.4272 27.188C40.2441 27.188 40.0624 27.195 39.8825 27.2077C38.1939 23.5436 34.4894 21 30.1903 21C24.7147 21 20.2035 25.126 19.5943 30.4385C16.4737 30.6243 14 33.2128 14 36.3802C14 39.6681 16.6654 42.3335 19.9534 42.3335H40.4272C44.6095 42.3335 48 38.9431 48 34.7608C48 30.5785 44.6095 27.188 40.4272 27.188Z" stroke="#63C2D4" stroke-width="2" stroke-miterlimit="10" stroke-linecap="round" stroke-linejoin="round"/>
<path d="M31 42.3336V31.9616" stroke="#63C2D4" stroke-width="2" stroke-miterlimit="10" stroke-linecap="round" stroke-linejoin="round"/>
<path d="M26.9531 36.0098L31.0013 31.9616L35.0495 36.0098" stroke="#63C2D4" stroke-width="2" stroke-miterlimit="10" stroke-linecap="round" stroke-linejoin="round"/>
</svg>
