<svg width="63" height="63" viewBox="0 0 63 63" fill="none" xmlns="http://www.w3.org/2000/svg">
<path d="M0 18C0 8.05887 8.05888 0 18 0H45C54.9411 0 63 8.05888 63 18V63H18C8.05887 63 0 54.9411 0 45V18Z" fill="#5FC2D5" fill-opacity="0.18"/>
<path d="M41.7383 30.6355L31.9443 36.29L22.1504 30.6355" stroke="#5FC2D5" stroke-width="2" stroke-miterlimit="10"/>
<path d="M31.9443 24.981L22.1504 30.6355V41.9445L31.9443 47.5991L41.7383 41.9445V30.6355L31.9443 24.981Z" stroke="#5FC2D5" stroke-width="2" stroke-miterlimit="10"/>
<path d="M31.9434 36.2899V47.599" stroke="#5FC2D5" stroke-width="2" stroke-miterlimit="10"/>
<path d="M31.9454 19.6798C33.5138 19.6798 34.7853 18.4084 34.7853 16.8399C34.7853 15.2715 33.5138 14 31.9454 14C30.3769 14 29.1055 15.2715 29.1055 16.8399C29.1055 18.4084 30.3769 19.6798 31.9454 19.6798Z" stroke="#5FC2D5" stroke-width="2" stroke-miterlimit="10"/>
<path d="M31.9434 19.8313V25.4858" stroke="#5FC2D5" stroke-width="2" stroke-miterlimit="10"/>
<path d="M15.6845 48.7767C17.2341 48.5341 18.2936 47.0812 18.051 45.5315C17.8084 43.9819 16.3555 42.9224 14.8058 43.165C13.2562 43.4077 12.1967 44.8606 12.4393 46.4102C12.682 47.9598 14.1349 49.0193 15.6845 48.7767Z" stroke="#5FC2D5" stroke-width="2" stroke-miterlimit="10"/>
<path d="M17.8301 44.4683L22.7206 41.6299" stroke="#5FC2D5" stroke-width="2" stroke-miterlimit="10"/>
<path d="M51.4536 46.4026C51.6932 44.8525 50.6309 43.4017 49.0808 43.162C47.5307 42.9223 46.0798 43.9847 45.8402 45.5347C45.6005 47.0848 46.6628 48.5357 48.2129 48.7754C49.763 49.015 51.2139 47.9527 51.4536 46.4026Z" stroke="#5FC2D5" stroke-width="2" stroke-miterlimit="10"/>
<path d="M46.0585 44.4683L41.168 41.6299" stroke="#5FC2D5" stroke-width="2" stroke-miterlimit="10"/>
</svg>
