<svg width="63" height="63" viewBox="0 0 63 63" fill="none" xmlns="http://www.w3.org/2000/svg">
<path d="M0 18C0 8.05887 8.05888 0 18 0H45C54.9411 0 63 8.05888 63 18V63H18C8.05887 63 0 54.9411 0 45V18Z" fill="#5FC2D5" fill-opacity="0.18"/>
<path d="M26.2322 39.4282C25.1163 39.4282 24.2114 38.5234 24.2114 37.408C24.2114 36.3684 24.9969 35.5124 26.0064 35.3994C26.0808 35.3917 26.1559 35.3872 26.2322 35.3872C27.3482 35.3872 28.2524 36.2921 28.2524 37.408C28.2524 38.3803 27.5658 39.1921 26.65 39.3846C26.5153 39.4135 26.3754 39.4282 26.2322 39.4282ZM37.6564 24.008C38.7724 24.008 39.6772 24.9128 39.6772 26.0288C39.6772 27.0613 38.9027 27.9123 37.9035 28.0342C37.8226 28.0438 37.7398 28.049 37.6564 28.049C36.5404 28.049 35.6362 27.1448 35.6362 26.0288C35.6362 25.0392 36.3466 24.2159 37.2861 24.042C37.4061 24.0195 37.53 24.008 37.6564 24.008ZM46.3725 26.0288C44.1347 20.2442 38.5189 16.1422 31.9443 16.1422C28.5284 16.1422 25.371 17.2499 22.8118 19.1256C22.9414 19.3926 23.0146 19.6923 23.0146 20.0087C23.0146 21.1246 22.1097 22.0295 20.9938 22.0295C20.6357 22.0295 20.2994 21.9364 20.0081 21.7734C18.964 23.0389 18.1175 24.4726 17.5162 26.0288C16.8456 27.7595 16.4785 29.6411 16.4785 31.608C16.4785 33.659 16.8777 35.617 17.6028 37.408C19.897 43.0758 25.4538 47.0739 31.9443 47.0739C35.3603 47.0739 38.5176 45.9662 41.0769 44.0904C40.9472 43.8235 40.8741 43.5238 40.8741 43.2074C40.8741 42.0914 41.7789 41.1866 42.8949 41.1866C43.253 41.1866 43.5893 41.2796 43.8806 41.4426C44.8753 40.2374 45.6903 38.8789 46.2858 37.408C47.011 35.617 47.4102 33.659 47.4102 31.608C47.4102 29.6411 47.0431 27.7595 46.3725 26.0288Z" stroke="#5FC2D5" stroke-width="2" stroke-miterlimit="10" stroke-linejoin="round"/>
<path d="M38.0691 31.608C38.0691 33.659 37.9113 35.617 37.6238 37.408C36.7157 43.0758 34.5159 47.0739 31.9457 47.0739C29.6862 47.0739 27.7128 43.9833 26.6514 39.3846C27.5671 39.1921 28.2538 38.3803 28.2538 37.408C28.2538 36.2921 27.3496 35.3872 26.2336 35.3872C26.1573 35.3872 26.0822 35.3917 26.0077 35.3994C25.8864 34.1865 25.8223 32.9159 25.8223 31.608C25.8223 29.6411 25.9679 27.7595 26.233 26.0288C27.1192 20.2442 29.3428 16.1422 31.9457 16.1422C34.2393 16.1422 36.2389 19.3271 37.2875 24.042C36.348 24.2159 35.6376 25.0392 35.6376 26.0288C35.6376 27.1448 36.5418 28.049 37.6578 28.049C37.7412 28.049 37.824 28.0438 37.9049 28.0342C38.012 29.181 38.0691 30.3778 38.0691 31.608Z" stroke="#5FC2D5" stroke-width="2" stroke-miterlimit="10" stroke-linejoin="round"/>
<path d="M39.6758 26.0288C39.6758 27.0613 38.9012 27.9123 37.902 28.0342C37.8212 28.0438 37.7384 28.049 37.6549 28.049C36.539 28.049 35.6348 27.1447 35.6348 26.0288C35.6348 25.0392 36.3452 24.2159 37.2847 24.042C37.4047 24.0195 37.5285 24.0079 37.6549 24.0079C38.7709 24.0079 39.6758 24.9128 39.6758 26.0288Z" stroke="#5FC2D5" stroke-width="2" stroke-miterlimit="10" stroke-linejoin="round"/>
<path d="M46.5796 26.0288H46.373H39.6777" stroke="#5FC2D5" stroke-width="2" stroke-miterlimit="10" stroke-linejoin="round"/>
<path d="M35.6333 26.0288H26.2287H17.5133H17.3066" stroke="#5FC2D5" stroke-width="2" stroke-miterlimit="10" stroke-linejoin="round"/>
<path d="M46.5786 37.408H46.2854H37.6219H28.252" stroke="#5FC2D5" stroke-width="2" stroke-miterlimit="10" stroke-linejoin="round"/>
<path d="M24.2085 37.408H17.5999H17.3066" stroke="#5FC2D5" stroke-width="2" stroke-miterlimit="10" stroke-linejoin="round"/>
<path d="M28.2539 37.408C28.2539 38.3803 27.5672 39.1921 26.6515 39.3846C26.5167 39.4135 26.3768 39.4282 26.2337 39.4282C25.1177 39.4282 24.2129 38.5234 24.2129 37.408C24.2129 36.3684 24.9984 35.5124 26.0078 35.3994C26.0823 35.3917 26.1573 35.3872 26.2337 35.3872C27.3497 35.3872 28.2539 36.2921 28.2539 37.408Z" stroke="#5FC2D5" stroke-width="2" stroke-miterlimit="10" stroke-linejoin="round"/>
<path d="M23.0124 20.0087C23.0124 21.1247 22.1075 22.0295 20.9915 22.0295C20.6334 22.0295 20.2972 21.9365 20.0058 21.7735C19.3885 21.4276 18.9707 20.7666 18.9707 20.0087C18.9707 18.8927 19.8755 17.9879 20.9915 17.9879C21.7911 17.9879 22.4816 18.4519 22.8096 19.1257C22.9392 19.3927 23.0124 19.6923 23.0124 20.0087Z" stroke="#5FC2D5" stroke-width="2" stroke-miterlimit="10" stroke-linejoin="round"/>
<path d="M44.9186 43.2074C44.9186 44.3234 44.0138 45.2283 42.8978 45.2283C42.0982 45.2283 41.4077 44.7643 41.0797 44.0905C40.9501 43.8235 40.877 43.5238 40.877 43.2074C40.877 42.0915 41.7818 41.1866 42.8978 41.1866C43.2559 41.1866 43.5921 41.2797 43.8835 41.4427C44.5008 41.7886 44.9186 42.4496 44.9186 43.2074Z" stroke="#5FC2D5" stroke-width="2" stroke-miterlimit="10" stroke-linejoin="round"/>
</svg>
