<svg width="63" height="63" viewBox="0 0 63 63" fill="none" xmlns="http://www.w3.org/2000/svg">
<path d="M0 18C0 8.05887 8.05888 0 18 0H45C54.9411 0 63 8.05888 63 18V63H18C8.05887 63 0 54.9411 0 45V18Z" fill="#5FC2D5" fill-opacity="0.18"/>
<path d="M26.263 38.4751C26.9142 39.1263 27.8775 39.3461 28.7423 39.0297C32.462 37.669 37.5439 36.075 40.7709 32.8479C47.2578 26.3612 45.8047 17.7468 45.8047 17.7468C45.8047 17.7468 37.1903 16.2936 30.7035 22.7805C27.4764 26.0075 25.8824 31.0894 24.5217 34.8091C24.2054 35.6739 24.4252 36.6372 25.0763 37.2884L26.263 38.4751Z" stroke="#5FC2D5" stroke-width="2" stroke-miterlimit="10" stroke-linecap="round" stroke-linejoin="round"/>
<path d="M27.8696 26.6857C26.005 25.1276 23.2257 25.2242 21.4745 26.9753L18.5156 29.9342C21.0569 29.4503 23.6715 30.2297 25.5319 32.0179" stroke="#5FC2D5" stroke-width="2" stroke-miterlimit="10" stroke-linecap="round" stroke-linejoin="round"/>
<path d="M31.5332 38.0191C33.3214 39.8795 34.1008 42.494 33.6169 45.0353L36.5757 42.0765C38.327 40.3252 38.4235 37.546 36.8654 35.6814" stroke="#5FC2D5" stroke-width="2" stroke-miterlimit="10" stroke-linecap="round" stroke-linejoin="round"/>
<path d="M22.9772 40.5745C23.9039 41.5012 23.9039 43.0037 22.9772 43.9304C22.0506 44.8571 17.9434 45.6083 17.9434 45.6083C17.9434 45.6083 18.6947 41.5012 19.6214 40.5745C20.5481 39.6478 22.0506 39.6478 22.9772 40.5745Z" stroke="#5FC2D5" stroke-width="2" stroke-miterlimit="10" stroke-linecap="round" stroke-linejoin="round"/>
<path d="M44.7186 26.7276L36.8242 18.8333" stroke="#5FC2D5" stroke-width="2" stroke-miterlimit="10" stroke-linecap="round" stroke-linejoin="round"/>
<path d="M34.8983 31.0261C36.2089 31.0261 37.2713 29.9637 37.2713 28.6532C37.2713 27.3427 36.2089 26.2803 34.8983 26.2803C33.5878 26.2803 32.5254 27.3427 32.5254 28.6532C32.5254 29.9637 33.5878 31.0261 34.8983 31.0261Z" stroke="#5FC2D5" stroke-width="2" stroke-miterlimit="10" stroke-linecap="round" stroke-linejoin="round"/>
</svg>
