<svg width="63" height="63" viewBox="0 0 63 63" fill="none" xmlns="http://www.w3.org/2000/svg">
<path d="M0 18C0 8.05887 8.05888 0 18 0H45C54.9411 0 63 8.05888 63 18V63H18C8.05887 63 0 54.9411 0 45V18Z" fill="#5FC2D5" fill-opacity="0.18"/>
<path d="M15.9429 35.6477C14.574 30.204 16.0184 24.1983 20.2761 19.9406C26.7199 13.4969 37.1672 13.4969 43.6109 19.9406C43.9497 20.2794 44.2707 20.6293 44.5739 20.9891L45.9564 19.8253C46.2803 19.5527 46.7751 19.7829 46.7751 20.2063V25.7885C46.7751 26.0975 46.4966 26.3318 46.1922 26.2792L40.6918 25.3274C40.2746 25.2552 40.1321 24.7284 40.456 24.4557L41.8562 23.277C41.6178 22.9941 41.3654 22.7189 41.099 22.4525C36.0426 17.3961 27.8445 17.3961 22.7881 22.4525C18.7422 26.4983 17.9336 32.5555 20.3622 37.4053" stroke="#5FC2D5" stroke-width="2" stroke-miterlimit="10" stroke-linecap="round" stroke-linejoin="round"/>
<path d="M43.6113 43.2754C48.7263 38.1604 49.7811 30.5228 46.7756 24.3674" stroke="#5FC2D5" stroke-width="2" stroke-miterlimit="10" stroke-linecap="round" stroke-linejoin="round"/>
<path d="M43.529 25.8182C45.953 30.6667 45.1431 36.7197 41.0994 40.7635C36.0429 45.8199 27.8448 45.8199 22.7884 40.7635C22.5246 40.4996 22.2744 40.2271 22.038 39.9471L23.4383 38.7683C23.7622 38.4957 23.6196 37.9688 23.2025 37.8966L17.7021 36.9449C17.3976 36.8923 17.1191 37.1266 17.1191 37.4356V43.0178C17.1191 43.4411 17.6139 43.6714 17.9378 43.3988L19.3203 42.2349C19.6215 42.5919 19.9402 42.9391 20.2765 43.2754C26.2297 49.2286 35.6004 49.6818 42.0738 44.6348" stroke="#5FC2D5" stroke-width="2" stroke-miterlimit="10" stroke-linecap="round" stroke-linejoin="round"/>
<path d="M33.9498 37.4597C36.2062 36.9851 38.1373 35.5633 38.1373 32.3202C38.1373 28.1397 32.8006 21.8519 31.9505 21.8519C31.1004 21.8519 25.7637 28.1397 25.7637 32.3202C25.7637 36.5007 28.9725 37.6549 31.9505 37.6549" stroke="#5FC2D5" stroke-width="2" stroke-miterlimit="10" stroke-linecap="round" stroke-linejoin="round"/>
<path d="M31.9512 24.7056V41.1047" stroke="#5FC2D5" stroke-width="2" stroke-miterlimit="10" stroke-linecap="round" stroke-linejoin="round"/>
<path d="M31.9517 35.0634L28.1504 31.2621" stroke="#5FC2D5" stroke-width="2" stroke-miterlimit="10" stroke-linecap="round" stroke-linejoin="round"/>
<path d="M31.9511 29.7263L29.6992 27.4745" stroke="#5FC2D5" stroke-width="2" stroke-miterlimit="10" stroke-linecap="round" stroke-linejoin="round"/>
<path d="M31.9512 35.0632L35.7524 31.262" stroke="#5FC2D5" stroke-width="2" stroke-miterlimit="10" stroke-linecap="round" stroke-linejoin="round"/>
<path d="M31.9512 29.7264L34.203 27.4746" stroke="#5FC2D5" stroke-width="2" stroke-miterlimit="10" stroke-linecap="round" stroke-linejoin="round"/>
</svg>
