<svg width="63" height="63" viewBox="0 0 63 63" fill="none" xmlns="http://www.w3.org/2000/svg">
<path d="M0 18C0 8.05887 8.05888 0 18 0H45C54.9411 0 63 8.05888 63 18V63H18C8.05887 63 0 54.9411 0 45V18Z" fill="#5FC2D5" fill-opacity="0.18"/>
<path d="M31.3121 18.8218L25.1644 31.9338L19.3696 37.7286C18.408 38.6902 18.408 40.2492 19.3696 41.2108L21.1107 42.9519C22.0723 43.9135 23.6314 43.9135 24.5929 42.9519L30.3877 37.1571L43.4998 31.0094" stroke="#5FC2D5" stroke-width="2" stroke-miterlimit="10" stroke-linecap="round" stroke-linejoin="round"/>
<path d="M45.2401 32.7504L29.5703 17.0807" stroke="#5FC2D5" stroke-width="2" stroke-miterlimit="10" stroke-linecap="round" stroke-linejoin="round"/>
<path d="M42.7344 23.28L45.2404 22.0051" stroke="#5FC2D5" stroke-width="2" stroke-miterlimit="10" stroke-linecap="round" stroke-linejoin="round"/>
<path d="M39.0391 19.5867L40.314 17.0807" stroke="#5FC2D5" stroke-width="2" stroke-miterlimit="10" stroke-linecap="round" stroke-linejoin="round"/>
<path d="M26.9056 40.6389L31.6551 45.3885C32.1026 45.8491 32.7286 46.1354 33.4216 46.1354C34.7815 46.1354 35.8839 45.0329 35.8839 43.6732C35.8839 42.9802 35.5976 42.3541 35.137 41.9067L25.1641 31.9338" stroke="#5FC2D5" stroke-width="2" stroke-miterlimit="10" stroke-linecap="round" stroke-linejoin="round"/>
</svg>
