<svg width="56" height="56" viewBox="0 0 56 56" fill="none" xmlns="http://www.w3.org/2000/svg">
<path d="M52.664 38.6626L44.8984 22.8977C44.5955 22.2844 44.0617 21.8164 43.4141 21.5962C42.7665 21.376 42.058 21.4217 41.444 21.7233L38.1706 23.3356C37.6335 23.6011 37.2054 24.045 36.9595 24.5914C36.7136 25.1377 36.6651 25.7526 36.8225 26.3307C34.6799 25.3868 32.2397 25.6808 29.3786 26.5393C25.735 26.0169 22.0228 25.5205 18.9404 26.9188L19.0039 26.7901C19.3054 26.1761 19.3511 25.4676 19.1309 24.82C18.9108 24.1724 18.4427 23.6385 17.8295 23.3356L14.5561 21.7231C13.9421 21.4216 13.2336 21.376 12.586 21.5962C11.9384 21.8164 11.4045 22.2844 11.1015 22.8977L3.3359 38.6626C3.03487 39.2767 2.98946 39.985 3.20964 40.6325C3.42981 41.2799 3.89762 41.8137 4.51059 42.117L7.78397 43.7294C8.13661 43.9039 8.52472 43.9948 8.91819 43.9951C9.20248 43.9948 9.48478 43.9477 9.75381 43.8558C10.3129 43.6677 10.7899 43.2924 11.1043 42.7933C11.3318 43.3696 11.6429 43.9092 12.0277 44.3948C11.3198 45.3833 11.28 45.442 11.2422 45.5063C10.3252 47.0605 10.5763 48.3121 10.9503 49.0901C11.3575 49.9584 12.3562 51.268 14.6413 51.131C14.8797 51.9631 15.2838 52.6015 15.8485 53.0355C16.5549 53.5782 17.4673 53.7749 18.561 53.6206C19.2963 53.5168 19.9807 53.1986 20.6108 52.8419C20.7397 53.3569 21.0084 53.8263 21.3874 54.1981C22.0022 54.7958 22.8726 55.0963 23.9833 55.0963C24.3581 55.0944 24.7322 55.0645 25.1026 55.0071C26.1758 54.8583 27.1706 54.3616 27.9343 53.5931L29.9995 54.7144C30.5838 55.0434 31.2413 55.221 31.9119 55.2311C32.4721 55.2344 33.023 55.0875 33.5072 54.8057C34.2052 54.3823 34.7358 53.7312 35.0096 52.9622C36.3504 53.6572 37.9955 53.9998 39.3662 53.4216C39.9835 53.1609 40.9663 52.5125 41.3751 50.9606C43.5104 51.116 44.8164 49.9949 45.1942 48.6625C45.559 47.3753 45.105 45.7541 43.7001 44.6121C44.1562 44.2293 44.531 43.759 44.8022 43.2289C44.86 43.1181 44.9123 43.0041 44.9618 42.889C45.2751 43.341 45.7255 43.6802 46.2465 43.8563C46.5155 43.9481 46.7978 43.9952 47.0821 43.9955C47.4755 43.9953 47.8637 43.9044 48.2163 43.7298L51.4897 42.1175C52.1027 41.8142 52.5705 41.2803 52.7906 40.6327C53.0107 39.9851 52.9652 39.2767 52.664 38.6626ZM39.3396 31.5526C39.3425 31.5574 39.346 31.5615 39.3488 31.5662L43.0748 39.1307C43.0771 39.1353 43.0787 39.1401 43.0811 39.1448C43.319 39.6277 43.4403 40.1597 43.4352 40.698C34.523 35.2221 30.0485 32.473 30.0485 32.473C29.9333 32.4023 29.8049 32.3561 29.6711 32.3372C29.5373 32.3183 29.4011 32.327 29.2709 32.3629C26.5004 33.1286 24.419 33.422 23.0842 33.2333C23.0387 33.227 22.9927 33.2238 22.9467 33.2238H22.9428C22.3727 33.2238 21.8553 32.7279 21.7731 32.2832C21.6585 31.6639 22.4379 31.2683 22.9126 31.0875L29.7727 28.4757C34.8514 26.9211 37.0897 27.6419 39.3396 31.5526ZM9.47239 41.6852C9.39977 41.8297 9.27325 41.9398 9.12013 41.9919C8.96701 42.0439 8.79956 42.0337 8.65394 41.9633L5.38045 40.3509C5.23593 40.2783 5.12576 40.1518 5.07372 39.9987C5.02168 39.8455 5.03195 39.6781 5.10231 39.5325L12.8679 23.7676C12.92 23.6652 12.9994 23.5793 13.0974 23.5194C13.1954 23.4596 13.3081 23.4281 13.4229 23.4285C13.5142 23.4283 13.6044 23.4491 13.6864 23.4893L16.9594 25.1015C17.1033 25.1748 17.2129 25.3013 17.2649 25.4542C17.3168 25.6071 17.3071 25.7742 17.2377 25.92L9.47239 41.6852ZM12.7318 48.2513C12.7299 48.2475 12.7282 48.2436 12.7263 48.2403C12.571 47.9185 12.4235 47.3918 12.9263 46.5274C12.9914 46.4324 13.2571 46.0608 13.4823 45.7462L15.9734 47.0988C15.7248 47.5289 15.3548 48.1729 14.8015 49.1404C13.2416 49.3406 12.8886 48.5879 12.7312 48.2513H12.7318ZM18.2866 51.6713C17.7362 51.7488 17.3197 51.6823 17.0485 51.4745C16.7087 51.2135 16.5367 50.6961 16.4496 50.2239C17.0556 49.1643 17.4497 48.4786 17.7041 48.0383L20.9947 49.8251C20.9112 50.0117 20.8191 50.2298 20.7159 50.4841C20.5871 50.5606 20.4587 50.6393 20.3331 50.7165C19.6374 51.1418 18.919 51.5819 18.2862 51.6713H18.2866ZM24.8111 53.0604C23.8233 53.2085 23.0952 53.1117 22.7608 52.787C22.4459 52.4807 22.423 51.8863 22.4696 51.4001C22.5726 51.1415 22.6592 50.9337 22.7312 50.7677L26.0756 52.5833C25.6949 52.8348 25.2627 52.9979 24.8107 53.0606L24.8111 53.0604ZM43.2997 48.125C43.0848 48.8834 42.1761 49.1767 40.9163 48.9064L27.4034 41.3011C27.2908 41.2376 27.1667 41.197 27.0384 41.1816C26.9101 41.1661 26.7799 41.1761 26.6554 41.2109C26.5309 41.2457 26.4145 41.3047 26.3128 41.3845C26.2112 41.4643 26.1262 41.5634 26.0628 41.676C25.9994 41.7887 25.9588 41.9127 25.9433 42.0411C25.9278 42.1694 25.9378 42.2995 25.9726 42.424C26.0074 42.5485 26.0664 42.6649 26.1462 42.7666C26.2261 42.8683 26.3251 42.9533 26.4378 43.0167L39.4943 50.3655C39.35 50.9999 39.051 51.4171 38.6003 51.6075C37.6952 51.9903 36.0944 51.5382 34.9561 50.5793L34.9539 50.5778C34.9203 50.5499 34.8849 50.5244 34.8479 50.5012L34.8359 50.4937C34.8233 50.4858 34.8113 50.4773 34.7982 50.47L25.2195 45.1194C25.1066 45.0553 24.9821 45.0141 24.8532 44.9983C24.7243 44.9825 24.5936 44.9923 24.4685 45.0272C24.3434 45.0622 24.2265 45.1215 24.1244 45.2018C24.0224 45.2822 23.9372 45.3819 23.8739 45.4953C23.8106 45.6087 23.7703 45.7334 23.7554 45.8625C23.7405 45.9915 23.7513 46.1222 23.7871 46.247C23.823 46.3718 23.8832 46.4883 23.9642 46.5898C24.0453 46.6912 24.1456 46.7756 24.2595 46.8382L33.2794 51.8765C33.167 52.4394 32.8966 52.8815 32.5138 53.1059C31.9764 53.4198 31.3607 53.213 30.9388 52.9841L14.3149 43.9578C12.754 42.5734 12.3193 41.0209 12.9477 39.0847L16.7025 31.4612C16.7038 31.4593 16.7052 31.4575 16.7066 31.4557C18.7777 28.2335 21.8144 27.7597 25.392 28.0379L22.212 29.2487C19.6088 30.2396 19.7361 32.0968 19.837 32.6423C20.0976 34.0517 21.4229 35.1579 22.8741 35.1922C24.4212 35.3947 26.5536 35.1266 29.3803 34.3737C30.6328 35.1432 35.1233 37.9021 42.8516 42.6503C42.5599 43.0713 42.1278 43.3748 41.6328 43.5064L29.1484 37.3785C28.9142 37.2643 28.6442 37.2477 28.3977 37.3322C28.1512 37.4168 27.9482 37.5956 27.8334 37.8296C27.7185 38.0635 27.7012 38.3335 27.785 38.5802C27.8689 38.8269 28.0472 39.0303 28.2808 39.1458L41.0634 45.4202C41.0688 45.423 41.0743 45.4247 41.0798 45.4272C41.103 45.4382 41.1266 45.448 41.1509 45.4571C41.1603 45.4607 41.1696 45.4645 41.1791 45.468C41.183 45.4693 41.1869 45.4711 41.1909 45.4724C42.8293 46.0099 43.5497 47.2433 43.2997 48.125ZM50.9262 39.9984C50.9009 40.0744 50.8608 40.1447 50.8083 40.2051C50.7557 40.2656 50.6917 40.315 50.6199 40.3506L47.3464 41.9629C47.2008 42.0332 47.0334 42.0435 46.8803 41.9915C46.7272 41.9394 46.6007 41.8293 46.5281 41.6847L38.7625 25.9196C38.6931 25.7739 38.6833 25.6067 38.7353 25.4539C38.7873 25.301 38.8968 25.1745 39.0407 25.1012L42.3142 23.489C42.46 23.4195 42.6271 23.4097 42.78 23.4616C42.9329 23.5136 43.0594 23.6232 43.1327 23.7671L50.8983 39.532C50.9336 39.604 50.9542 39.6824 50.959 39.7624C50.9638 39.8425 50.9526 39.9227 50.9262 39.9984ZM28 21.5168C30.3998 21.5151 32.7247 20.6815 34.5788 19.1579C36.4329 17.6343 37.7013 15.5149 38.168 13.161C38.6347 10.807 38.2708 8.36403 37.1383 6.24829C36.0058 4.13254 34.1747 2.47492 31.9571 1.55783C29.7394 0.640751 27.2724 0.520947 24.9763 1.21883C22.6803 1.91672 20.6972 3.38912 19.365 5.38518C18.0328 7.38123 17.4339 9.77744 17.6703 12.1656C17.9067 14.5537 18.9638 16.7859 20.6616 18.482C21.6246 19.4463 22.7687 20.2107 24.028 20.7315C25.2874 21.2523 26.6372 21.5192 28 21.5168ZM22.0537 5.19746C23.4294 3.82181 25.2395 2.96571 27.1756 2.77504C29.1117 2.58436 31.054 3.07091 32.6716 4.15177C34.2892 5.23263 35.482 6.84094 36.0467 8.70265C36.6115 10.5644 36.5132 12.5643 35.7687 14.3617C35.0242 16.1591 33.6795 17.6427 31.9637 18.5598C30.248 19.4769 28.2673 19.7707 26.3592 19.3911C24.4511 19.0116 22.7336 17.9822 21.4994 16.4783C20.2652 14.9744 19.5907 13.0891 19.5907 11.1436C19.5917 8.91359 20.4775 6.77507 22.0537 5.19746ZM24.244 13.3889C24.2127 13.2621 24.207 13.1303 24.2271 13.0013C24.2472 12.8723 24.2928 12.7485 24.3612 12.6373C24.4296 12.526 24.5195 12.4295 24.6256 12.3533C24.7317 12.2772 24.8519 12.2229 24.9791 12.1936C25.1064 12.1643 25.2382 12.1607 25.3669 12.1829C25.4956 12.2051 25.6186 12.2526 25.7288 12.3228C25.8389 12.393 25.934 12.4844 26.0084 12.5917C26.0829 12.699 26.1352 12.82 26.1625 12.9478C26.4486 14.1926 27.8487 14.3524 28.631 14.2504C29.2938 14.1642 29.6508 13.8249 29.7639 13.5362C29.8645 13.2793 29.8052 13.0086 29.5925 12.753C29.2167 12.3017 28.8417 12.228 28.0963 12.1161C27.6167 12.0584 27.1445 11.9504 26.6875 11.7939C26.6772 11.7901 26.667 11.7862 26.6569 11.7821C25.3679 11.2599 24.6093 10.2396 24.6268 9.05293C24.6449 7.84674 25.4567 6.77082 26.695 6.31177C26.8209 6.26507 26.9466 6.22515 27.0724 6.19146V5.52591C27.0724 5.26484 27.1761 5.01446 27.3607 4.82986C27.5453 4.64525 27.7957 4.54154 28.0567 4.54154C28.3178 4.54154 28.5682 4.64525 28.7528 4.82986C28.9374 5.01446 29.0411 5.26484 29.0411 5.52591V6.16871C30.203 6.47048 31.1805 7.34034 31.6729 8.64059C31.7654 8.88473 31.7571 9.15562 31.6499 9.39366C31.5426 9.6317 31.3452 9.81739 31.1011 9.90988C30.8569 10.0024 30.586 9.99409 30.348 9.88686C30.11 9.77962 29.9243 9.58222 29.8318 9.33807C29.4104 8.22529 28.4475 7.76307 27.3794 8.15857C26.8444 8.35687 26.6001 8.76593 26.5954 9.08323C26.5884 9.55168 27.0773 9.82698 27.3808 9.9521C27.7088 10.0576 28.0463 10.1306 28.3886 10.1701C29.2105 10.2934 30.2334 10.4468 31.1056 11.4941C31.7756 12.2987 31.9593 13.3309 31.5971 14.2554C31.2016 15.2648 30.2518 15.9746 29.0411 16.1788V16.7622C29.0411 17.0233 28.9374 17.2737 28.7528 17.4583C28.5682 17.6429 28.3178 17.7466 28.0567 17.7466C27.7957 17.7466 27.5453 17.6429 27.3607 17.4583C27.1761 17.2737 27.0724 17.0233 27.0724 16.7622V16.1234C25.6441 15.7856 24.5669 14.7935 24.244 13.3889Z" fill="#5FC2D5"/>
</svg>
