<svg width="225" height="48" viewBox="0 0 225 48" fill="none" xmlns="http://www.w3.org/2000/svg">
<g clip-path="url(#clip0_4586_5047)">
<path d="M76.6289 21.5704V4.31053H81.842V21.5704H76.6289Z" fill="#F3F4F4"/>
<path d="M94.9301 21.5704L88.5825 12.3076V21.5704H83.3693V4.31053H88.737L94.727 13.0068V4.31053H99.9402V21.5704H94.9345H94.9301Z" fill="#F3F4F4"/>
<path d="M113.02 21.5704L106.672 12.3076V21.5704H101.459V4.31053H106.826L112.817 13.0068V4.31053H118.03V21.5704H113.024H113.02Z" fill="#F3F4F4"/>
<path d="M128.045 4.02729C133.36 4.02729 137.465 7.65186 137.465 12.9537C137.465 18.2556 133.36 21.8801 128.045 21.8801C122.731 21.8801 118.625 18.2556 118.625 12.9537C118.625 7.65186 122.731 4.02729 128.045 4.02729ZM128.045 8.63434C125.542 8.63434 123.918 10.5506 123.918 12.9537C123.918 15.3568 125.547 17.2775 128.045 17.2775C130.544 17.2775 132.173 15.3612 132.173 12.9537C132.173 10.5462 130.544 8.63434 128.045 8.63434Z" fill="#F3F4F4"/>
<path d="M142.03 21.5704L135.682 4.31053H141.593L145.309 15.9277L149.026 4.31053H154.937L148.589 21.5704H142.034H142.03Z" fill="#F3F4F4"/>
<path d="M165.315 21.5704L164.644 19.3443H158.036L157.365 21.5704H151.714L158.062 4.31053H164.617L170.965 21.5704H165.31H165.315ZM161.337 8.91758L159.377 14.9983H163.302L161.342 8.91758H161.337Z" fill="#F3F4F4"/>
<path d="M172.77 21.5704V8.86447H168.149V4.31053H182.579V8.86447H177.983V21.5704H172.77Z" fill="#F3F4F4"/>
<path d="M183.174 21.5704V4.31053H188.388V21.5704H183.174Z" fill="#F3F4F4"/>
<path d="M198.399 4.02729C203.714 4.02729 207.819 7.65186 207.819 12.9537C207.819 18.2556 203.714 21.8801 198.399 21.8801C193.084 21.8801 188.979 18.2556 188.979 12.9537C188.979 7.65186 193.084 4.02729 198.399 4.02729ZM198.399 8.63434C195.896 8.63434 194.272 10.5506 194.272 12.9537C194.272 15.3568 195.901 17.2775 198.399 17.2775C200.898 17.2775 202.526 15.3612 202.526 12.9537C202.526 10.5462 200.898 8.63434 198.399 8.63434Z" fill="#F3F4F4"/>
<path d="M219.98 21.5704L213.632 12.3076V21.5704H208.419V4.31053H213.787L219.777 13.0068V4.31053H224.99V21.5704H219.984H219.98Z" fill="#F3F4F4"/>
<path d="M75.7018 32.5591C75.7018 27.2307 79.7805 23.6327 85.0466 23.6327C89.6948 23.6327 91.9637 26.2703 92.9966 28.6513L88.503 30.749C88.0615 29.4037 86.7196 28.2397 85.0422 28.2397C82.6674 28.2397 80.99 30.156 80.99 32.5591C80.99 34.9622 82.6674 36.8829 85.0422 36.8829C86.7196 36.8829 88.0615 35.719 88.503 34.3736L92.9966 36.4448C91.9902 38.7461 89.6904 41.49 85.0466 41.49C79.7805 41.49 75.7018 37.8654 75.7018 32.5635V32.5591Z" fill="#F3F4F4"/>
<path d="M93.3542 41.1757V23.9159H98.5674V41.1757H93.3542Z" fill="#F3F4F4"/>
<path d="M103.781 41.1757V28.4698H99.159V23.9159H113.589V28.4698H108.994V41.1757H103.781Z" fill="#F3F4F4"/>
<path d="M118.776 41.1757V34.3205L112.322 23.9159H118.18L121.38 29.74L124.532 23.9159H130.389L123.989 34.3205V41.1757H118.776Z" fill="#F3F4F4"/>
<path d="M28.3727 19.4107H47.6937C45.5572 8.3511 35.8504 0 24.1969 0C10.9763 0 0.258614 10.7453 0.258614 24C0.258614 37.2547 10.9763 48 24.1969 48C35.7886 48 45.4513 39.7418 47.6584 28.7796H28.3727V19.4107Z" fill="url(#paint0_linear_4586_5047)"/>
<path d="M66.9926 19.4107H47.6937C47.9806 20.8977 48.1351 22.4289 48.1351 24C48.1351 25.5711 47.9718 27.2351 47.6584 28.7796H66.9882V19.4107H66.9926Z" fill="#5752A3"/>
</g>
<defs>
<linearGradient id="paint0_linear_4586_5047" x1="12.1108" y1="24" x2="59.5458" y2="24" gradientUnits="userSpaceOnUse">
<stop stop-color="#85D2DB"/>
<stop offset="0.09" stop-color="#83CCD8"/>
<stop offset="0.2" stop-color="#81BCD2"/>
<stop offset="0.32" stop-color="#7CA2C7"/>
<stop offset="0.45" stop-color="#757EB7"/>
<stop offset="0.53" stop-color="#7165AD"/>
<stop offset="0.64" stop-color="#645CA8"/>
<stop offset="0.81" stop-color="#5A54A4"/>
<stop offset="1" stop-color="#5752A3"/>
</linearGradient>
<clipPath id="clip0_4586_5047">
<rect width="224.727" height="48" fill="white"/>
</clipPath>
</defs>
</svg>
