<svg width="50" height="50" viewBox="0 0 50 50" fill="none" xmlns="http://www.w3.org/2000/svg">
<path d="M49.4851 11.2322L38.8317 0.517887C38.6657 0.352384 38.469 0.221446 38.2527 0.132581C38.0363 0.0437158 37.8047 -0.00132889 37.571 2.98469e-05H16.2642C14.8515 2.98469e-05 13.4966 0.564441 12.4977 1.5691C11.4987 2.57376 10.9375 3.93637 10.9375 5.35717V8.9286C10.9375 9.4022 11.1246 9.8564 11.4576 10.1913C11.7905 10.5262 12.2422 10.7143 12.7131 10.7143C13.184 10.7143 13.6356 10.5262 13.9686 10.1913C14.3016 9.8564 14.4886 9.4022 14.4886 8.9286V5.35717C14.4886 4.88357 14.6757 4.42937 15.0087 4.09448C15.3417 3.75959 15.7933 3.57146 16.2642 3.57146H35.7954V8.9286C35.7954 10.3494 36.3566 11.712 37.3556 12.7167C38.3545 13.7213 39.7094 14.2857 41.1221 14.2857H46.4488V44.6429C46.4488 45.1165 46.2618 45.5707 45.9288 45.9056C45.5958 46.2404 45.1442 46.4286 44.6733 46.4286H23.3665C22.8956 46.4286 22.4439 46.6167 22.111 46.9516C21.778 47.2865 21.5909 47.7407 21.5909 48.2143C21.5909 48.6879 21.778 49.1421 22.111 49.477C22.4439 49.8119 22.8956 50 23.3665 50H44.6733C46.086 50 47.4409 49.4356 48.4398 48.4309C49.4388 47.4263 50 46.0637 50 44.6429V12.5C50.0013 12.265 49.9565 12.032 49.8682 11.8145C49.7798 11.5969 49.6496 11.399 49.4851 11.2322ZM39.3466 8.9286V6.08931L43.9453 10.7143H41.1221C40.6512 10.7143 40.1996 10.5262 39.8666 10.1913C39.5336 9.8564 39.3466 9.4022 39.3466 8.9286Z" fill="#5FC2D5"/>
<path d="M21.875 24.8588C21.8787 23.0607 21.4254 21.2902 20.5566 19.7087C19.6878 18.1273 18.431 16.7852 16.9008 15.8048C15.3706 14.8244 13.6156 14.2369 11.7959 14.0957C9.97614 13.9546 8.14948 14.2644 6.48239 14.9968C4.8153 15.7293 3.36081 16.8611 2.25149 18.2891C1.14216 19.7172 0.413291 21.396 0.131302 23.1726C-0.150688 24.9492 0.0231745 26.7671 0.637042 28.4605C1.25091 30.154 2.28526 31.6691 3.64581 32.8679V48.2037C3.64761 48.5583 3.75589 48.9043 3.95702 49.1983C4.15815 49.4923 4.44312 49.7211 4.77602 49.8558C5.10799 49.9934 5.47388 50.0309 5.8275 49.9638C6.18113 49.8967 6.50665 49.7279 6.763 49.4787L10.9375 45.3485L15.112 49.4787C15.2823 49.6452 15.4843 49.7768 15.7064 49.8662C15.9285 49.9556 16.1663 50.0009 16.4062 49.9995C16.6454 50.0056 16.8826 49.9564 17.0989 49.8558C17.4318 49.7211 17.7168 49.4923 17.9179 49.1983C18.1191 48.9043 18.2273 48.5583 18.2291 48.2037V32.8679C19.3734 31.8598 20.2894 30.6256 20.9175 29.2457C21.5456 27.8658 21.8719 26.3711 21.875 24.8588ZM14.5833 43.876L12.2317 41.5415C12.0623 41.3731 11.8607 41.2396 11.6385 41.1484C11.4164 41.0572 11.1781 41.0103 10.9375 41.0103C10.6968 41.0103 10.4586 41.0572 10.2364 41.1484C10.0143 41.2396 9.81267 41.3731 9.64321 41.5415L7.29165 43.876V35.0049C9.64778 35.8428 12.2272 35.8428 14.5833 35.0049V43.876ZM10.9375 32.0419C9.49532 32.0419 8.08555 31.6206 6.88645 30.8313C5.68734 30.042 4.75275 28.9202 4.20086 27.6077C3.64897 26.2951 3.50457 24.8509 3.78592 23.4575C4.06727 22.0641 4.76173 20.7842 5.78149 19.7797C6.80125 18.7751 8.1005 18.091 9.51495 17.8138C10.9294 17.5367 12.3955 17.6789 13.7279 18.2226C15.0603 18.7662 16.1991 19.6869 17.0003 20.8682C17.8015 22.0494 18.2291 23.4382 18.2291 24.8588C18.2291 26.7639 17.4609 28.5909 16.0935 29.938C14.726 31.2851 12.8713 32.0419 10.9375 32.0419Z" fill="#5FC2D5"/>
<path d="M30.2455 10.9375H21.317C20.8434 10.9375 20.3892 11.1021 20.0543 11.3951C19.7194 11.6882 19.5312 12.0856 19.5312 12.5C19.5312 12.9144 19.7194 13.3118 20.0543 13.6049C20.3892 13.8979 20.8434 14.0625 21.317 14.0625H30.2455C30.7191 14.0625 31.1733 13.8979 31.5082 13.6049C31.8431 13.3118 32.0312 12.9144 32.0312 12.5C32.0312 12.0856 31.8431 11.6882 31.5082 11.3951C31.1733 11.1021 30.7191 10.9375 30.2455 10.9375Z" fill="#5FC2D5"/>
<path d="M41.1719 19.5312H26.7969C26.3203 19.5312 25.8633 19.737 25.5263 20.1033C25.1893 20.4696 25 20.9664 25 21.4844C25 22.0024 25.1893 22.4992 25.5263 22.8654C25.8633 23.2317 26.3203 23.4375 26.7969 23.4375H41.1719C41.6484 23.4375 42.1055 23.2317 42.4425 22.8654C42.7794 22.4992 42.9688 22.0024 42.9688 21.4844C42.9688 20.9664 42.7794 20.4696 42.4425 20.1033C42.1055 19.737 41.6484 19.5312 41.1719 19.5312Z" fill="#5FC2D5"/>
<path d="M41.1719 28.125H26.7969C26.3203 28.125 25.8633 28.3308 25.5263 28.6971C25.1893 29.0633 25 29.5601 25 30.0781C25 30.5961 25.1893 31.0929 25.5263 31.4592C25.8633 31.8255 26.3203 32.0312 26.7969 32.0312H41.1719C41.6484 32.0312 42.1055 31.8255 42.4425 31.4592C42.7794 31.0929 42.9688 30.5961 42.9688 30.0781C42.9688 29.5601 42.7794 29.0633 42.4425 28.6971C42.1055 28.3308 41.6484 28.125 41.1719 28.125Z" fill="#5FC2D5"/>
<path d="M41.2109 37.5H23.6328C23.1666 37.5 22.7195 37.6646 22.3899 37.9576C22.0602 38.2507 21.875 38.6481 21.875 39.0625C21.875 39.4769 22.0602 39.8743 22.3899 40.1674C22.7195 40.4604 23.1666 40.625 23.6328 40.625H41.2109C41.6771 40.625 42.1242 40.4604 42.4539 40.1674C42.7836 39.8743 42.9688 39.4769 42.9688 39.0625C42.9688 38.6481 42.7836 38.2507 42.4539 37.9576C42.1242 37.6646 41.6771 37.5 41.2109 37.5Z" fill="#5FC2D5"/>
</svg>
