<svg width="25" height="34" viewBox="0 0 25 34" fill="none" xmlns="http://www.w3.org/2000/svg">
<path d="M11.8284 33.7942C18.376 33.7942 23.7091 28.461 23.7091 21.9134C23.7091 21.2798 23.6563 20.6461 23.5507 20.0125C23.4451 19.3789 23.5507 19.9597 23.5507 19.9069C22.5475 14.2569 17.6895 10.0855 11.8812 10.0855C13.3597 6.97005 17.6367 6.60043 17.6895 6.60043C17.9536 6.60043 18.2176 6.33641 18.1648 6.01959C18.1648 5.70277 17.9007 5.49156 17.5839 5.54436C17.4783 5.54436 15.947 5.70277 14.3101 6.44202C14.2045 4.6467 15.7886 2.79858 18.5872 3.16821C20.9634 3.48503 22.2834 2.64017 23.0227 1.84812C23.1811 3.16821 23.0755 5.43875 20.8577 7.33968C19.4321 8.60696 17.5839 8.76537 16.5279 8.29014C16.2638 8.18453 15.947 8.29014 15.8414 8.55415C15.7358 8.81817 15.8414 9.13499 16.1054 9.2406C17.5839 9.87424 19.8017 9.61022 21.5442 8.07892C25.3988 4.6467 23.7091 0.316821 23.7091 0.264017C23.6563 0.105607 23.4979 0 23.2339 0C23.0227 0 22.8115 0.15841 22.7587 0.369624C22.7059 0.475231 22.0194 2.53456 18.7456 2.11214C14.9438 1.5841 12.8316 4.48829 13.3069 6.97005C13.0956 7.12846 12.8316 7.28687 12.6204 7.44528C12.4092 7.23407 12.198 7.02285 11.9868 6.81164C12.5676 4.6995 10.7723 2.11214 7.49848 2.53456C4.91111 2.90419 4.33027 1.26728 4.33027 1.16168C4.27747 0.950461 4.06625 0.792051 3.85504 0.792051C3.64383 0.792051 3.43261 0.897658 3.327 1.10887C3.327 1.16168 1.90131 4.75231 5.12232 7.60369C6.49521 8.81817 8.39613 9.08219 9.66342 8.55415C9.92743 8.44855 10.0858 8.13173 9.92743 7.86771C9.82183 7.60369 9.50501 7.44528 9.24099 7.60369C8.39613 7.97332 6.97044 7.86771 5.80877 6.81164C4.17186 5.33315 3.96065 3.69624 4.06625 2.64017C4.7527 3.27381 5.86157 3.80185 7.60408 3.59063C9.82183 3.27381 11.0363 4.6995 10.9835 6.07239C10.1386 5.54436 9.18819 5.22754 8.18492 5.12193C7.8681 5.06913 7.65689 5.28034 7.60408 5.59716C7.55128 5.86118 7.76249 6.1252 8.07931 6.178C9.55781 6.33641 10.7723 6.97005 11.7756 8.13173C11.3003 8.65976 10.8779 9.2934 10.6139 10.0855C4.11906 10.7191 1.32047 16.105 1.42608 15.9994C1.26767 16.2635 1.37328 16.5803 1.6373 16.6859C1.79571 16.7915 2.00692 16.7915 2.21813 16.6331C2.69336 16.3163 3.11579 15.9466 3.80224 15.9994C4.17186 16.0522 4.48868 16.3691 4.48868 16.7387C4.48868 17.0555 4.01345 18.0588 4.64709 18.9036C5.28073 19.8013 6.70642 19.7485 6.97044 20.2765C7.02324 20.4349 7.02324 20.6461 6.97044 21.0686C6.86483 22.1774 7.18165 23.3391 7.8681 24.2896C8.02651 24.5008 7.97371 24.8176 7.70969 24.976C7.02324 25.5041 6.86483 26.4545 7.34007 27.141C7.97371 27.9858 8.76576 28.7779 9.50501 29.4115C10.1386 29.9923 10.4027 30.0979 11.1947 30.0979C11.5115 30.1508 12.6204 30.0979 13.6237 30.7316C14.1517 31.1012 14.5213 31.6821 14.6269 32.2101C13.7293 32.4213 12.8316 32.5797 11.8812 32.5797C5.91437 32.5797 1.05646 27.7218 1.05646 21.755C1.05646 20.8574 1.16206 20.0125 1.37328 19.1676C1.42608 18.9036 1.26767 18.5868 1.00365 18.534C0.739637 18.4812 0.422816 18.6396 0.370013 18.9036C0.158799 19.8541 0.000388753 20.8045 0.000388753 21.755C-0.0524147 28.461 5.28073 33.7942 11.8284 33.7942ZM22.2834 19.2204C20.7521 18.9564 19.0096 19.6957 17.6895 19.8013C17.0559 19.8541 16.1582 19.8541 15.4718 19.4317C14.8382 19.062 14.4685 18.27 14.5741 17.5307C14.6269 16.9499 15.0494 16.4219 15.3134 15.7882C16.1054 13.8873 14.7853 12.5672 12.726 13.0952C11.1947 13.4649 10.8779 13.8345 9.66342 12.62C9.3994 12.356 9.08258 11.828 9.08258 11.5111C9.92743 11.2999 10.8779 11.1415 11.7756 11.1415C16.7919 11.0887 21.069 14.4681 22.2834 19.2204ZM11.3003 29.2003C10.7723 29.1475 10.7195 29.2531 10.2443 28.7779C9.55781 28.1442 8.81856 27.4578 8.23772 26.6657C8.07931 26.4545 8.13212 26.1377 8.39613 25.9265C9.08258 25.4512 9.29379 24.448 8.76576 23.8143C8.23772 23.0751 7.97371 22.1774 8.07931 21.2798C8.13212 20.8574 8.18492 20.4349 8.02651 20.0125C7.55128 18.8508 6.01998 19.0092 5.59755 18.4284C5.49194 18.27 5.43914 18.006 5.49195 17.6891C5.54475 17.4251 5.65036 17.1611 5.59755 16.7915C5.54475 15.8938 4.8055 15.1546 3.96065 15.1018C3.80224 15.1018 3.64382 15.1018 3.48541 15.1018C4.69989 13.6233 6.284 12.5144 8.07931 11.828C8.29053 12.9896 9.61061 14.2569 10.6667 14.4681C11.5115 14.6265 12.3036 14.3097 12.99 14.0985C13.4653 13.9929 14.1517 13.9401 14.3629 14.3097C14.5213 14.5209 14.5213 14.9434 14.3101 15.3658C14.1517 15.841 13.8349 16.2635 13.6237 16.8971C13.0428 18.798 14.3629 20.8574 17.1087 20.8574H17.7423C19.2736 20.7517 21.2802 19.8541 22.4946 20.4349C22.5475 20.963 22.6003 21.4382 22.6003 21.9662C22.6003 26.6129 19.6433 30.5732 15.5774 32.1045C15.3134 30.5732 13.9405 29.2531 11.3003 29.2003Z" fill="#5FC2D5"/>
<path d="M18.376 26.2432C18.4288 26.1376 19.3264 25.4512 19.8545 24.0783C20.2769 23.0222 19.9601 21.9662 18.8512 21.8606C17.7423 21.755 17.1615 22.5998 17.0031 22.6526C16.6334 22.9166 14.4685 21.8078 14.4685 25.0288C14.4685 26.8769 14.9965 28.9362 16.7391 29.5699C17.7951 29.9395 18.904 29.0418 18.2176 27.6161C17.8479 26.9297 17.6895 26.9297 18.376 26.2432ZM16.8447 26.8769C16.7919 27.4049 17.1087 27.8274 17.2671 28.197C17.3727 28.461 17.3727 28.6194 17.3727 28.6722C17.2143 28.8306 15.3662 28.2498 15.5774 24.6591C15.5774 24.2367 15.7358 23.9199 15.8942 23.8671C16.211 23.7087 16.9503 24.0783 17.6367 23.6559C17.8479 23.5503 17.9007 23.3919 18.0591 23.2863C18.376 22.9694 18.8512 22.9694 19.0096 23.075C19.1152 23.1278 19.1152 23.4447 18.9568 23.8143C18.1119 25.5568 16.8975 25.6624 16.8447 26.8769Z" fill="#5FC2D5"/>
</svg>
