<svg width="18" height="17" viewBox="0 0 18 17" fill="none" xmlns="http://www.w3.org/2000/svg">
<g clip-path="url(#clip0_1835_2714)">
<path fill-rule="evenodd" clip-rule="evenodd" d="M9.29999 12.75C11.6472 12.75 13.55 10.8472 13.55 8.5C13.55 6.15279 11.6472 4.25 9.29999 4.25C6.95278 4.25 5.04999 6.15279 5.04999 8.5C5.04999 10.8472 6.95278 12.75 9.29999 12.75ZM9.29999 11.3333C10.8648 11.3333 12.1333 10.0648 12.1333 8.5C12.1333 6.93519 10.8648 5.66667 9.29999 5.66667C7.73518 5.66667 6.46665 6.93519 6.46665 8.5C6.46665 10.0648 7.73518 11.3333 9.29999 11.3333Z" fill="white" fill-opacity="0.38"/>
<path d="M13.5503 3.5415C13.1591 3.5415 12.842 3.85864 12.842 4.24984C12.842 4.64104 13.1591 4.95817 13.5503 4.95817C13.9415 4.95817 14.2586 4.64104 14.2586 4.24984C14.2586 3.85864 13.9415 3.5415 13.5503 3.5415Z" fill="white" fill-opacity="0.38"/>
<path fill-rule="evenodd" clip-rule="evenodd" d="M1.97122 3.02904C1.508 3.93816 1.508 5.12828 1.508 7.5085V9.49183C1.508 11.872 1.508 13.0622 1.97122 13.9713C2.37868 14.771 3.02884 15.4211 3.82854 15.8286C4.73766 16.2918 5.92778 16.2918 8.308 16.2918H10.2913C12.6715 16.2918 13.8617 16.2918 14.7708 15.8286C15.5705 15.4211 16.2206 14.771 16.6281 13.9713C17.0913 13.0622 17.0913 11.872 17.0913 9.49183V7.5085C17.0913 5.12828 17.0913 3.93816 16.6281 3.02904C16.2206 2.22934 15.5705 1.57918 14.7708 1.17172C13.8617 0.708496 12.6715 0.708496 10.2913 0.708496H8.308C5.92778 0.708496 4.73766 0.708496 3.82854 1.17172C3.02884 1.57918 2.37868 2.22934 1.97122 3.02904ZM10.2913 2.12516H8.308C7.09451 2.12516 6.26959 2.12627 5.63197 2.17836C5.01087 2.2291 4.69326 2.32108 4.47169 2.43397C3.93856 2.70562 3.50512 3.13906 3.23347 3.67219C3.12058 3.89376 3.0286 4.21137 2.97786 4.83247C2.92577 5.47009 2.92466 6.29501 2.92466 7.5085V9.49183C2.92466 10.7053 2.92577 11.5302 2.97786 12.1678C3.0286 12.789 3.12058 13.1066 3.23347 13.3282C3.50512 13.8613 3.93856 14.2947 4.47169 14.5663C4.69326 14.6792 5.01087 14.7712 5.63197 14.822C6.26959 14.874 7.09451 14.8752 8.308 14.8752H10.2913C11.5048 14.8752 12.3297 14.874 12.9673 14.822C13.5885 14.7712 13.9061 14.6792 14.1277 14.5663C14.6608 14.2947 15.0942 13.8613 15.3658 13.3282C15.4787 13.1066 15.5707 12.789 15.6215 12.1678C15.6735 11.5302 15.6747 10.7053 15.6747 9.49183V7.5085C15.6747 6.29501 15.6735 5.47009 15.6215 4.83247C15.5707 4.21137 15.4787 3.89376 15.3658 3.67219C15.0942 3.13906 14.6608 2.70562 14.1277 2.43397C13.9061 2.32108 13.5885 2.2291 12.9673 2.17836C12.3297 2.12627 11.5048 2.12516 10.2913 2.12516Z" fill="white" fill-opacity="0.38"/>
</g>
<defs>
<clipPath id="clip0_1835_2714">
<rect width="17" height="17" fill="white" transform="translate(0.799988)"/>
</clipPath>
</defs>
</svg>
