<svg width="35" height="35" viewBox="0 0 35 35" fill="none" xmlns="http://www.w3.org/2000/svg">
<path d="M19.8088 22.1412C19.8088 25.3588 22.4173 27.9672 25.6349 27.9672C28.8523 27.9672 31.4608 25.3588 31.4608 22.1412C31.4608 18.9237 28.8523 16.3153 25.6349 16.3153C22.4187 16.3188 19.8124 18.9252 19.8088 22.1412ZM25.6349 17.4804C28.209 17.4804 30.2957 19.567 30.2957 22.1412C30.2957 24.7153 28.209 26.8019 25.6349 26.8019C23.0608 26.8019 20.9741 24.7153 20.9741 22.1412C20.977 19.5684 23.062 17.4832 25.6349 17.4804Z" fill="#5FC2D5"/>
<path d="M22.3059 33.7933H28.9645V34.9584H22.3059V33.7933Z" fill="#5FC2D5"/>
<path d="M19.8088 31.4626H31.461V32.628H19.8088V31.4626Z" fill="#5FC2D5"/>
<path d="M6.9917 31.4626H8.15701V32.628H6.9917V31.4626Z" fill="#5FC2D5"/>
<path d="M3.49609 32.6279H4.66117V33.7932H3.49609V32.6279Z" fill="#5FC2D5"/>
<path d="M7.05003 28.1844C10.0921 22.8862 12.0008 17.0138 12.6552 10.9396L18.0735 16.3257C18.1818 16.4335 18.3282 16.4944 18.4813 16.4951C18.5127 16.4954 18.5445 16.4928 18.5755 16.4876C18.7602 16.4575 18.9191 16.3405 19.0026 16.1731C20.1009 13.9809 19.6708 11.3316 17.9353 9.59963L17.4588 9.12297H21.5567C21.8785 9.12321 22.1396 8.86255 22.1396 8.54079C22.1398 8.4778 22.1295 8.41528 22.1097 8.35582C21.336 6.02896 19.1586 4.45986 16.7065 4.46221H15.9492L18.8587 1.53577C19.0858 1.30778 19.0848 0.939012 18.8568 0.711967C18.8127 0.668016 18.7619 0.63135 18.7062 0.603616C16.5131 -0.495884 13.8623 -0.0660027 12.1292 1.67045L11.5728 2.22678C11.3914 2.4094 11.2229 2.60401 11.0677 2.80943C10.9145 2.60401 10.7471 2.4094 10.5671 2.22678L10.0108 1.67045C8.27903 -0.0648275 5.6297 -0.494709 3.43799 0.603616C3.15007 0.747458 3.03326 1.09743 3.1771 1.38511C3.20484 1.44081 3.2415 1.49158 3.28545 1.53577L6.19826 4.46221H5.43345C2.98132 4.45986 0.803706 6.02896 0.0302016 8.35582C-0.0718042 8.66089 0.0929562 8.99088 0.398268 9.09289C0.457732 9.11287 0.520252 9.12297 0.583242 9.12297H4.6771L4.20069 9.59963C2.46518 11.3316 2.03506 13.9809 3.13315 16.1731C3.21682 16.3405 3.37571 16.4575 3.56021 16.4876C3.59147 16.4928 3.62297 16.4954 3.6547 16.4951C3.80864 16.4951 3.95625 16.4342 4.0653 16.3257L9.11083 11.31C8.4861 16.8928 6.38347 22.2079 3.01963 26.707C2.23649 26.5013 1.44253 26.3394 0.641531 26.2223L0.27746 26.1857L0.160882 27.3456L0.500509 27.3787C1.08316 27.4621 1.66206 27.5799 2.2379 27.7132C2.12132 27.8594 2.00474 28.0079 1.88417 28.152L2.77778 28.8994C7.25498 23.5763 9.92405 16.9678 10.3995 10.0283L11.0701 9.36201L11.5721 9.86122C10.9596 17.2825 8.4123 24.4137 4.18423 30.5435L5.13848 31.2112C5.59657 30.5573 6.0335 29.8788 6.45703 29.1873C9.18228 30.4908 11.5886 32.3761 13.5065 34.7102L14.4076 33.9719C13.2736 32.5932 11.9743 31.359 10.5387 30.2976H34.9566V29.1323H8.81257C8.24143 28.7875 7.65196 28.4752 7.05003 28.1844ZM18.2674 14.8743L12.1118 8.7542C13.6863 8.28413 15.3917 8.71072 16.5594 9.86686L17.1157 10.4234C18.2812 11.5869 18.7222 13.2916 18.2674 14.8743ZM20.6678 7.9579H15.8439C14.7204 7.42319 13.4529 7.27183 12.2352 7.52731C13.0829 6.33521 14.4551 5.62728 15.9179 5.62752H16.7044C18.3513 5.62493 19.8694 6.5176 20.6678 7.9579ZM12.3948 3.05058L12.9513 2.49425C14.1157 1.32847 15.8211 0.887304 17.4046 1.34233L13.9509 4.81641C12.83 5.22889 11.8678 5.9843 11.2005 6.97498C10.9295 5.54972 11.3766 4.08215 12.3966 3.05058H12.3948ZM9.18533 2.49425L9.74166 3.05058C10.0011 3.31546 10.2263 3.61208 10.4118 3.93314C10.1478 4.54682 9.99715 5.20281 9.96659 5.86984C9.44364 5.41293 8.84124 5.05614 8.18972 4.81641L4.73539 1.34233C6.31836 0.887539 8.02331 1.3287 9.18698 2.49425H9.18533ZM5.43157 5.62752H6.21824C7.68204 5.62611 9.05606 6.3338 9.90478 7.52661C8.68776 7.27206 7.42068 7.42343 6.29791 7.9579H1.47215C2.27033 6.5183 3.78726 5.62587 5.43345 5.62752H5.43157ZM3.87257 14.8743C3.41778 13.2916 3.85894 11.5869 5.02449 10.4234L5.58082 9.86686C6.41896 9.03084 7.55559 8.56288 8.7397 8.56664C9.17664 8.56688 9.61122 8.62916 10.0308 8.75185L3.87257 14.8743Z" fill="#5FC2D5"/>
</svg>
