<svg width="52" height="56" viewBox="0 0 52 56" fill="none" xmlns="http://www.w3.org/2000/svg">
<path d="M40.7243 39.7756L35.5257 38.0431L33.6594 34.3105C35.3407 32.5992 36.5081 30.3349 36.9017 27.9732L37.1345 26.5781H39.125C40.9343 26.5781 42.4062 25.1062 42.4062 23.2969V16.4062C42.4062 7.35984 35.0464 0 26 0C16.9304 0 9.59375 7.33873 9.59375 16.4062V23.2969C9.59375 24.7227 10.5082 25.9385 11.7812 26.39V27.6719C11.7812 29.4812 13.2532 30.9531 15.0625 30.9531H16.023C16.4972 31.9831 17.1109 32.9371 17.8577 33.794C18.0126 33.9721 18.1741 34.1447 18.3396 34.3126L16.4743 38.0431L11.2756 39.7757C5.231 41.7913 0.84375 48.1546 0.84375 54.9062C0.84375 55.5103 1.33342 56 1.9375 56H50.0625C50.6665 56 51.1562 55.5103 51.1562 54.9062C51.1562 48.1546 46.7691 41.7913 40.7243 39.7756ZM40.2188 23.2969C40.2188 23.9 39.7281 24.3906 39.125 24.3906H37.4557C37.7337 22.237 37.919 19.9453 37.9935 17.6881C37.9957 17.6245 37.9975 17.5626 37.9994 17.5H40.2188V23.2969ZM12.875 24.3906C12.2719 24.3906 11.7812 23.9 11.7812 23.2969V17.5H14.0013C14.005 17.6141 14.0088 17.7287 14.013 17.8441C14.0132 17.848 14.0134 17.8519 14.0135 17.8558C14.0135 17.8561 14.0135 17.8565 14.0135 17.8568C14.09 20.0522 14.2729 22.2844 14.5446 24.3905H12.875V24.3906ZM15.0625 28.7656C14.4594 28.7656 13.9688 28.275 13.9688 27.6719V26.5781H14.8654L15.0982 27.9736C15.1426 28.2389 15.1971 28.5031 15.2603 28.7656H15.0625ZM13.9706 15.3125H11.8228C12.3768 7.98208 18.4944 2.1875 26 2.1875C33.4723 2.1875 39.6167 7.98131 40.1771 15.3125H38.0295C37.9508 9.27205 33.0318 4.375 26.979 4.375H25.0212C18.9685 4.375 14.0492 9.27205 13.9706 15.3125ZM25.0211 6.5625H26.9789C31.8799 6.5625 35.8466 10.5712 35.8438 15.4667C35.8438 15.8109 35.841 16.1106 35.8352 16.3833C35.8352 16.3868 35.8351 16.3904 35.8351 16.394L34.467 16.1985C30.7505 15.6679 27.2413 13.9133 24.5859 11.2579C24.3807 11.0528 24.1026 10.9375 23.8125 10.9375C20.8751 10.9375 18.0633 12.2758 16.2046 14.5368C16.6627 10.0832 20.4277 6.5625 25.0211 6.5625ZM17.5278 28.7656C16.9803 26.9442 16.3538 21.5848 16.2153 18.1505L17.6874 16.1876C19.0394 14.3855 21.1428 13.2659 23.3803 13.1374C26.3243 15.9391 30.133 17.7893 34.1577 18.364L35.768 18.5941C35.6603 20.8784 35.4404 23.1707 35.1253 25.2789C35.1252 25.2795 35.125 25.2803 35.1249 25.281C35.0247 25.9588 34.9458 26.395 34.7441 27.6134C34.1648 31.0877 31.5724 34.2295 28.1502 35.0851C26.7418 35.4367 25.258 35.4366 23.8503 35.0851C21.7135 34.5509 19.7541 33.0724 18.4897 30.9531H20.7194C21.1709 32.2261 22.3866 33.1406 23.8125 33.1406H26C27.8129 33.1406 29.2812 31.6724 29.2812 29.8594C29.2812 28.0501 27.8093 26.5781 26 26.5781H23.8125C22.3549 26.5781 21.1571 27.5196 20.7175 28.7656H17.5278ZM23.7205 37.2986C24.4707 37.4567 25.2356 37.5375 26 37.5375C26.5984 37.5375 27.1969 37.4874 27.7886 37.3903L25.856 39.4342L23.7205 37.2986ZM24.3523 41.0243L20.8831 44.6929C19.928 42.8648 19.1074 40.9622 18.4343 39.0145L19.7371 36.409L24.3523 41.0243ZM32.0775 36.0384L33.5655 39.0144C32.8913 40.9654 32.0704 42.8687 31.1163 44.6946L27.4033 40.9815L32.0775 36.0384ZM22.7188 29.8594C22.7188 29.2555 23.2085 28.7656 23.8125 28.7656H26C26.6031 28.7656 27.0938 29.2563 27.0938 29.8594C27.0938 30.4633 26.6039 30.9531 26 30.9531H23.8125C23.2094 30.9531 22.7188 30.4625 22.7188 29.8594ZM3.075 53.8125C3.50845 48.3942 7.11444 43.4692 11.9674 41.8509L16.5714 40.3166C17.4149 42.649 18.4599 44.916 19.6846 47.0694C19.6867 47.0731 19.6886 47.0769 19.6907 47.0805L19.6908 47.0807C20.5856 48.6545 21.5927 50.1924 22.6846 51.6525L24.0302 53.8125H3.075ZM26 52.8375L24.5167 50.4561C24.5 50.4294 24.4823 50.4035 24.4635 50.3783C23.5778 49.1969 22.7516 47.9613 21.9991 46.6966L25.8997 42.5716L30.0098 46.6817C29.2523 47.9556 28.4232 49.1963 27.5367 50.3781C27.4831 50.4495 27.5591 50.337 26 52.8375ZM27.9698 53.8125L29.3153 51.6526C30.412 50.1869 31.4263 48.6367 32.3301 47.0444C32.3355 47.0347 32.3407 47.0249 32.3462 47.0153C32.3468 47.0141 32.3475 47.013 32.3481 47.0118C33.5573 44.879 34.5913 42.6316 35.4286 40.3166L40.0325 41.8509C44.8856 43.4692 48.4915 48.3942 48.925 53.8125H27.9698Z" fill="#5FC2D5"/>
</svg>
