<svg width="269" height="269" viewBox="0 0 269 269" fill="none" xmlns="http://www.w3.org/2000/svg">
<path d="M138.688 152.854C136.918 148.181 125.382 117.743 123.617 113.087L108.546 152.854" stroke="#5FC2D5" stroke-width="4" stroke-miterlimit="10" stroke-linecap="round" stroke-linejoin="round"/>
<path d="M114.71 143.018H132.674" stroke="#5FC2D5" stroke-width="4" stroke-miterlimit="10" stroke-linecap="round" stroke-linejoin="round"/>
<path d="M155.269 113.087V152.854" stroke="#5FC2D5" stroke-width="4" stroke-miterlimit="10" stroke-linecap="round" stroke-linejoin="round"/>
<path d="M134.554 23.5226V44.3865" stroke="#5752A3" stroke-width="4" stroke-miterlimit="10" stroke-linecap="round" stroke-linejoin="round"/>
<path d="M143.312 16.1259C145.315 11.29 143.019 5.7459 138.183 3.74277C133.347 1.73965 127.803 4.03605 125.8 8.87193C123.797 13.7078 126.093 19.2519 130.929 21.255C135.765 23.2582 141.309 20.9618 143.312 16.1259Z" stroke="#5752A3" stroke-width="4" stroke-miterlimit="10" stroke-linecap="round" stroke-linejoin="round"/>
<path d="M208.587 28.2045C210.591 23.3686 208.294 17.8245 203.458 15.8214C198.622 13.8183 193.078 16.1147 191.075 20.9505C189.072 25.7864 191.368 31.3305 196.204 33.3336C201.04 35.3368 206.584 33.0404 208.587 28.2045Z" stroke="#5752A3" stroke-width="4" stroke-miterlimit="10" stroke-linecap="round" stroke-linejoin="round"/>
<path d="M189.151 24.5812H171.707C168.04 24.5812 165.068 27.5533 165.068 31.2198V53.0318" stroke="#5752A3" stroke-width="4" stroke-miterlimit="10" stroke-linecap="round" stroke-linejoin="round"/>
<path d="M72.9076 33.3366C77.7434 31.3334 80.0398 25.7893 78.0367 20.9535C76.0336 16.1176 70.4895 13.8212 65.6536 15.8243C60.8177 17.8274 58.5213 23.3715 60.5244 28.2074C62.5276 33.0433 68.0717 35.3397 72.9076 33.3366Z" stroke="#5752A3" stroke-width="4" stroke-miterlimit="10" stroke-linecap="round" stroke-linejoin="round"/>
<path d="M79.9551 24.5812H97.3986C101.065 24.5812 104.037 27.5533 104.037 31.2198V53.0318" stroke="#5752A3" stroke-width="4" stroke-miterlimit="10" stroke-linecap="round" stroke-linejoin="round"/>
<path d="M134.554 245.594V224.73" stroke="#5752A3" stroke-width="4" stroke-miterlimit="10" stroke-linecap="round" stroke-linejoin="round"/>
<path d="M138.187 265.374C143.023 263.371 145.319 257.827 143.316 252.991C141.313 248.155 135.769 245.859 130.933 247.862C126.097 249.865 123.801 255.409 125.804 260.245C127.807 265.081 133.351 267.377 138.187 265.374Z" stroke="#5752A3" stroke-width="4" stroke-miterlimit="10" stroke-linecap="round" stroke-linejoin="round"/>
<path d="M203.462 253.293C208.298 251.29 210.595 245.746 208.591 240.91C206.588 236.074 201.044 233.778 196.208 235.781C191.372 237.784 189.076 243.328 191.079 248.164C193.082 253 198.626 255.296 203.462 253.293Z" stroke="#5752A3" stroke-width="4" stroke-miterlimit="10" stroke-linecap="round" stroke-linejoin="round"/>
<path d="M189.151 244.535H171.707C168.04 244.535 165.068 241.563 165.068 237.897V216.085" stroke="#5752A3" stroke-width="4" stroke-miterlimit="10" stroke-linecap="round" stroke-linejoin="round"/>
<path d="M78.0416 248.166C80.0447 243.33 77.7483 237.786 72.9124 235.783C68.0766 233.78 62.5325 236.076 60.5293 240.912C58.5262 245.748 60.8226 251.292 65.6585 253.295C70.4943 255.298 76.0385 253.002 78.0416 248.166Z" stroke="#5752A3" stroke-width="4" stroke-miterlimit="10" stroke-linecap="round" stroke-linejoin="round"/>
<path d="M79.9551 244.535H97.3986C101.065 244.535 104.037 241.563 104.037 237.897V216.085" stroke="#5752A3" stroke-width="4" stroke-miterlimit="10" stroke-linecap="round" stroke-linejoin="round"/>
<path d="M23.5176 134.559H44.3815" stroke="#5752A3" stroke-width="4" stroke-miterlimit="10" stroke-linecap="round" stroke-linejoin="round"/>
<path d="M21.2555 138.187C23.2586 133.351 20.9622 127.807 16.1263 125.804C11.2904 123.801 5.74632 126.097 3.74319 130.933C1.74007 135.769 4.03646 141.313 8.87234 143.316C13.7082 145.32 19.2523 143.023 21.2555 138.187Z" stroke="#5752A3" stroke-width="4" stroke-miterlimit="10" stroke-linecap="round" stroke-linejoin="round"/>
<path d="M33.3336 72.912C35.3367 68.0761 33.0403 62.532 28.2044 60.5289C23.3685 58.5258 17.8244 60.8222 15.8213 65.6581C13.8182 70.4939 16.1146 76.038 20.9505 78.0412C25.7863 80.0443 31.3304 77.7479 33.3336 72.912Z" stroke="#5752A3" stroke-width="4" stroke-miterlimit="10" stroke-linecap="round" stroke-linejoin="round"/>
<path d="M24.5762 79.9606V97.4041C24.5762 101.071 27.5483 104.043 31.2148 104.043H53.0268" stroke="#5752A3" stroke-width="4" stroke-miterlimit="10" stroke-linecap="round" stroke-linejoin="round"/>
<path d="M28.2064 208.592C33.0423 206.589 35.3387 201.045 33.3355 196.209C31.3324 191.373 25.7883 189.077 20.9524 191.08C16.1165 193.083 13.8201 198.627 15.8233 203.463C17.8264 208.299 23.3705 210.596 28.2064 208.592Z" stroke="#5752A3" stroke-width="4" stroke-miterlimit="10" stroke-linecap="round" stroke-linejoin="round"/>
<path d="M24.5762 189.156V171.713C24.5762 168.046 27.5483 165.074 31.2148 165.074H53.0268" stroke="#5752A3" stroke-width="4" stroke-miterlimit="10" stroke-linecap="round" stroke-linejoin="round"/>
<path d="M245.59 134.559H224.726" stroke="#5752A3" stroke-width="4" stroke-miterlimit="10" stroke-linecap="round" stroke-linejoin="round"/>
<path d="M260.243 143.313C265.079 141.309 267.376 135.765 265.373 130.929C263.37 126.094 257.825 123.797 252.99 125.8C248.154 127.803 245.857 133.347 247.86 138.183C249.864 143.019 255.408 145.316 260.243 143.313Z" stroke="#5752A3" stroke-width="4" stroke-miterlimit="10" stroke-linecap="round" stroke-linejoin="round"/>
<path d="M248.163 78.0375C252.999 76.0344 255.296 70.4903 253.293 65.6544C251.289 60.8185 245.745 58.5221 240.909 60.5252C236.074 62.5284 233.777 68.0725 235.78 72.9083C237.783 77.7442 243.328 80.0406 248.163 78.0375Z" stroke="#5752A3" stroke-width="4" stroke-miterlimit="10" stroke-linecap="round" stroke-linejoin="round"/>
<path d="M244.53 79.9606V97.4041C244.53 101.071 241.558 104.043 237.891 104.043H216.079" stroke="#5752A3" stroke-width="4" stroke-miterlimit="10" stroke-linecap="round" stroke-linejoin="round"/>
<path d="M253.295 203.458C255.298 198.622 253.001 193.078 248.165 191.075C243.329 189.072 237.785 191.368 235.782 196.204C233.779 201.04 236.076 206.584 240.911 208.587C245.747 210.59 251.291 208.294 253.295 203.458Z" stroke="#5752A3" stroke-width="4" stroke-miterlimit="10" stroke-linecap="round" stroke-linejoin="round"/>
<path d="M244.53 189.156V171.713C244.53 168.046 241.558 165.074 237.891 165.074H216.079" stroke="#5752A3" stroke-width="4" stroke-miterlimit="10" stroke-linecap="round" stroke-linejoin="round"/>
<path d="M182.822 125.296V116.452C182.822 110.431 179.582 104.82 174.368 101.809L143.007 83.7034C137.792 80.6926 131.313 80.6926 126.099 83.7034L94.7375 101.809C89.5226 104.82 86.2832 110.431 86.2832 116.452V152.665C86.2832 158.686 89.5226 164.297 94.7375 167.308L126.099 185.414C131.313 188.424 137.792 188.424 143.006 185.414L174.367 167.308C179.582 164.297 182.821 158.686 182.821 152.665V143.821" stroke="#5752A3" stroke-width="4" stroke-miterlimit="10" stroke-linecap="round" stroke-linejoin="round"/>
<path d="M159.553 71.8636L152.27 67.6593C141.342 61.3493 127.765 61.3493 116.836 67.6593L85.4746 85.7651C74.5463 92.0751 67.7578 103.833 67.7578 116.452V152.665C67.7578 165.284 74.5469 177.042 85.4752 183.352L116.836 201.458C127.765 207.768 141.342 207.768 152.27 201.458L183.631 183.352C194.56 177.042 201.348 165.284 201.348 152.665V116.452C201.348 103.833 194.56 92.0751 183.631 85.7651L175.596 81.1267" stroke="#5752A3" stroke-width="4" stroke-miterlimit="10" stroke-linecap="round" stroke-linejoin="round"/>
</svg>
