<svg width="91" height="84" viewBox="0 0 91 84" fill="none" xmlns="http://www.w3.org/2000/svg">
<path d="M38.8853 76.4099H30.4426" stroke="#5752A3" stroke-width="3" stroke-miterlimit="10" stroke-linecap="round" stroke-linejoin="round"/>
<path d="M76.3813 2H84.0525C86.6813 2 88.8123 4.131 88.8123 6.75982V71.6506C88.8123 74.2794 86.6813 76.4104 84.0525 76.4104H80.5153" stroke="#5752A3" stroke-width="3" stroke-miterlimit="10" stroke-linecap="round" stroke-linejoin="round"/>
<path d="M2 59.0597V6.75982C2 4.131 4.13101 2 6.75984 2H69.7124" stroke="#5752A3" stroke-width="3" stroke-miterlimit="10" stroke-linecap="round" stroke-linejoin="round"/>
<path d="M10.8524 76.4109H6.75984C4.13101 76.4109 2 74.2799 2 71.651V65.145" stroke="#5752A3" stroke-width="3" stroke-miterlimit="10" stroke-linecap="round" stroke-linejoin="round"/>
<path d="M12.723 13.1794C14.2665 13.1794 15.5178 11.9281 15.5178 10.3846C15.5178 8.8411 14.2665 7.58984 12.723 7.58984C11.1795 7.58984 9.92822 8.8411 9.92822 10.3846C9.92822 11.9281 11.1795 13.1794 12.723 13.1794Z" stroke="#5752A3" stroke-width="3" stroke-miterlimit="10" stroke-linecap="round" stroke-linejoin="round"/>
<path d="M24.2711 13.1794C25.8146 13.1794 27.0659 11.9281 27.0659 10.3846C27.0659 8.8411 25.8146 7.58984 24.2711 7.58984C22.7276 7.58984 21.4763 8.8411 21.4763 10.3846C21.4763 11.9281 22.7276 13.1794 24.2711 13.1794Z" stroke="#5752A3" stroke-width="3" stroke-miterlimit="10" stroke-linecap="round" stroke-linejoin="round"/>
<path d="M35.8185 13.1794C37.362 13.1794 38.6132 11.9281 38.6132 10.3846C38.6132 8.8411 37.362 7.58984 35.8185 7.58984C34.2749 7.58984 33.0237 8.8411 33.0237 10.3846C33.0237 11.9281 34.2749 13.1794 35.8185 13.1794Z" stroke="#5752A3" stroke-width="3" stroke-miterlimit="10" stroke-linecap="round" stroke-linejoin="round"/>
<path d="M44.8338 32.7319H39.2686V46.0615H44.8338" stroke="#5FC2D5" stroke-width="3" stroke-miterlimit="10" stroke-linecap="round" stroke-linejoin="round"/>
<path d="M44.4235 39.4578H39.2686" stroke="#5FC2D5" stroke-width="3" stroke-miterlimit="10" stroke-linecap="round" stroke-linejoin="round"/>
<path d="M51.2166 38.8697C51.2166 38.8697 53.4023 38.8697 54.5635 38.8697C56.545 38.8697 58.1515 40.476 58.1515 42.4577C58.1515 44.4392 56.5452 46.0456 54.5635 46.0456C53.5808 46.0456 50.0154 46.0615 50.0154 46.0615V32.7319C50.0154 32.7319 52.8947 32.7319 53.8874 32.7319C55.5813 32.7319 56.9544 34.1052 56.9544 35.799C56.9544 37.493 55.5812 38.8661 53.8874 38.8661C53.0474 38.8661 50.2617 38.8797 50.2617 38.8797" stroke="#5FC2D5" stroke-width="3" stroke-miterlimit="10" stroke-linecap="round" stroke-linejoin="round"/>
<path d="M19.8403 32.7319L22.4374 45.8613C22.5329 46.1302 22.9139 46.1276 23.0058 45.8575L27.0608 32.7564" stroke="#5FC2D5" stroke-width="3" stroke-miterlimit="10" stroke-linecap="round" stroke-linejoin="round"/>
<path d="M27.061 32.7319L31.1058 45.8613C31.2013 46.1302 31.5823 46.1276 31.6741 45.8575L34.2815 32.7564" stroke="#5FC2D5" stroke-width="3" stroke-miterlimit="10" stroke-linecap="round" stroke-linejoin="round"/>
<path d="M64.3479 35.2145C64.6496 33.6782 66.0036 32.5193 67.6284 32.5193C69.4749 32.5193 70.9717 34.0161 70.9717 35.8625C70.9717 37.709 69.4749 39.2057 67.6284 39.2057" stroke="#5FC2D5" stroke-width="3" stroke-miterlimit="10" stroke-linecap="round" stroke-linejoin="round"/>
<path d="M67.6286 39.2061C69.4751 39.2061 70.9719 40.7028 70.9719 42.5493C70.9719 44.3957 69.4751 45.8925 67.6286 45.8925C65.9404 45.8925 64.5446 44.6413 64.3177 43.0157C64.2964 42.8633 64.2854 42.7075 64.2854 42.5493" stroke="#5FC2D5" stroke-width="3" stroke-miterlimit="10" stroke-linecap="round" stroke-linejoin="round"/>
<path d="M28.3196 81.9999H12.599C11.6343 81.9999 10.8523 81.2179 10.8523 80.2532V61.0392C10.8523 60.0745 11.6343 59.2925 12.599 59.2925H28.3196C29.2843 59.2925 30.0663 60.0745 30.0663 61.0392V80.2532C30.0663 81.2179 29.2843 81.9999 28.3196 81.9999Z" stroke="#5752A3" stroke-width="3" stroke-miterlimit="10" stroke-linecap="round" stroke-linejoin="round"/>
<path d="M78.213 81.9999H40.9589C39.9942 81.9999 39.2122 81.2179 39.2122 80.2532V61.0392C39.2122 60.0745 39.9942 59.2925 40.9589 59.2925H78.213C79.1777 59.2925 79.9597 60.0745 79.9597 61.0392V80.2532C79.9597 81.2179 79.1777 81.9999 78.213 81.9999Z" stroke="#5752A3" stroke-width="3" stroke-miterlimit="10" stroke-linecap="round" stroke-linejoin="round"/>
<path d="M16.0925 65.4067H21.692" stroke="#5752A3" stroke-width="3" stroke-miterlimit="10" stroke-linecap="round" stroke-linejoin="round"/>
<path d="M16.0925 70.646H24.4768" stroke="#5752A3" stroke-width="3" stroke-miterlimit="10" stroke-linecap="round" stroke-linejoin="round"/>
<path d="M16.0925 75.8865H24.4768" stroke="#5752A3" stroke-width="3" stroke-miterlimit="10" stroke-linecap="round" stroke-linejoin="round"/>
<path d="M52.071 66.1201L46.9468 70.3542L52.071 73.994" stroke="#5752A3" stroke-width="3" stroke-miterlimit="10" stroke-linecap="round" stroke-linejoin="round"/>
<path d="M67.1501 66.1201L72.2744 70.3542L67.1501 73.994" stroke="#5752A3" stroke-width="3" stroke-miterlimit="10" stroke-linecap="round" stroke-linejoin="round"/>
<path d="M56.363 76.8625L62.5763 64.2861" stroke="#5752A3" stroke-width="3" stroke-miterlimit="10" stroke-linecap="round" stroke-linejoin="round"/>
<path d="M2.55347 18.7688H88.1433" stroke="#5752A3" stroke-width="3" stroke-miterlimit="10" stroke-linecap="round" stroke-linejoin="round"/>
</svg>
