<svg width="82" height="82" viewBox="0 0 82 82" fill="none" xmlns="http://www.w3.org/2000/svg">
<path d="M42.2289 46.4437C41.7021 45.0536 38.2699 35.9975 37.7448 34.6121L33.2607 46.4437" stroke="#5FC2D5" stroke-width="3" stroke-miterlimit="10" stroke-linecap="round" stroke-linejoin="round"/>
<path d="M35.0952 43.5168H40.4399" stroke="#5FC2D5" stroke-width="3" stroke-miterlimit="10" stroke-linecap="round" stroke-linejoin="round"/>
<path d="M47.1621 34.6118V46.4435" stroke="#5FC2D5" stroke-width="3" stroke-miterlimit="10" stroke-linecap="round" stroke-linejoin="round"/>
<path d="M40.999 7.96387V14.1714" stroke="#5752A3" stroke-width="3" stroke-miterlimit="10" stroke-linecap="round" stroke-linejoin="round"/>
<path d="M43.6049 5.76352C44.2009 4.32472 43.5177 2.6752 42.0789 2.07921C40.6401 1.48323 38.9905 2.16647 38.3946 3.60527C37.7986 5.04407 38.4818 6.69359 39.9206 7.28957C41.3594 7.88556 43.0089 7.20232 43.6049 5.76352Z" stroke="#5752A3" stroke-width="3" stroke-miterlimit="10" stroke-linecap="round" stroke-linejoin="round"/>
<path d="M63.0258 9.35702C63.6218 7.91822 62.9386 6.26871 61.4998 5.67272C60.061 5.07674 58.4114 5.75998 57.8155 7.19878C57.2195 8.63758 57.9027 10.2871 59.3415 10.8831C60.7803 11.4791 62.4298 10.7958 63.0258 9.35702Z" stroke="#5752A3" stroke-width="3" stroke-miterlimit="10" stroke-linecap="round" stroke-linejoin="round"/>
<path d="M57.2427 8.27881H52.0528C50.9619 8.27881 50.0776 9.16308 50.0776 10.254V16.7436" stroke="#5752A3" stroke-width="3" stroke-miterlimit="10" stroke-linecap="round" stroke-linejoin="round"/>
<path d="M22.6575 10.8839C24.0963 10.2879 24.7795 8.63842 24.1835 7.19962C23.5875 5.76082 21.938 5.07758 20.4992 5.67356C19.0604 6.26955 18.3772 7.91906 18.9732 9.35786C19.5691 10.7967 21.2187 11.4799 22.6575 10.8839Z" stroke="#5752A3" stroke-width="3" stroke-miterlimit="10" stroke-linecap="round" stroke-linejoin="round"/>
<path d="M24.7544 8.27881H29.9443C31.0352 8.27881 31.9195 9.16308 31.9195 10.254V16.7436" stroke="#5752A3" stroke-width="3" stroke-miterlimit="10" stroke-linecap="round" stroke-linejoin="round"/>
<path d="M40.999 74.0357V67.8281" stroke="#5752A3" stroke-width="3" stroke-miterlimit="10" stroke-linecap="round" stroke-linejoin="round"/>
<path d="M42.0798 79.921C43.5186 79.325 44.2019 77.6755 43.6059 76.2367C43.0099 74.7979 41.3604 74.1147 39.9216 74.7107C38.4828 75.3067 37.7995 76.9562 38.3955 78.395C38.9915 79.8338 40.641 80.517 42.0798 79.921Z" stroke="#5752A3" stroke-width="3" stroke-miterlimit="10" stroke-linecap="round" stroke-linejoin="round"/>
<path d="M61.5012 76.3265C62.94 75.7306 63.6233 74.081 63.0273 72.6422C62.4313 71.2034 60.7818 70.5202 59.343 71.1162C57.9042 71.7122 57.2209 73.3617 57.8169 74.8005C58.4129 76.2393 60.0624 76.9225 61.5012 76.3265Z" stroke="#5752A3" stroke-width="3" stroke-miterlimit="10" stroke-linecap="round" stroke-linejoin="round"/>
<path d="M57.2427 73.7214H52.0528C50.9619 73.7214 50.0776 72.8371 50.0776 71.7462V65.2566" stroke="#5752A3" stroke-width="3" stroke-miterlimit="10" stroke-linecap="round" stroke-linejoin="round"/>
<path d="M24.185 74.8014C24.781 73.3626 24.0977 71.713 22.6589 71.1171C21.2201 70.5211 19.5706 71.2043 18.9746 72.6431C18.3786 74.0819 19.0619 75.7314 20.5007 76.3274C21.9395 76.9234 23.589 76.2402 24.185 74.8014Z" stroke="#5752A3" stroke-width="3" stroke-miterlimit="10" stroke-linecap="round" stroke-linejoin="round"/>
<path d="M24.7544 73.7214H29.9443C31.0352 73.7214 31.9195 72.8371 31.9195 71.7462V65.2566" stroke="#5752A3" stroke-width="3" stroke-miterlimit="10" stroke-linecap="round" stroke-linejoin="round"/>
<path d="M7.9624 41.0005H14.17" stroke="#5752A3" stroke-width="3" stroke-miterlimit="10" stroke-linecap="round" stroke-linejoin="round"/>
<path d="M7.28948 42.0797C7.88546 40.6409 7.20222 38.9914 5.76342 38.3954C4.32462 37.7994 2.67511 38.4826 2.07912 39.9214C1.48314 41.3602 2.16638 43.0098 3.60518 43.6057C5.04398 44.2017 6.6935 43.5185 7.28948 42.0797Z" stroke="#5752A3" stroke-width="3" stroke-miterlimit="10" stroke-linecap="round" stroke-linejoin="round"/>
<path d="M10.8832 22.6588C11.4792 21.22 10.796 19.5705 9.35717 18.9745C7.91837 18.3785 6.26886 19.0617 5.67287 20.5005C5.07689 21.9393 5.76013 23.5889 7.19893 24.1848C8.63773 24.7808 10.2872 24.0976 10.8832 22.6588Z" stroke="#5752A3" stroke-width="3" stroke-miterlimit="10" stroke-linecap="round" stroke-linejoin="round"/>
<path d="M8.27734 24.7561V29.946C8.27734 31.0369 9.16162 31.9212 10.2525 31.9212H16.7421" stroke="#5752A3" stroke-width="3" stroke-miterlimit="10" stroke-linecap="round" stroke-linejoin="round"/>
<path d="M9.35766 63.0272C10.7965 62.4312 11.4797 60.7817 10.8837 59.3429C10.2877 57.9041 8.63822 57.2209 7.19942 57.8169C5.76062 58.4129 5.07738 60.0624 5.67336 61.5012C6.26934 62.94 7.91886 63.6232 9.35766 63.0272Z" stroke="#5752A3" stroke-width="3" stroke-miterlimit="10" stroke-linecap="round" stroke-linejoin="round"/>
<path d="M8.27734 57.2444V52.0545C8.27734 50.9636 9.16162 50.0793 10.2525 50.0793H16.7421" stroke="#5752A3" stroke-width="3" stroke-miterlimit="10" stroke-linecap="round" stroke-linejoin="round"/>
<path d="M74.0347 41.0005H67.8271" stroke="#5752A3" stroke-width="3" stroke-miterlimit="10" stroke-linecap="round" stroke-linejoin="round"/>
<path d="M78.3953 43.6049C79.8341 43.0089 80.5173 41.3594 79.9213 39.9206C79.3253 38.4818 77.6758 37.7985 76.237 38.3945C74.7982 38.9905 74.115 40.64 74.711 42.0788C75.3069 43.5176 76.9565 44.2009 78.3953 43.6049Z" stroke="#5752A3" stroke-width="3" stroke-miterlimit="10" stroke-linecap="round" stroke-linejoin="round"/>
<path d="M74.801 24.1832C76.2398 23.5873 76.9231 21.9377 76.3271 20.4989C75.7311 19.0601 74.0816 18.3769 72.6428 18.9729C71.204 19.5689 70.5207 21.2184 71.1167 22.6572C71.7127 24.096 73.3622 24.7792 74.801 24.1832Z" stroke="#5752A3" stroke-width="3" stroke-miterlimit="10" stroke-linecap="round" stroke-linejoin="round"/>
<path d="M73.7197 24.7561V29.946C73.7197 31.0369 72.8354 31.9212 71.7445 31.9212H65.2549" stroke="#5752A3" stroke-width="3" stroke-miterlimit="10" stroke-linecap="round" stroke-linejoin="round"/>
<path d="M76.3276 61.4996C76.9235 60.0608 76.2403 58.4113 74.8015 57.8153C73.3627 57.2193 71.7132 57.9026 71.1172 59.3414C70.5212 60.7802 71.2045 62.4297 72.6433 63.0257C74.0821 63.6216 75.7316 62.9384 76.3276 61.4996Z" stroke="#5752A3" stroke-width="3" stroke-miterlimit="10" stroke-linecap="round" stroke-linejoin="round"/>
<path d="M73.7197 57.2444V52.0545C73.7197 50.9636 72.8354 50.0793 71.7445 50.0793H65.2549" stroke="#5752A3" stroke-width="3" stroke-miterlimit="10" stroke-linecap="round" stroke-linejoin="round"/>
<path d="M55.36 38.2441V35.613C55.36 33.8215 54.3962 32.1521 52.8446 31.2563L43.5139 25.8693C41.9625 24.9736 40.0349 24.9736 38.4833 25.8693L29.1526 31.2563C27.601 32.1521 26.6372 33.8215 26.6372 35.613V46.3871C26.6372 48.1787 27.601 49.848 29.1526 50.7438L38.4833 56.1308C40.0349 57.0266 41.9625 57.0266 43.5137 56.1308L52.8445 50.7438C54.396 49.848 55.3599 48.1787 55.3599 46.3871V43.756" stroke="#5752A3" stroke-width="3" stroke-miterlimit="10" stroke-linecap="round" stroke-linejoin="round"/>
<path d="M48.4364 22.3469L46.2697 21.096C43.0183 19.2186 38.9786 19.2186 35.727 21.096L26.3962 26.483C23.1448 28.3604 21.125 31.8588 21.125 35.6133V46.3874C21.125 50.1418 23.1449 53.6402 26.3964 55.5176L35.727 60.9046C38.9786 62.782 43.0183 62.782 46.2696 60.9046L55.6005 55.5176C58.8519 53.6402 60.8717 50.1418 60.8717 46.3874V35.6133C60.8717 31.8588 58.8519 28.3604 55.6003 26.483L53.2098 25.103" stroke="#5752A3" stroke-width="3" stroke-miterlimit="10" stroke-linecap="round" stroke-linejoin="round"/>
</svg>
