<svg width="50" height="51" viewBox="0 0 50 51" fill="none" xmlns="http://www.w3.org/2000/svg">
<path d="M24.9978 7.5874C22.4898 7.5874 20.4501 9.62054 20.4501 12.1205C20.4501 14.6205 22.4898 16.6535 24.9978 16.6535C27.5058 16.6535 29.5454 14.6204 29.5454 12.1205C29.5454 9.62065 27.5057 7.5874 24.9978 7.5874ZM24.9978 14.3881C23.7438 14.3881 22.7229 13.3705 22.7229 12.1205C22.7229 10.8705 23.7438 9.85289 24.9978 9.85289C26.2518 9.85289 27.2727 10.8705 27.2727 12.1205C27.2727 13.3705 26.2518 14.3881 24.9978 14.3881Z" fill="#5FC2D5"/>
<path d="M48.8636 21.1822C49.4917 21.1822 50 20.6786 50 20.0526V15.5223C50 15.123 49.7892 14.7525 49.444 14.5489L27.2149 1.39034C27.2049 1.38365 27.1949 1.37812 27.185 1.3726C25.8034 0.609404 24.2453 0.586254 22.7838 1.38811L0.556001 14.5489C0.210831 14.7524 0 15.123 0 15.5223V20.0526C0 20.6786 0.508273 21.1822 1.1364 21.1822H4.54548V41.5719C2.03853 41.5719 0 43.6037 0 46.1022V49.5001C0 50.1261 0.508273 50.6327 1.1364 50.6327H48.8636C49.4917 50.6327 50 50.1262 50 49.5001V46.1022C50 43.6037 47.9615 41.5719 45.4545 41.5719V21.1822H48.8636ZM47.7272 46.1018V48.3672H2.27269V46.1018C2.27269 44.853 3.29254 43.8364 4.54538 43.8364H5.68177H44.3181H45.4545C46.7074 43.8363 47.7272 44.8529 47.7272 46.1018ZM6.81817 41.571V21.1822H11.3637V41.571H6.81817ZM13.6363 41.571V21.1822H20.4545V41.571H13.6363ZM22.7272 41.571V21.1822H27.2727V41.571H22.7272ZM29.5454 41.571V21.1822H36.3635V41.571H29.5454ZM38.6363 41.571V21.1822H43.1818V41.571H38.6363ZM2.27269 18.9168V16.1636L23.9113 3.34978C24.6194 2.96154 25.3717 2.96261 26.0709 3.34203L47.7272 16.1636V18.9168H2.27269Z" fill="#5FC2D5"/>
</svg>
