<svg width="56" height="56" viewBox="0 0 56 56" fill="none" xmlns="http://www.w3.org/2000/svg">
<path fill-rule="evenodd" clip-rule="evenodd" d="M8.75081 40.8888H5.70002C2.98841 40.8888 0.768616 38.669 0.768616 35.9574V8.08424C0.768616 5.37263 2.98841 3.15283 5.70002 3.15283H50.3C53.0116 3.15283 55.2314 5.37263 55.2314 8.08424V35.9574C55.2314 38.669 53.0116 40.8888 50.3 40.8888H37.1631V45.5709H42.4517C44.8823 45.5709 46.7857 47.2665 46.7857 49.2072V51.9688C46.7857 52.4539 46.3924 52.8472 45.9073 52.8472H10.0963C9.61113 52.8472 9.21792 52.4539 9.21792 51.9688V49.2072C9.21792 47.2665 11.1213 45.5709 13.5519 45.5709H18.8405V44.6688C18.714 44.6735 18.587 44.676 18.4595 44.676C16.2758 44.676 14.2563 43.9741 12.614 42.7836L10.8814 44.4649C11.0846 45.0693 10.9402 45.7659 10.4527 46.2361L5.4635 51.0804C5.4624 51.0815 5.46131 51.0826 5.46021 51.0837C4.78371 51.7335 3.7028 51.7145 3.05265 51.0439L3.05188 51.0432L1.25055 49.1875L1.24978 49.1868C0.593698 48.5093 0.613243 47.4267 1.28458 46.7766L6.27726 41.9313L6.27803 41.9305C6.76259 41.4613 7.46336 41.3392 8.06037 41.5592L8.75081 40.8888ZM35.4063 40.8888H26.2812C24.8779 42.6619 22.8844 43.9466 20.5973 44.4463V45.5709H35.4063V40.8888ZM27.3954 39.132H50.3C52.0455 39.132 53.4745 37.703 53.4745 35.9574V8.08424C53.4745 6.33868 52.0455 4.9097 50.3 4.9097H5.70002C3.95447 4.9097 2.52548 6.33868 2.52548 8.08424V35.9574C2.52548 37.703 3.95447 39.132 5.70002 39.132H9.5235C8.86204 37.7986 8.49014 36.2962 8.49014 34.7068C8.49014 34.4907 8.49706 34.2762 8.51056 34.0635H5.03461C4.54949 34.0635 4.15618 33.6703 4.15618 33.1851V7.98399C4.15618 7.18758 4.80336 6.54402 5.59977 6.54402H50.4037C51.1926 6.54402 51.8438 7.18604 51.8438 7.98399V33.1851C51.8438 33.6703 51.4505 34.0635 50.9654 34.0635H28.4082C28.4219 34.2762 28.4287 34.4907 28.4287 34.7068C28.4287 36.2962 28.0569 37.7986 27.3954 39.132ZM11.2831 41.6271C11.1588 41.4982 11.038 41.366 10.9208 41.2306L9.40294 42.7043C9.52592 42.831 9.65362 42.9626 9.77649 43.0892L11.2831 41.6271ZM8.7809 32.3067C8.90059 31.8221 9.05585 31.3515 9.2435 30.8978H9.1964C8.49717 30.8978 7.93091 30.3282 7.93091 29.6337V11.2599C7.93091 10.5615 8.49804 9.99439 9.1964 9.99439H19.6808H19.6811C20.0141 9.9945 20.3043 10.1101 20.5417 10.3334L24.0358 13.2865C24.0376 13.2881 24.0395 13.2896 24.0412 13.2913C24.0435 13.2931 24.0457 13.295 24.0478 13.297C24.0802 13.3252 24.1118 13.3568 24.1371 13.3859C24.3497 13.6214 24.4605 13.9051 24.4605 14.2296V14.2299V26.745C25.5676 27.5807 26.4949 28.6422 27.174 29.8609V25.1142C27.174 24.6291 27.5673 24.2357 28.0525 24.2357H30.9334C31.4185 24.2357 31.8118 24.6291 31.8118 25.1142V30.6382C31.8118 31.1234 31.4185 31.5166 30.9334 31.5166H28.0525C28.0015 31.5166 27.9517 31.5123 27.9033 31.5041C27.9923 31.7669 28.0707 32.0346 28.138 32.3067H50.0869V8.30088H5.91304V32.3067H8.7809ZM10.187 29.1409C11.9777 26.4844 15.0144 24.7374 18.4595 24.7374C19.9773 24.7374 21.4159 25.0766 22.7036 25.6832V15.1083H19.9979C19.308 15.1083 18.8024 14.5502 18.8024 13.9573V11.7512H9.68777V29.1409H10.187ZM21.3909 13.3514L20.5592 12.6485V13.3514H21.3909ZM10.9748 51.0904H45.0288V49.2072C45.0288 48.113 43.8221 47.3277 42.4517 47.3277H13.5519C12.1814 47.3277 10.9748 48.113 10.9748 49.2072V51.0904ZM18.4595 26.4943C13.9235 26.4943 10.247 30.1708 10.247 34.7068C10.247 39.2426 13.9235 42.9191 18.4595 42.9191C22.9953 42.9191 26.6718 39.2426 26.6718 34.7068C26.6718 30.1708 22.9953 26.4943 18.4595 26.4943ZM18.4595 41.3532C14.8012 41.3532 11.813 38.3694 11.813 34.7068C11.813 31.0485 14.8012 28.0602 18.4595 28.0602C22.1221 28.0602 25.1059 31.0485 25.1059 34.7068C25.1059 38.3694 22.1221 41.3532 18.4595 41.3532ZM18.4595 39.5963C21.1539 39.5963 23.349 37.4012 23.349 34.7068C23.349 32.0155 21.1539 29.8171 18.4595 29.8171C15.7682 29.8171 13.5699 32.0155 13.5699 34.7068C13.5699 37.4012 15.7682 39.5963 18.4595 39.5963ZM15.1287 35.4906C14.7859 35.1478 14.7859 34.5911 15.1287 34.2483C15.4716 33.9055 16.0282 33.9055 16.371 34.2483L17.3609 35.2383L20.5826 32.3155C20.9418 31.9899 21.4977 32.0169 21.8235 32.3761C22.1492 32.7351 22.1222 33.291 21.7631 33.6168L17.9216 37.1017C17.5745 37.4165 17.0416 37.4035 16.7103 37.0721L15.1287 35.4906ZM2.54645 48.0002L4.2774 49.7834L9.19299 45.0103L7.46325 43.2285L2.54645 48.0002ZM28.9309 25.9926V29.7598H30.055V25.9926H28.9309ZM38.7465 21.3398H41.6257C42.1108 21.3398 42.5041 21.7331 42.5041 22.2182V30.6382C42.5041 31.1234 42.1108 31.5166 41.6257 31.5166H38.7465C38.2614 31.5166 37.8681 31.1234 37.8681 30.6382V22.2182C37.8681 21.7331 38.2614 21.3398 38.7465 21.3398ZM39.6249 23.0966V29.7598H40.7472V23.0966H39.6249ZM31.7307 18.2776C31.8172 18.5232 31.8643 18.7872 31.8643 19.0619C31.8643 20.3683 30.7994 21.4313 29.4929 21.4313C28.1864 21.4313 27.1216 20.3683 27.1216 19.0619C27.1216 17.7557 28.1868 16.6905 29.4929 16.6905C29.8828 16.6905 30.2512 16.7853 30.5762 16.9532L32.6031 15.1878C32.5167 14.9425 32.4696 14.6791 32.4696 14.4051C32.4696 13.0985 33.5355 12.0337 34.839 12.0337C36.1452 12.0337 37.2105 13.0989 37.2105 14.4051C37.2105 14.4678 37.2079 14.5299 37.2031 14.5915L38.6018 15.2813C39.0224 14.9023 39.5786 14.6712 40.187 14.6712C40.5014 14.6712 40.8016 14.7328 41.0763 14.8445L43.3764 12.4437C43.2398 12.1443 43.1637 11.812 43.1637 11.4622C43.1637 10.1558 44.2267 9.09092 45.5332 9.09092C46.8394 9.09092 47.9046 10.156 47.9046 11.4622C47.9046 12.7685 46.8394 13.8337 45.5332 13.8337C45.2189 13.8337 44.9187 13.772 44.644 13.6602L42.3438 16.0612C42.4804 16.3604 42.5566 16.6929 42.5566 17.0425C42.5566 18.3464 41.4938 19.4121 40.187 19.4121C38.8806 19.4121 37.8157 18.3461 37.8157 17.0425C37.8157 16.9798 37.8181 16.9176 37.8229 16.856L36.4229 16.1656C36.0026 16.5438 35.447 16.7746 34.839 16.7746C34.4501 16.7746 34.0822 16.6797 33.7577 16.512L31.7307 18.2776ZM29.9414 18.6424C29.8291 18.5224 29.6696 18.4473 29.4929 18.4473C29.1545 18.4473 28.8784 18.7234 28.8784 19.0619C28.8784 19.4 29.1548 19.6745 29.4929 19.6745C29.8311 19.6745 30.1075 19.4 30.1075 19.0619C30.1075 18.9157 30.056 18.7812 29.9703 18.6756C29.9653 18.6701 29.9603 18.6646 29.9555 18.6589C29.9507 18.6535 29.946 18.6479 29.9414 18.6424ZM35.3975 14.6602C35.4335 14.5824 35.4536 14.496 35.4536 14.4051C35.4536 14.0666 35.1775 13.7905 34.839 13.7905C34.5016 13.7905 34.2264 14.0669 34.2264 14.4051C34.2264 14.5492 34.2767 14.682 34.3607 14.7869C34.3666 14.7933 34.3725 14.7998 34.3783 14.8064C34.3839 14.8129 34.3894 14.8194 34.3949 14.826C34.5066 14.9439 34.6646 15.0177 34.839 15.0177C35.0744 15.0177 35.2798 14.8844 35.383 14.6896C35.3851 14.6852 35.3872 14.6808 35.3894 14.6764C35.392 14.6709 35.3947 14.6656 35.3975 14.6602ZM40.596 16.5855C40.4876 16.4876 40.3443 16.428 40.187 16.428C39.9506 16.428 39.7446 16.5626 39.642 16.7593C39.6401 16.7631 39.6382 16.767 39.6364 16.7709C39.6342 16.7753 39.632 16.7796 39.6298 16.7839C39.5931 16.8626 39.5726 16.9502 39.5726 17.0425C39.5726 17.3799 39.8488 17.6552 40.187 17.6552C40.5249 17.6552 40.7997 17.3796 40.7997 17.0425C40.7997 16.8756 40.7327 16.7236 40.6243 16.6126C40.6198 16.6085 40.6154 16.6044 40.611 16.6001C40.6059 16.5953 40.601 16.5904 40.596 16.5855ZM45.1241 11.9193C45.2326 12.0171 45.376 12.0768 45.5332 12.0768C45.8717 12.0768 46.1477 11.8008 46.1477 11.4622C46.1477 11.1237 45.8717 10.8478 45.5332 10.8478C45.195 10.8478 44.9206 11.124 44.9206 11.4622C44.9206 11.6293 44.9874 11.7811 45.0959 11.8921C45.1004 11.8963 45.1049 11.9005 45.1093 11.9048C45.1143 11.9095 45.1193 11.9144 45.1241 11.9193ZM33.4005 19.3767H36.2795C36.7647 19.3767 37.158 19.7699 37.158 20.2551V30.6382C37.158 31.1234 36.7647 31.5166 36.2795 31.5166H33.4005C32.9153 31.5166 32.522 31.1234 32.522 30.6382V20.2551C32.522 19.7699 32.9153 19.3767 33.4005 19.3767ZM34.2789 21.1336V29.7598H35.4011V21.1336H34.2789ZM44.0945 15.5983H46.9737C47.4588 15.5983 47.8521 15.9917 47.8521 16.4768V30.6382C47.8521 31.1234 47.4588 31.5166 46.9737 31.5166H44.0945C43.6094 31.5166 43.2161 31.1234 43.2161 30.6382V16.4768C43.2161 15.9917 43.6094 15.5983 44.0945 15.5983ZM44.9729 17.3552V29.7598H46.0952V17.3552H44.9729ZM12.0975 24.2108C11.6127 24.2108 11.2191 23.8173 11.2191 23.3324C11.2191 22.8476 11.6127 22.4539 12.0975 22.4539H20.0737C20.5585 22.4539 20.9521 22.8476 20.9521 23.3324C20.9521 23.8173 20.5585 24.2108 20.0737 24.2108H12.0975ZM12.0975 17.8049C11.6127 17.8049 11.2191 17.4113 11.2191 16.9264C11.2191 16.4416 11.6127 16.048 12.0975 16.048H20.0737C20.5585 16.048 20.9521 16.4416 20.9521 16.9264C20.9521 17.4113 20.5585 17.8049 20.0737 17.8049H12.0975ZM12.0975 21.0078C11.6127 21.0078 11.2191 20.6143 11.2191 20.1294C11.2191 19.6446 11.6127 19.251 12.0975 19.251H20.0737C20.5585 19.251 20.9521 19.6446 20.9521 20.1294C20.9521 20.6143 20.5585 21.0078 20.0737 21.0078H12.0975Z" fill="#5FC2D5"/>
</svg>
