<svg width="56" height="56" viewBox="0 0 56 56" fill="none" xmlns="http://www.w3.org/2000/svg">
<g clip-path="url(#clip0_730_196)">
<path d="M52.2679 34.5258C50.5712 34.5321 49.0922 35.6822 48.668 37.3251H38.2714V33.5927H44.0417C44.4961 34.8781 45.8105 35.6491 47.1543 35.4186C48.498 35.1881 49.4802 34.023 49.4802 32.6596C49.4802 31.2963 48.498 30.1312 47.1543 29.9007C45.8105 29.6702 44.4961 30.4412 44.0417 31.7266H38.2714V30.9306C38.2711 30.4062 38.4186 29.8924 38.6968 29.448L39.6056 27.9942H48.5354C50.0814 27.9942 51.3348 26.7408 51.3348 25.1949V24.0901C52.6202 23.6357 53.3912 22.3213 53.1607 20.9775C52.9302 19.6337 51.765 18.6516 50.4017 18.6516C49.0383 18.6516 47.8732 19.6337 47.6427 20.9775C47.4122 22.3213 48.1832 23.6357 49.4686 24.0901V25.1949C49.4686 25.7102 49.0508 26.1279 48.5356 26.1279H40.7722L42.2278 23.7952C42.6912 23.0537 42.9369 22.1969 42.9369 21.3225V13.9975H44.2796C44.7661 14.0154 45.2214 14.2414 45.53 14.618C46.8386 16.0844 48.7388 16.8823 50.702 16.7898C52.6651 16.6973 54.4818 15.7242 55.6467 14.1413C56.0553 13.5867 56.1143 12.8483 55.7988 12.2359C55.4811 11.5994 54.8306 11.1974 54.1192 11.1983H52.0263L51.3265 10.2652L52.0253 9.33214H54.1192C54.8303 9.33291 55.4807 8.93149 55.7988 8.29541C56.1139 7.68273 56.0554 6.94441 55.6477 6.38903C54.4826 4.80611 52.6657 3.83301 50.7024 3.74051C48.7391 3.648 46.8388 4.44591 45.53 5.91227C45.2215 6.28887 44.7661 6.51478 44.2796 6.53282H42.8892C42.7207 4.94421 41.66 3.59114 40.1574 3.04844C38.6548 2.50564 36.9743 2.86845 35.8294 3.9826C35.2328 2.91875 34.1975 2.17212 32.9998 1.94173C31.8021 1.71133 30.5636 2.02068 29.6149 2.78732C29.4125 2.20526 29.0806 1.67656 28.6444 1.24113C27.8626 0.443546 26.7912 -0.00368871 25.6743 0.00101327C23.9035 0.00615264 22.327 1.12369 21.7357 2.79289C21.0032 2.19585 20.0876 1.86901 19.1426 1.86726C16.8247 1.86989 14.9463 3.74827 14.9436 6.06624V6.53282H11.7254C11.2401 6.51533 10.7862 6.28876 10.4807 5.9114C9.17192 4.44537 7.27155 3.648 5.30853 3.74105C3.34551 3.83411 1.52913 4.80775 0.364895 6.391C-0.041443 6.94561 -0.0992883 7.6824 0.215635 8.29355C0.534713 8.93105 1.18698 9.33323 1.89993 9.33214H3.99099L4.69082 10.2652L3.99099 11.1983H1.89982C1.18862 11.1989 0.53865 11.6008 0.220227 12.2369C-0.0945863 12.8481 -0.0368504 13.5848 0.369488 14.1394C1.53416 15.7233 3.35131 16.6971 5.31509 16.7897C7.27888 16.8822 9.17957 16.0836 10.488 14.6163C10.7102 14.3567 11.0014 14.1651 11.3278 14.0639C11.2547 14.3472 11.2155 14.6382 11.2112 14.9307V20.8494C11.2077 22.0875 11.6995 23.2756 12.5772 24.1488L14.5573 26.1279H7.47888C6.96352 26.1279 6.54581 25.7101 6.54581 25.1949V24.0901C7.8312 23.6357 8.60221 22.3213 8.37171 20.9775C8.1412 19.6337 6.97609 18.6516 5.61274 18.6516C4.24938 18.6516 3.08428 19.6337 2.85377 20.9775C2.62327 22.3213 3.39428 23.6357 4.67967 24.0901V25.1949C4.67967 26.7408 5.93302 27.9942 7.47899 27.9942H16.4238L17.857 29.4265C18.3834 29.9507 18.6783 30.6637 18.6763 31.4066V31.7267H11.9729C11.5184 30.4413 10.2041 29.6703 8.86027 29.9008C7.51649 30.1313 6.53433 31.2964 6.53433 32.6597C6.53433 34.0231 7.51649 35.1882 8.86027 35.4187C10.2041 35.6492 11.5184 34.8782 11.9729 33.5928H18.6763V37.3252H7.34635C6.87648 35.5053 5.12669 34.3188 3.26219 34.5556C1.39769 34.7925 0 36.3787 0 38.2582C0 40.1376 1.39758 41.724 3.26208 41.9608C5.12658 42.1977 6.87637 41.0111 7.34624 39.1912H18.676V42.9236H11.9727C11.5182 41.6382 10.2038 40.8672 8.86005 41.0977C7.51627 41.3282 6.53411 42.4933 6.53411 43.8567C6.53411 45.22 7.51627 46.3851 8.86005 46.6157C10.2038 46.8462 11.5182 46.0751 11.9727 44.7898H18.676V46.656H14.9436C13.3977 46.656 12.1443 47.9093 12.1443 49.4553V50.5601C10.8589 51.0145 10.0879 52.3289 10.3184 53.6727C10.5489 55.0164 11.714 55.9986 13.0774 55.9986C14.4408 55.9986 15.6059 55.0164 15.8364 53.6727C16.0669 52.3289 15.2959 51.0145 14.0105 50.5601V49.4553C14.0105 48.94 14.4283 48.5222 14.9435 48.5222H18.6759V53.1878C18.6759 54.7338 19.9293 55.9871 21.4752 55.9871H35.4718C37.0178 55.9871 38.2711 54.7338 38.2711 53.1878V48.5222H41.0705C41.5858 48.5222 42.0035 48.94 42.0035 49.4553V50.5601C40.7181 51.0145 39.9471 52.3289 40.1776 53.6727C40.4081 55.0164 41.5732 55.9986 42.9366 55.9986C44.2999 55.9986 45.4651 55.0164 45.6956 53.6727C45.9261 52.3289 45.155 51.0145 43.8697 50.5601V49.4553C43.8697 47.9093 42.6163 46.656 41.0703 46.656H38.271V44.79H44.0413C44.4958 46.0754 45.8102 46.8464 47.1539 46.6159C48.4977 46.3854 49.4799 45.2203 49.4799 43.8569C49.4799 42.4935 48.4977 41.3284 47.1539 41.0979C45.8102 40.8674 44.4958 41.6384 44.0413 42.9238H38.271V39.1913H48.6676C49.1559 41.0646 50.9973 42.252 52.9051 41.9236C54.8129 41.5953 56.1514 39.8605 55.9852 37.9318C55.8194 36.003 54.2037 34.5229 52.2679 34.5258ZM46.6693 31.7265C47.1847 31.7265 47.6024 32.1442 47.6024 32.6595C47.6024 33.1749 47.1847 33.5926 46.6693 33.5926C46.1539 33.5926 45.7362 33.1749 45.7362 32.6595C45.7362 32.1442 46.1539 31.7265 46.6693 31.7265ZM50.4017 20.5292C50.9171 20.5292 51.3348 20.947 51.3348 21.4623C51.3348 21.9775 50.9171 22.3953 50.4017 22.3953C49.8863 22.3953 49.4686 21.9776 49.4686 21.4623C49.4686 20.9469 49.8863 20.5292 50.4017 20.5292ZM5.61263 20.5292C6.12799 20.5292 6.5457 20.947 6.5457 21.4623C6.5457 21.9775 6.12788 22.3953 5.61263 22.3953C5.09738 22.3953 4.67956 21.9776 4.67956 21.4623C4.67956 20.9469 5.09727 20.5292 5.61263 20.5292ZM9.34501 33.5927C8.82966 33.5927 8.41195 33.175 8.41195 32.6596C8.41195 32.1443 8.82977 31.7266 9.34501 31.7266C9.86037 31.7266 10.2781 32.1443 10.2781 32.6596C10.2781 33.175 9.86037 33.5927 9.34501 33.5927ZM3.74638 40.1244C2.71567 40.1244 1.88013 39.2889 1.88013 38.2582C1.88013 37.2274 2.71567 36.3919 3.74638 36.3919C4.7771 36.3919 5.61263 37.2274 5.61263 38.2582C5.61263 39.2889 4.7771 40.1244 3.74638 40.1244ZM9.34501 44.79C8.82966 44.79 8.41195 44.3723 8.41195 43.8569C8.41195 43.3415 8.82977 42.9238 9.34501 42.9238C9.86037 42.9238 10.2781 43.3415 10.2781 43.8569C10.2781 44.3723 9.86037 44.79 9.34501 44.79ZM13.0775 54.121C12.5622 54.121 12.1444 53.7033 12.1444 53.1879C12.1444 52.6726 12.5623 52.2549 13.0775 52.2549C13.5929 52.2549 14.0106 52.6726 14.0106 53.1879C14.0106 53.7033 13.5928 54.121 13.0775 54.121ZM42.9368 54.121C42.4215 54.121 42.0037 53.7033 42.0037 53.1879C42.0037 52.6726 42.4216 52.2549 42.9368 52.2549C43.4522 52.2549 43.8699 52.6726 43.8699 53.1879C43.8699 53.7033 43.4522 54.121 42.9368 54.121ZM46.6693 42.9237C47.1847 42.9237 47.6024 43.3414 47.6024 43.8568C47.6024 44.3722 47.1847 44.7899 46.6693 44.7899C46.1539 44.7899 45.7362 44.3722 45.7362 43.8568C45.7362 43.3414 46.1539 42.9237 46.6693 42.9237ZM46.9221 7.15502C47.8514 6.11304 49.1995 5.54355 50.5944 5.6038C51.9892 5.66405 53.2832 6.34759 54.1192 7.46578H52.0253C51.4382 7.46699 50.8856 7.74331 50.5324 8.21231L49.8335 9.14537C49.3381 9.80967 49.3381 10.7205 49.8335 11.3848L50.5333 12.3179C50.8858 12.7878 51.4389 13.0644 52.0263 13.0644L54.1445 13.0354C53.3129 14.1652 52.016 14.8597 50.6147 14.9256C49.2134 14.9916 47.8572 14.4219 46.9231 13.3751C46.2622 12.5991 45.2987 12.1459 44.2796 12.1312H42.9369V8.39885H44.2796C45.2984 8.38387 46.2614 7.93062 46.9221 7.15502ZM38.7378 4.66636C40.0262 4.66636 41.0706 5.71074 41.0706 6.99909V13.5308C41.0706 14.8191 40.0262 15.8635 38.7378 15.8635C37.4495 15.8635 36.4051 14.8191 36.4051 13.5308V6.9992C36.4051 6.3805 36.6509 5.78718 37.0883 5.34968C37.5258 4.91217 38.1191 4.66636 38.7378 4.66636ZM32.2061 3.73329C33.4945 3.73329 34.5389 4.77768 34.5389 6.06602V13.5309C34.5389 14.8192 33.4945 15.8636 32.2061 15.8636C30.9178 15.8636 29.8734 14.8192 29.8734 13.5309V6.06602C29.8734 5.44732 30.1192 4.854 30.5566 4.4165C30.9941 3.9791 31.5874 3.73329 32.2061 3.73329ZM23.3416 4.19988C23.3416 2.91154 24.386 1.86715 25.6743 1.86715C26.9593 1.87524 27.999 2.91493 28.0071 4.19988V13.5309C28.0051 14.6543 27.2027 15.6167 26.0979 15.8208C26.1198 15.6805 26.1341 15.539 26.1409 15.3971C26.1352 13.6235 25.0143 12.0453 23.3416 11.4557V4.19988ZM19.1426 3.73329C20.4276 3.74138 21.4673 4.78106 21.4753 6.06602V11.1981H16.8098V6.06602C16.8099 4.77768 17.8543 3.73329 19.1426 3.73329ZM9.08936 13.376C8.16121 14.4173 6.81426 14.9863 5.42061 14.926C4.02697 14.8656 2.73436 14.1821 1.89982 13.0643H3.99089C4.57776 13.062 5.12986 12.7859 5.48382 12.3178L6.19392 11.3726C6.6744 10.7065 6.66992 9.80649 6.18277 9.14527L5.4801 8.2122C5.12614 7.74408 4.57393 7.46808 3.98717 7.46568L1.86439 7.49651C2.69467 6.36672 3.99034 5.6716 5.39087 5.60468C6.7914 5.53776 8.14743 6.10593 9.08192 7.1513C9.74031 7.93106 10.705 8.38639 11.7254 8.39885H14.9436V11.1982C14.0429 11.2016 13.1744 11.5333 12.5008 12.1312H11.7254C10.7077 12.1443 9.74589 12.5984 9.08936 13.376ZM36.4051 30.9305V53.1879C36.4051 53.7033 35.9873 54.121 35.472 54.121H21.4755C20.9601 54.121 20.5424 53.7033 20.5424 53.1879V31.4064C20.5459 30.1682 20.054 28.9802 19.1763 28.1069L13.8967 22.8292C13.3703 22.305 13.0754 21.5921 13.0775 20.8491V14.9304C13.0775 13.8997 13.913 13.0642 14.9438 13.0642H21.942C23.2304 13.0642 24.2748 14.1086 24.2748 15.3969C24.2748 16.6853 23.2304 17.7297 21.942 17.7297H15.8768C15.3615 17.7297 14.9438 18.1474 14.9438 18.6627C14.9438 19.1781 15.3616 19.5958 15.8768 19.5958H21.942C23.349 19.5942 24.6618 18.8879 25.4384 17.7147C25.5168 17.7147 25.5923 17.7297 25.6744 17.7297C26.9491 17.7252 28.1519 17.1385 28.9403 16.1369C29.7259 17.142 30.9305 17.7295 32.2062 17.7295C33.482 17.7295 34.6866 17.1421 35.4721 16.1369C36.8182 17.8538 39.2622 18.2387 41.0708 17.0187V21.3249C41.071 21.8492 40.9235 22.3632 40.6453 22.8076L37.1145 28.4603C36.6514 29.2013 36.4057 30.057 36.4051 30.9305ZM52.2679 40.1244C51.2372 40.1244 50.4017 39.2889 50.4017 38.2582C50.4017 37.2274 51.2372 36.3919 52.2679 36.3919C53.2987 36.3919 54.1342 37.2274 54.1342 38.2582C54.1341 39.2889 53.2985 40.1244 52.2679 40.1244Z" fill="#5FC2D5"/>
</g>
<defs>
<clipPath id="clip0_730_196">
<rect width="56" height="56" fill="white"/>
</clipPath>
</defs>
</svg>
