<svg width="32" height="32" viewBox="0 0 32 32" fill="none" xmlns="http://www.w3.org/2000/svg">
<g clip-path="url(#clip0_1456_2902)">
<path d="M16.7913 15.2094C16.5469 14.965 16.1513 14.965 15.9069 15.2094C15.6632 15.4532 15.6632 15.8488 15.9069 16.0932C16.1513 16.3369 16.5469 16.3369 16.7913 16.0932C17.0351 15.8488 17.0351 15.4532 16.7913 15.2094Z" fill="#5FC2D5"/>
<path d="M24.7458 7.25435C23.5246 6.03317 21.5476 6.0331 20.3263 7.25435C19.1082 8.47241 19.1081 10.4549 20.3265 11.674C21.5449 12.8917 23.5274 12.8922 24.7458 11.6738C25.9669 10.4527 25.9672 8.47566 24.7458 7.25435ZM23.8619 10.7899C23.1311 11.5208 21.9415 11.5208 21.2103 10.79C20.4794 10.0587 20.4793 8.86904 21.2102 8.13823C21.9429 7.40554 23.1291 7.40541 23.8619 8.13823C24.5946 8.87085 24.5948 10.0572 23.8619 10.7899Z" fill="#5FC2D5"/>
<path d="M31.8168 0.183068C31.694 0.060381 31.5266 -0.00611886 31.3524 0.000443624C31.2111 0.00550611 27.8464 0.140756 23.8468 1.55444C20.6418 2.68606 17.9703 4.30625 15.9066 6.36999C15.4442 6.83243 14.9942 7.3228 14.5636 7.83224C12.5231 6.63112 10.888 7.00774 9.85434 7.56093C7.47428 8.83468 6.0011 12.2932 6.0011 14.7669C6.00129 15.0197 6.1536 15.2476 6.3871 15.3443C6.46441 15.3764 6.54566 15.3919 6.62616 15.3919C6.78885 15.3919 6.94866 15.3284 7.06822 15.2089C8.32341 13.9537 9.87159 14.0322 10.3773 14.0987L10.5962 14.3175C10.1655 15.3425 9.81847 16.3618 9.56397 17.3531C9.47209 17.7118 9.50309 18.0915 9.63965 18.4387C9.03791 18.716 8.45734 19.1232 7.95185 19.6287C6.34304 21.2376 6.01635 25.1585 6.00322 25.3246C5.98885 25.5069 6.05497 25.6864 6.18429 25.8157C6.30197 25.9333 6.46116 25.9988 6.62616 25.9988C6.64253 25.9988 6.65897 25.9981 6.67541 25.9968C6.84153 25.9838 10.7625 25.6571 12.3713 24.0483C12.8766 23.543 13.2838 22.9625 13.5611 22.3608C13.9287 22.5054 14.3071 22.5232 14.6473 22.436C15.6382 22.1816 16.6573 21.8347 17.6825 21.4039L17.9013 21.6228C17.9678 22.1286 18.0463 23.6768 16.7911 24.9318C16.6125 25.1106 16.559 25.3794 16.6557 25.6129C16.7524 25.8465 16.9803 25.9987 17.2331 25.9987C19.7068 25.9987 23.1653 24.5255 24.439 22.1455C24.9922 21.1119 25.3688 19.4768 24.1677 17.4362C24.6769 17.0058 25.1673 16.5558 25.6299 16.0932C27.6937 14.0295 29.3138 11.358 30.4454 8.1533C31.8592 4.15344 31.9944 0.788692 31.9994 0.647442C32.0057 0.474005 31.9395 0.305818 31.8168 0.183068ZM7.39847 13.4226C7.78672 11.5437 8.91441 9.48186 10.4444 8.66299C11.4668 8.11587 12.5844 8.16949 13.7726 8.81993C12.7603 10.1513 11.8803 11.5857 11.1467 13.1004C11.1374 13.0946 11.0249 12.9532 10.8159 12.906C10.73 12.8866 9.07628 12.5309 7.39847 13.4226ZM11.4875 23.1643C10.6281 24.0237 8.61216 24.477 7.33797 24.662C7.5231 23.3878 7.97641 21.3719 8.83572 20.5126C9.31697 20.0313 9.87497 19.6665 10.4358 19.461L12.5391 21.5642C12.3336 22.1251 11.9688 22.6831 11.4875 23.1643ZM14.3368 21.2252C14.156 21.2715 13.9465 21.2035 13.7907 21.048C12.9821 20.2394 12.6658 19.9231 12.5666 19.8239C12.3846 19.6419 11.9383 19.1956 10.9525 18.2097C10.7966 18.0535 10.7286 17.8441 10.7748 17.6635C10.975 16.8839 11.2368 16.084 11.5552 15.2765L16.7236 20.4449C15.9159 20.7633 15.1161 21.0251 14.3368 21.2252ZM23.3371 21.5557C22.5182 23.0856 20.4564 24.2133 18.5776 24.6015C19.1766 23.4742 19.3087 22.0392 19.0898 21.169C19.039 20.9668 18.9071 20.8652 18.8998 20.8533C20.4143 20.1197 21.8486 19.2397 23.1801 18.2273C23.8306 19.4157 23.8841 20.5334 23.3371 21.5557ZM24.7462 15.2094C24.183 15.7725 23.5766 16.3165 22.9437 16.8263C21.4223 18.0513 19.7478 19.089 17.9613 19.915L12.0851 14.0389C12.9111 12.2522 13.9487 10.5777 15.1736 9.05655C15.6838 8.42324 16.2278 7.81674 16.7908 7.25387C18.6423 5.40225 21.0319 3.92862 23.8952 2.86788L29.1322 8.10487C28.0716 10.968 26.5979 13.3577 24.7462 15.2094ZM29.5819 6.78668L25.2134 2.41819C27.5934 1.67894 29.664 1.40213 30.6975 1.30263C30.5979 2.33631 30.3211 4.40687 29.5819 6.78668Z" fill="#5FC2D5"/>
<path d="M15.0231 25.8155C14.7789 25.5714 14.3832 25.5716 14.1392 25.8156L12.3717 27.5837C12.1277 27.8279 12.1277 28.2236 12.3718 28.4676C12.616 28.7116 13.0117 28.7116 13.2557 28.4675L15.0232 26.6994C15.2672 26.4552 15.2672 26.0595 15.0231 25.8155Z" fill="#5FC2D5"/>
<path d="M6.18462 16.9769C5.94062 16.7328 5.54494 16.7328 5.30075 16.9768L3.53263 18.7443C3.2885 18.9883 3.28844 19.3841 3.53244 19.6282C3.77638 19.8722 4.17206 19.8724 4.41631 19.6283L6.18443 17.8608C6.42856 17.6168 6.42862 17.2211 6.18462 16.9769Z" fill="#5FC2D5"/>
<path d="M10.6039 26.7C10.36 26.4559 9.96419 26.4559 9.72007 26.6999L5.48632 30.933C5.2422 31.1771 5.2422 31.5728 5.48626 31.8169C5.7302 32.061 6.12601 32.0611 6.37013 31.817L10.6039 27.5838C10.848 27.3398 10.848 26.944 10.6039 26.7Z" fill="#5FC2D5"/>
<path d="M5.60394 26.7C5.35994 26.4559 4.96413 26.4559 4.72007 26.6999L0.486324 30.933C0.242199 31.1771 0.242199 31.5728 0.486261 31.8169C0.730198 32.061 1.12601 32.0611 1.37013 31.817L5.60388 27.5838C5.848 27.3398 5.848 26.944 5.60394 26.7Z" fill="#5FC2D5"/>
<path d="M5.30015 21.3961C5.05615 21.1521 4.66034 21.1521 4.41628 21.3961L0.183161 25.6299C-0.0609012 25.874 -0.0609012 26.2697 0.183223 26.5138C0.427285 26.7579 0.823035 26.7579 1.0671 26.5137L5.30021 22.28C5.54428 22.0359 5.54428 21.6402 5.30015 21.3961Z" fill="#5FC2D5"/>
<path d="M19.4427 12.5574C19.1986 12.3134 18.8029 12.3134 18.5587 12.5574L17.675 13.4412C17.4309 13.6852 17.4309 14.081 17.675 14.3251C17.9191 14.5692 18.3148 14.5692 18.5589 14.3251L19.4427 13.4414C19.6867 13.1973 19.6867 12.8016 19.4427 12.5574Z" fill="#5FC2D5"/>
</g>
<defs>
<clipPath id="clip0_1456_2902">
<rect width="32" height="32" fill="white"/>
</clipPath>
</defs>
</svg>
