<svg width="80" height="80" viewBox="0 0 80 80" fill="none" xmlns="http://www.w3.org/2000/svg">
<mask id="mask0_2511_9" style="mask-type:luminance" maskUnits="userSpaceOnUse" x="0" y="0" width="80" height="80">
<path d="M0 0H80V80H0V0Z" fill="white"/>
</mask>
<g mask="url(#mask0_2511_9)">
<path d="M35.2492 35.3125C27.9052 34.2239 28.7368 30.625 22.2504 30.625C11.0462 30.625 2.26088 54.5611 2.34384 68.2812C2.37728 73.7931 3.91416 77.6562 7.18931 77.6562C9.52697 77.6562 13.5057 76.0808 19.5128 69.6998C23.1207 65.8672 28.0901 63.4375 33.354 63.4375H46.6462C51.9101 63.4375 57.0357 65.8672 60.6438 69.6998C66.6507 76.0808 70.4734 77.6562 72.811 77.6562C76.086 77.6562 77.6231 73.7931 77.6563 68.2812C77.7395 54.5611 68.954 30.625 57.7499 30.625C51.2634 30.625 52.0951 34.2239 44.7512 35.3125H35.2492Z" stroke="#5752A3" stroke-width="3" stroke-miterlimit="10" stroke-linecap="round" stroke-linejoin="round"/>
<path d="M40 2.34375C40 2.34375 35.3125 6.44531 35.3125 10.5469C35.3125 14.6484 40 18.9062 40 18.9062C40 18.9062 44.6875 23.0078 44.6875 27.1094C44.6875 31.2109 40 35.3125 40 35.3125" stroke="#5752A3" stroke-width="3" stroke-miterlimit="10" stroke-linecap="round" stroke-linejoin="round"/>
<path d="M21.25 44.6875V54.0625V44.6875Z" fill="#5FC2D5"/>
<path d="M21.25 44.6875V54.0625" stroke="#5FC2D5" stroke-width="3" stroke-miterlimit="10" stroke-linecap="round" stroke-linejoin="round"/>
<path d="M16.5625 49.375H25.9375H16.5625Z" fill="#5FC2D5"/>
<path d="M16.5625 49.375H25.9375" stroke="#5FC2D5" stroke-width="3" stroke-miterlimit="10" stroke-linecap="round" stroke-linejoin="round"/>
<path d="M58.75 45.5312C59.2159 45.5312 59.5937 45.1534 59.5938 44.6875C59.5938 44.2216 59.2159 43.8438 58.75 43.8438C58.2841 43.8438 57.9062 44.2216 57.9062 44.6875C57.9063 45.1534 58.2841 45.5312 58.75 45.5312Z" fill="#5FC2D5" stroke="#5FC2D5" stroke-width="3"/>
<path d="M58.75 54.9062C59.2159 54.9062 59.5937 54.5284 59.5938 54.0625C59.5938 53.5966 59.2159 53.2188 58.75 53.2188C58.2841 53.2188 57.9062 53.5966 57.9062 54.0625C57.9063 54.5284 58.2841 54.9062 58.75 54.9062Z" fill="#5FC2D5" stroke="#5FC2D5" stroke-width="3"/>
<path d="M54.0625 50.2188C54.5284 50.2188 54.9062 49.8409 54.9062 49.375C54.9062 48.9091 54.5284 48.5312 54.0625 48.5312C53.5966 48.5313 53.2188 48.9091 53.2188 49.375C53.2188 49.8409 53.5966 50.2187 54.0625 50.2188Z" fill="#5FC2D5" stroke="#5FC2D5" stroke-width="3"/>
<path d="M63.4375 50.2188C63.9034 50.2188 64.2812 49.8409 64.2812 49.375C64.2812 48.9091 63.9034 48.5312 63.4375 48.5312C62.9716 48.5313 62.5938 48.9091 62.5938 49.375C62.5938 49.8409 62.9716 50.2187 63.4375 50.2188Z" fill="#5FC2D5" stroke="#5FC2D5" stroke-width="3"/>
<path d="M35.3125 49.375H44.6875" stroke="#5752A3" stroke-width="3" stroke-miterlimit="10" stroke-linecap="round" stroke-linejoin="round"/>
</g>
</svg>
