<svg width="1440" height="1080" viewBox="0 0 1440 1080" fill="none" xmlns="http://www.w3.org/2000/svg">
<g clip-path="url(#clip0_657_719)">
<rect width="1440" height="1080" fill="black"/>
<g opacity="0.3" filter="url(#filter0_f_657_719)">
<circle cx="1143.5" cy="521.5" r="529.5" fill="url(#paint0_radial_657_719)"/>
</g>
<g style="mix-blend-mode:overlay" opacity="0.5">
<line x1="28.8564" y1="21" x2="28.8564" y2="1277.06" stroke="white"/>
<line x1="154.373" y1="21" x2="154.373" y2="1277.06" stroke="white"/>
<line x1="279.891" y1="21" x2="279.891" y2="1277.06" stroke="white"/>
<line x1="405.408" y1="21" x2="405.408" y2="1277.06" stroke="white"/>
<line x1="530.925" y1="21" x2="530.925" y2="1277.06" stroke="white"/>
<line x1="656.441" y1="21" x2="656.441" y2="1277.06" stroke="white"/>
<line x1="781.959" y1="21" x2="781.959" y2="1277.06" stroke="white"/>
<line x1="907.477" y1="21" x2="907.477" y2="1277.06" stroke="white"/>
<line x1="1032.99" y1="21" x2="1032.99" y2="1277.06" stroke="white"/>
<line x1="1158.51" y1="21" x2="1158.51" y2="1277.06" stroke="white"/>
<line x1="1284.03" y1="21" x2="1284.03" y2="1277.06" stroke="white"/>
<line x1="1417.5" y1="21" x2="1417.5" y2="1277.06" stroke="white"/>
<line x1="1417" y1="21.5" x2="-106" y2="21.4999" stroke="white"/>
<line x1="1417" y1="147.017" x2="-106" y2="147.017" stroke="white"/>
<line x1="1417" y1="272.534" x2="-106" y2="272.534" stroke="white"/>
<line x1="1417" y1="398.051" x2="-106" y2="398.051" stroke="white"/>
<line x1="1417" y1="523.568" x2="-106" y2="523.568" stroke="white"/>
<line x1="1417" y1="649.086" x2="-106" y2="649.086" stroke="white"/>
<line x1="1417" y1="774.603" x2="-106" y2="774.602" stroke="white"/>
<line x1="1417" y1="900.12" x2="-106" y2="900.12" stroke="white"/>
<line x1="1417" y1="1025.64" x2="-106" y2="1025.64" stroke="white"/>
<rect x="-106" y="272.034" width="134.356" height="125.517" fill="white"/>
<rect x="153.873" y="146.517" width="134.356" height="125.517" fill="white"/>
<rect x="279.391" y="649.469" width="134.356" height="125.517" fill="white"/>
<rect x="906.976" y="774.987" width="134.356" height="125.517" fill="white"/>
<rect x="1282.64" y="397.551" width="134.356" height="125.517" fill="white"/>
<rect x="1032.49" y="272.034" width="134.356" height="125.517" fill="white"/>
<rect x="28.3564" y="899.62" width="134.356" height="125.517" fill="white"/>
</g>
</g>
<defs>
<filter id="filter0_f_657_719" x="561" y="-61" width="1165" height="1165" filterUnits="userSpaceOnUse" color-interpolation-filters="sRGB">
<feFlood flood-opacity="0" result="BackgroundImageFix"/>
<feBlend mode="normal" in="SourceGraphic" in2="BackgroundImageFix" result="shape"/>
<feGaussianBlur stdDeviation="26.5" result="effect1_foregroundBlur_657_719"/>
</filter>
<radialGradient id="paint0_radial_657_719" cx="0" cy="0" r="1" gradientUnits="userSpaceOnUse" gradientTransform="translate(1143.5 521.5) rotate(89.9281) scale(398.5)">
<stop stop-color="#5FC2D5"/>
<stop offset="1" stop-color="#5FC2D5" stop-opacity="0"/>
</radialGradient>
<clipPath id="clip0_657_719">
<rect width="1440" height="1080" fill="white"/>
</clipPath>
</defs>
</svg>
