<svg width="18" height="17" viewBox="0 0 18 17" fill="none" xmlns="http://www.w3.org/2000/svg">
<g clip-path="url(#clip0_1835_2712)">
<path fill-rule="evenodd" clip-rule="evenodd" d="M11.1417 5.3242V5.98786C11.782 5.59009 12.5212 5.35824 13.6443 5.35824C17.2997 5.35824 17.7677 8.09053 17.7677 10.4708V16.9628L13.5411 17V10.7909C13.5411 9.74862 13.1678 9.5508 12.4776 9.5508C11.8213 9.5508 11.414 9.75819 11.414 10.7909V17L7.13208 16.9628V5.32419L11.1417 5.3242ZM5.0543 5.31718V16.9951H0.800049V5.31719H5.0543V5.31718ZM3.99074 6.38075H1.86361V15.9315H3.99074V6.38076V6.38075ZM10.0782 6.38776H8.19564V15.9088L10.3504 15.9279V10.7909C10.3504 8.7861 11.6831 8.48724 12.4776 8.48724C13.4475 8.48724 14.6047 8.88714 14.6047 10.7909V15.9279L16.7042 15.9088V10.4708C16.7042 7.51939 15.8756 6.42179 13.6443 6.42179C12.3031 6.42179 11.7224 6.81957 11.1534 7.29818L11.0056 7.42367H10.0782V6.38776ZM2.92717 0C4.10029 0 5.0543 0.954019 5.0543 2.12713C5.0543 3.30024 4.10029 4.25425 2.92717 4.25425C1.75407 4.25425 0.800049 3.30024 0.800049 2.12713C0.800049 0.954019 1.75407 0 2.92717 0ZM2.92717 1.06356C2.34115 1.06356 1.86361 1.5411 1.86361 2.12713C1.86361 2.71315 2.34115 3.19069 2.92717 3.19069C3.5132 3.19069 3.99074 2.71315 3.99074 2.12713C3.99074 1.5411 3.5132 1.06356 2.92717 1.06356Z" fill="white" fill-opacity="0.38"/>
</g>
<defs>
<clipPath id="clip0_1835_2712">
<rect width="17" height="17" fill="white" transform="translate(0.800049)"/>
</clipPath>
</defs>
</svg>
