<svg width="1440" height="1107" viewBox="0 0 1440 1107" fill="none" xmlns="http://www.w3.org/2000/svg">
<g clip-path="url(#clip0_657_758)">
<rect width="1440" height="1107" fill="black"/>
<g opacity="0.3" filter="url(#filter0_f_657_758)">
<circle cx="1279.5" cy="611.5" r="495.5" fill="url(#paint0_radial_657_758)"/>
</g>
<g style="mix-blend-mode:overlay" opacity="0.5">
<line x1="104.856" y1="392" x2="104.856" y2="1648.06" stroke="white"/>
<line x1="230.373" y1="392" x2="230.373" y2="1648.06" stroke="white"/>
<line x1="355.891" y1="392" x2="355.891" y2="1648.06" stroke="white"/>
<line x1="481.408" y1="392" x2="481.408" y2="1648.06" stroke="white"/>
<line x1="606.925" y1="392" x2="606.925" y2="1648.06" stroke="white"/>
<line x1="732.441" y1="392" x2="732.441" y2="1648.06" stroke="white"/>
<line x1="857.959" y1="392" x2="857.959" y2="1648.06" stroke="white"/>
<line x1="983.477" y1="392" x2="983.477" y2="1648.06" stroke="white"/>
<line x1="1108.99" y1="392" x2="1108.99" y2="1648.06" stroke="white"/>
<line x1="1234.51" y1="392" x2="1234.51" y2="1648.06" stroke="white"/>
<line x1="1360.03" y1="392" x2="1360.03" y2="1648.06" stroke="white"/>
<line x1="1493" y1="392.5" x2="-29.9996" y2="392.5" stroke="white"/>
<line x1="1493" y1="518.017" x2="-29.9996" y2="518.017" stroke="white"/>
<line x1="1493" y1="643.534" x2="-29.9996" y2="643.534" stroke="white"/>
<line x1="1493" y1="769.051" x2="-29.9996" y2="769.051" stroke="white"/>
<line x1="1493" y1="894.568" x2="-29.9996" y2="894.568" stroke="white"/>
<line x1="1493" y1="1020.09" x2="-29.9996" y2="1020.09" stroke="white"/>
<rect x="-30" y="643.034" width="134.356" height="125.517" fill="white"/>
<rect x="229.873" y="517.517" width="134.356" height="125.517" fill="white"/>
<rect x="355.391" y="1020.47" width="134.356" height="125.517" fill="white"/>
<rect x="1358.64" y="768.551" width="134.356" height="125.517" fill="white"/>
<rect x="1108.49" y="643.034" width="134.356" height="125.517" fill="white"/>
</g>
</g>
<defs>
<filter id="filter0_f_657_758" x="731" y="63" width="1097" height="1097" filterUnits="userSpaceOnUse" color-interpolation-filters="sRGB">
<feFlood flood-opacity="0" result="BackgroundImageFix"/>
<feBlend mode="normal" in="SourceGraphic" in2="BackgroundImageFix" result="shape"/>
<feGaussianBlur stdDeviation="26.5" result="effect1_foregroundBlur_657_758"/>
</filter>
<radialGradient id="paint0_radial_657_758" cx="0" cy="0" r="1" gradientUnits="userSpaceOnUse" gradientTransform="translate(1279.5 611.5) rotate(90) scale(495.5)">
<stop stop-color="#5FC2D5"/>
<stop offset="1" stop-color="#5FC2D5" stop-opacity="0"/>
</radialGradient>
<clipPath id="clip0_657_758">
<rect width="1440" height="1107" fill="white"/>
</clipPath>
</defs>
</svg>
