<svg width="390" height="690" viewBox="0 0 390 690" fill="none" xmlns="http://www.w3.org/2000/svg">
<g clip-path="url(#clip0_657_1251)">
<rect width="390" height="690" fill="black"/>
<g opacity="0.3" filter="url(#filter0_f_657_1251)">
<circle cx="361.5" cy="336.5" r="338.5" fill="url(#paint0_radial_657_1251)"/>
</g>
<g style="mix-blend-mode:overlay" opacity="0.5">
<line x1="60.7676" y1="138.608" x2="60.7675" y2="865.055" stroke="white"/>
<line x1="133.361" y1="138.608" x2="133.361" y2="865.055" stroke="white"/>
<line x1="205.955" y1="138.608" x2="205.955" y2="865.055" stroke="white"/>
<line x1="278.548" y1="138.608" x2="278.548" y2="865.055" stroke="white"/>
<line x1="351.142" y1="138.608" x2="351.142" y2="865.055" stroke="white"/>
<line x1="427.837" y1="139.108" x2="-452.999" y2="139.108" stroke="white"/>
<line x1="427.837" y1="211.702" x2="-452.999" y2="211.702" stroke="white"/>
<line x1="427.837" y1="284.295" x2="-452.999" y2="284.295" stroke="white"/>
<line x1="427.837" y1="356.889" x2="-452.999" y2="356.889" stroke="white"/>
<line x1="427.837" y1="429.482" x2="-452.999" y2="429.482" stroke="white"/>
<line x1="427.837" y1="502.076" x2="-452.999" y2="502.076" stroke="white"/>
<line x1="427.837" y1="574.669" x2="-452.999" y2="574.669" stroke="white"/>
<line x1="427.837" y1="647.263" x2="-452.999" y2="647.263" stroke="white"/>
<rect x="132.861" y="574.681" width="77.7058" height="72.5936" fill="white"/>
<rect x="350.131" y="356.389" width="77.7058" height="72.5936" fill="white"/>
<rect x="205.454" y="283.795" width="77.7058" height="72.5936" fill="white"/>
</g>
</g>
<defs>
<filter id="filter0_f_657_1251" x="-30" y="-55" width="783" height="783" filterUnits="userSpaceOnUse" color-interpolation-filters="sRGB">
<feFlood flood-opacity="0" result="BackgroundImageFix"/>
<feBlend mode="normal" in="SourceGraphic" in2="BackgroundImageFix" result="shape"/>
<feGaussianBlur stdDeviation="26.5" result="effect1_foregroundBlur_657_1251"/>
</filter>
<radialGradient id="paint0_radial_657_1251" cx="0" cy="0" r="1" gradientUnits="userSpaceOnUse" gradientTransform="translate(361.5 336.5) rotate(90) scale(338.5)">
<stop stop-color="#5FC2D5"/>
<stop offset="1" stop-color="#5FC2D5" stop-opacity="0"/>
</radialGradient>
<clipPath id="clip0_657_1251">
<rect width="390" height="690" fill="white"/>
</clipPath>
</defs>
</svg>
