<svg width="173" height="36" viewBox="0 0 173 36" fill="none" xmlns="http://www.w3.org/2000/svg">
<path d="M61.0137 17.1109V4.1674H64.933V17.1109H61.0137Z" fill="white"/>
<path d="M74.7729 17.1109L69.9984 10.1639V17.1109H66.0791V4.1674H70.1159L74.6176 10.6875V4.1674H78.5369V17.1109H74.7729Z" fill="white"/>
<path d="M88.3784 17.1109L83.6039 10.1639V17.1109H79.6846V4.1674H83.7214L88.223 10.6875V4.1674H92.1424V17.1109H88.3784Z" fill="white"/>
<path d="M99.6731 3.95329C103.671 3.95329 106.756 6.6702 106.756 10.6496C106.756 14.629 103.671 17.3446 99.6731 17.3446C95.6754 17.3446 92.5903 14.629 92.5903 10.6496C92.5903 6.6702 95.6754 3.95329 99.6731 3.95329ZM99.6731 7.40785C97.7904 7.40785 96.5684 8.84398 96.5684 10.6496C96.5684 12.4552 97.7904 13.89 99.6731 13.89C101.556 13.89 102.778 12.4539 102.778 10.6496C102.778 8.84529 101.556 7.40785 99.6731 7.40785Z" fill="white"/>
<path d="M110.192 17.1109L105.419 4.1674H109.863L112.658 12.8795L115.452 4.1674H119.896L115.123 17.1109H110.193H110.192Z" fill="white"/>
<path d="M127.697 17.1109L127.193 15.4411H122.225L121.721 17.1109H117.472L122.245 4.1674H127.175L131.948 17.1109H127.698H127.697ZM124.708 7.62196L123.233 12.1823H126.182L124.707 7.62196H124.708Z" fill="white"/>
<path d="M133.306 17.1109V7.58279H129.832V4.1674H140.68V7.58279H137.226V17.1109H133.305H133.306Z" fill="white"/>
<path d="M141.128 17.1109V4.1674H145.047V17.1109H141.128Z" fill="white"/>
<path d="M152.577 3.95329C156.575 3.95329 159.66 6.6702 159.66 10.6496C159.66 14.629 156.575 17.3446 152.577 17.3446C148.58 17.3446 145.495 14.629 145.495 10.6496C145.495 6.6702 148.58 3.95329 152.577 3.95329ZM152.577 7.40785C150.695 7.40785 149.473 8.84398 149.473 10.6496C149.473 12.4552 150.695 13.89 152.577 13.89C154.46 13.89 155.682 12.4539 155.682 10.6496C155.682 8.84529 154.46 7.40785 152.577 7.40785Z" fill="white"/>
<path d="M168.802 17.1109L164.028 10.1639V17.1109H160.108V4.1674H164.145L168.647 10.6875V4.1674H172.566V17.1109H168.802Z" fill="white"/>
<path d="M60.3154 25.3517C60.3154 21.354 63.3822 18.6554 67.3407 18.6554C70.8345 18.6554 72.5409 20.6347 73.3177 22.4207L69.9415 23.9913C69.6111 22.9834 68.6019 22.1087 67.3407 22.1087C65.5547 22.1087 64.2935 23.5448 64.2935 25.3504C64.2935 27.156 65.5547 28.5909 67.3407 28.5909C68.6019 28.5909 69.6111 27.7174 69.9415 26.7082L73.3177 28.2605C72.5604 29.9865 70.8332 32.0441 67.3407 32.0441C63.3822 32.0441 60.3154 29.3285 60.3154 25.3491V25.3517Z" fill="white"/>
<path d="M73.5903 31.8143V18.8708H77.5097V31.8143H73.5903Z" fill="white"/>
<path d="M81.4302 31.8143V22.2862H77.9561V18.8708H88.8041V22.2862H85.3495V31.8143H81.4289H81.4302Z" fill="white"/>
<path d="M92.705 31.8143V26.6716L87.8535 18.8708H92.2585L94.6647 23.2367L97.0317 18.8708H101.437L96.6244 26.6716V31.8143H92.705Z" fill="white"/>
<path d="M21.1399 14.5585H35.6684C34.0625 6.26416 26.7643 0 18 0C8.05803 0 0 8.05933 0 18C0 27.942 8.05933 36 18 36C26.7147 36 33.9816 29.8076 35.6423 21.5838H21.1399V14.5585Z" fill="url(#paint0_linear_68_1675)"/>
<path d="M50.1785 14.5585H35.6684C35.8838 15.6735 36.0013 16.8224 36.0013 18C36.0013 19.2272 35.8773 20.4258 35.6436 21.5838H50.1799V14.5585H50.1785Z" fill="#5752A3"/>
<defs>
<linearGradient id="paint0_linear_68_1675" x1="8.91187" y1="18" x2="44.5803" y2="18" gradientUnits="userSpaceOnUse">
<stop stop-color="#85D2DB"/>
<stop offset="0.09" stop-color="#83CCD8"/>
<stop offset="0.2" stop-color="#81BCD2"/>
<stop offset="0.32" stop-color="#7CA2C7"/>
<stop offset="0.45" stop-color="#757EB7"/>
<stop offset="0.53" stop-color="#7165AD"/>
<stop offset="0.64" stop-color="#645CA8"/>
<stop offset="0.81" stop-color="#5A54A4"/>
<stop offset="1" stop-color="#5752A3"/>
</linearGradient>
</defs>
</svg>
