<svg width="15" height="17" viewBox="0 0 15 17" fill="none" xmlns="http://www.w3.org/2000/svg">
<path d="M11.2511 3.32468C10.7074 2.70134 10.3805 1.88855 10.3805 1H9.69932M11.2511 3.32468C11.7466 3.89297 12.4175 4.30626 13.1815 4.46809C13.4189 4.51976 13.6666 4.54734 13.9247 4.54734V7.09583C12.6034 7.09583 11.3783 6.67227 10.3804 5.9559V11.1391C10.3804 13.729 8.27445 15.8333 5.69024 15.8333C4.33786 15.8333 3.11627 15.2547 2.25943 14.3352C1.47831 13.4949 1 12.372 1 11.1391C1 8.5871 3.04401 6.50694 5.57666 6.45183M11.2511 3.32468C11.2379 3.31605 11.2247 3.30733 11.2116 3.29853M3.95595 12.3858C3.70132 12.0346 3.5499 11.6041 3.5499 11.1357C3.5499 9.9544 4.50997 8.99353 5.6903 8.99353C5.91052 8.99353 6.12384 9.03136 6.32343 9.09336V6.48976C6.11695 6.46217 5.90707 6.44494 5.6903 6.44494C5.65242 6.44494 5.34752 6.46522 5.30966 6.46522M9.69562 1H7.83057L7.82716 11.2183C7.78584 12.3617 6.84296 13.2813 5.69024 13.2813C4.97447 13.2813 4.34474 12.9266 3.95246 12.3893" stroke="white" stroke-opacity="0.38" stroke-linejoin="round"/>
</svg>
