<svg width="50" height="50" viewBox="0 0 50 50" fill="none" xmlns="http://www.w3.org/2000/svg">
<path d="M47.0703 32.4801V4.39453C47.0703 1.97139 45.0989 0 42.6758 0H10.3516C7.92842 0 5.95703 1.97139 5.95703 4.39453V5.95703H4.39453C1.97139 5.95703 0 7.92842 0 10.3516C0 12.7747 1.97139 14.7461 4.39453 14.7461H5.95703V20.6055H4.39453C1.97139 20.6055 0 22.5769 0 25C0 27.4231 1.97139 29.3945 4.39453 29.3945H5.95703V35.2539H4.39453C1.97139 35.2539 0 37.2253 0 39.6484C0 42.0716 1.97139 44.043 4.39453 44.043H5.95703V45.5078C5.95703 46.6753 6.40596 47.7878 7.22109 48.6405C8.05918 49.5172 9.171 50 10.3516 50H39.7461C45.4001 50 50 45.3563 50 39.6484C50 36.861 48.8814 34.3303 47.0703 32.4801ZM4.39453 11.8164C3.58682 11.8164 2.92969 11.1593 2.92969 10.3516C2.92969 9.54385 3.58682 8.88672 4.39453 8.88672H7.42188C8.22959 8.88672 8.88672 9.54385 8.88672 10.3516C8.88672 11.1593 8.22959 11.8164 7.42188 11.8164H4.39453ZM4.39453 26.4648C3.58682 26.4648 2.92969 25.8077 2.92969 25C2.92969 24.1923 3.58682 23.5352 4.39453 23.5352H7.42188C8.22959 23.5352 8.88672 24.1923 8.88672 25C8.88672 25.8077 8.22959 26.4648 7.42188 26.4648H4.39453ZM7.42188 41.1133H4.39453C3.58682 41.1133 2.92969 40.4562 2.92969 39.6484C2.92969 38.8407 3.58682 38.1836 4.39453 38.1836H7.42188C8.22959 38.1836 8.88672 38.8407 8.88672 39.6484C8.88672 40.4562 8.22959 41.1133 7.42188 41.1133ZM10.3516 47.0703C9.57129 47.0703 8.88672 46.3401 8.88672 45.5078V43.791C10.5917 43.1863 11.8164 41.5581 11.8164 39.6484C11.8164 37.7388 10.5917 36.1105 8.88672 35.5059V29.1426C10.5917 28.5379 11.8164 26.9097 11.8164 25C11.8164 23.0903 10.5917 21.4621 8.88672 20.8574V14.4941C10.5917 13.8895 11.8164 12.2612 11.8164 10.3516C11.8164 8.44189 10.5917 6.81367 8.88672 6.20898V4.39453C8.88672 3.58682 9.54385 2.92969 10.3516 2.92969H42.6758C43.4835 2.92969 44.1406 3.58682 44.1406 4.39453V30.3853C42.808 29.7505 41.3179 29.3945 39.7461 29.3945C34.0921 29.3945 29.4922 33.9944 29.4922 39.6484C29.4922 42.5566 30.6868 45.1881 32.6061 47.0703H10.3516ZM39.7461 47.0703C35.7075 47.0703 32.4219 43.7409 32.4219 39.6484C32.4219 35.6099 35.7075 32.3242 39.7461 32.3242C43.7847 32.3242 47.0703 35.6099 47.0703 39.6484C47.0703 43.7409 43.7847 47.0703 39.7461 47.0703Z" fill="#5FC2D5"/>
<path d="M39.7461 11.8164H30.957C30.148 11.8164 29.4922 12.4723 29.4922 13.2812C29.4922 14.0902 30.148 14.7461 30.957 14.7461H39.7461C40.5551 14.7461 41.2109 14.0902 41.2109 13.2812C41.2109 12.4723 40.5551 11.8164 39.7461 11.8164Z" fill="#5FC2D5"/>
<path d="M39.7461 23.5352H30.957C30.148 23.5352 29.4922 24.191 29.4922 25C29.4922 25.809 30.148 26.4648 30.957 26.4648H39.7461C40.5551 26.4648 41.2109 25.809 41.2109 25C41.2109 24.191 40.5551 23.5352 39.7461 23.5352Z" fill="#5FC2D5"/>
<path d="M42.6758 38.1836H41.2109V36.7188C41.2109 35.9098 40.5551 35.2539 39.7461 35.2539C38.9371 35.2539 38.2812 35.9098 38.2812 36.7188V39.6484C38.2812 40.4574 38.9371 41.1133 39.7461 41.1133H42.6758C43.4848 41.1133 44.1406 40.4574 44.1406 39.6484C44.1406 38.8395 43.4848 38.1836 42.6758 38.1836Z" fill="#5FC2D5"/>
<path d="M26.0355 9.31576C25.4635 8.74369 24.536 8.74369 23.964 9.31586L19.1404 14.1394L16.8346 11.8336C16.2626 11.2616 15.3351 11.2616 14.763 11.8336C14.191 12.4057 14.191 13.3331 14.763 13.9052L18.1046 17.2468C18.3906 17.5328 18.7655 17.6758 19.1404 17.6758C19.5153 17.6758 19.8902 17.5328 20.1761 17.2467L26.0355 11.3873C26.6076 10.8153 26.6076 9.88783 26.0355 9.31576Z" fill="#5FC2D5"/>
<path d="M26.0355 21.0345C25.4635 20.4624 24.536 20.4624 23.964 21.0346L19.1404 25.8581L16.8346 23.5524C16.2626 22.9803 15.3351 22.9803 14.763 23.5524C14.191 24.1244 14.191 25.0519 14.763 25.624L18.1046 28.9656C18.3906 29.2516 18.7655 29.3946 19.1404 29.3946C19.5153 29.3946 19.8902 29.2516 20.1761 28.9655L26.0355 23.1061C26.6076 22.534 26.6076 21.6066 26.0355 21.0345Z" fill="#5FC2D5"/>
<path d="M26.0355 32.7533C25.4635 32.1812 24.536 32.1812 23.964 32.7534L19.1404 37.5769L16.8346 35.2711C16.2626 34.6991 15.3351 34.6991 14.763 35.2711C14.191 35.8432 14.191 36.7706 14.763 37.3427L18.1046 40.6843C18.3906 40.9703 18.7655 41.1133 19.1404 41.1133C19.5153 41.1133 19.8902 40.9703 20.1761 40.6842L26.0355 34.8248C26.6076 34.2528 26.6076 33.3253 26.0355 32.7533Z" fill="#5FC2D5"/>
</svg>
