<svg width="33" height="33" viewBox="0 0 33 33" fill="none" xmlns="http://www.w3.org/2000/svg">
<path fill-rule="evenodd" clip-rule="evenodd" d="M21.7864 27.4284L15.4784 29.4419C15.1709 30.1137 14.3848 30.5299 13.6673 30.2577L9.31087 28.8132C9.04986 28.7269 8.90818 28.4453 8.99445 28.1843C9.08072 27.9233 9.36234 27.7817 9.62336 27.8679L14.0209 29.3242C14.2721 29.4068 14.5422 29.1935 14.6056 28.9275C14.6708 28.6538 14.638 28.1949 14.3787 28.0719L14.0469 27.9371C12.9366 27.486 9.35421 26.0318 8.20687 25.5658C7.95826 25.4648 7.90192 25.4337 7.64464 25.3624C7.32309 25.2733 7.004 25.2055 6.74699 25.1988C6.11235 25.1821 5.45271 25.3233 4.79301 25.465V30.6465C5.99048 30.5314 6.76332 30.77 7.88926 30.9412C8.03686 30.9637 9.00892 31.2771 9.17866 31.3321C9.73836 31.5137 11.4851 32.0899 12.0826 31.928C15.4293 30.755 18.7806 29.5951 22.1244 28.4139C22.5678 28.2573 22.6058 27.6575 22.1855 27.4485C22.077 27.3945 21.9335 27.3755 21.8171 27.4191L21.8173 27.4197L21.8057 27.4233L21.8055 27.4229C21.7991 27.4249 21.7927 27.4267 21.7864 27.4284ZM23.1731 2.27953C23.8897 2.49587 24.5908 2.7872 25.2485 3.1404L26.8852 2.10313C27.0865 1.97547 27.3444 2.00973 27.5061 2.17167L27.5063 2.17147L30.8303 5.49533C31.0043 5.66927 31.0233 5.93953 30.8872 6.13453L29.8619 7.75213C30.2153 8.41 30.5066 9.1116 30.723 9.82847L32.6093 10.2512C32.845 10.3033 33.0044 10.5143 32.9999 10.7467V15.4382C32.9999 15.6791 32.8288 15.8801 32.6014 15.9263L30.7222 16.3474C30.506 17.0637 30.2145 17.7653 29.8613 18.4226L30.8987 20.0592C31.0263 20.2605 30.9921 20.5184 30.8301 20.6801L30.8303 20.6803L27.5063 24.0041C27.3323 24.1781 27.062 24.1971 26.867 24.061L25.2493 23.0357C24.5914 23.3891 23.8898 23.6804 23.1729 23.8967L22.8628 25.2803C22.8659 25.3084 23.2162 25.9328 22.8077 26.6573C23.8453 27.3609 23.6332 28.9395 22.4563 29.3552C19.0798 30.5479 15.6959 31.7212 12.3143 32.8995C12.019 32.9622 11.6984 32.9631 11.4051 32.927C10.5263 32.8187 9.69809 32.55 8.86998 32.2813C8.47796 32.1541 8.08593 32.0269 7.72518 31.9271C7.42976 31.8814 7.17035 31.8355 6.93107 31.7931C6.17056 31.6585 5.62606 31.5621 4.79294 31.6512C4.79294 32.0515 4.81481 32.3649 4.48633 32.6934C4.29718 32.8826 4.0357 33 3.74775 33H1.04519C0.469294 33 0 32.5307 0 31.9549V23.8479C0 23.2721 0.469227 22.8028 1.04519 22.8028H3.74775C4.32372 22.8028 4.79294 23.2721 4.79294 23.8479V24.4441C5.43711 24.3073 6.08508 24.1847 6.77032 24.2027C7.15908 24.2129 7.80012 24.3491 8.21401 24.4908C8.40762 24.5507 8.59376 24.6136 8.76424 24.6727L11.8464 23.5301L8.99632 20.6803C8.82238 20.5063 8.80338 20.2361 8.93938 20.0411L9.96471 18.4235C9.61129 17.7655 9.32007 17.0641 9.10366 16.3472L7.21735 15.9245C6.98167 15.8724 6.82219 15.6613 6.82666 15.4289V10.7375C6.82666 10.4965 6.9978 10.2955 7.22515 10.2494L9.10406 9.82833C9.32027 9.11213 9.61195 8.41007 9.96511 7.7528L8.92792 6.11647C8.80024 5.91513 8.83451 5.65727 8.99645 5.4956L8.99625 5.4954L12.3203 2.17153C12.4943 1.9976 12.7645 1.9786 12.9595 2.1146L14.578 3.1404C15.2354 2.78733 15.9373 2.4958 16.6535 2.2796L17.0765 0.392733C17.1279 0.160133 17.3341 0.00179998 17.5628 0.00199998V0H22.2638C22.5176 0 22.7274 0.189267 22.7595 0.4344L23.1731 2.27953ZM21.9374 26.1736C21.8227 26.3721 21.6604 26.4123 21.4618 26.4859L21.4621 26.4867L15.6112 28.3543C15.5719 28.0923 15.4812 27.8374 15.3312 27.6207L19.3302 26.1735L21.9374 26.1736ZM17.1242 25.9115L14.2607 26.9477C13.9105 26.8051 13.418 26.6049 12.8639 26.3797C14.2056 25.8932 15.5405 25.3991 16.8793 24.9028C16.9184 25.0775 17.0613 25.7949 17.1242 25.9115ZM16.6588 23.9195L16.6536 23.8961C15.9373 23.6799 15.2357 23.3883 14.5782 23.0352L14.431 23.1285C14.9131 23.3961 15.2185 23.9023 15.2186 24.4535L16.6588 23.9195ZM23.849 3.58007C23.4554 3.41687 23.0456 3.27653 22.6213 3.16113L22.6218 3.15947C22.4488 3.1124 22.3072 2.97333 22.2658 2.78613L21.8655 1H17.9613L17.5701 2.74493C17.5442 2.93833 17.4056 3.1068 17.2055 3.16113C16.4011 3.37967 15.5327 3.7312 14.8185 4.14927C14.6615 4.24333 14.4586 4.24747 14.2935 4.14287L12.7447 3.16133L9.98631 5.91967L10.9641 7.46233C11.0634 7.6144 11.076 7.8154 10.9796 7.98387C10.5461 8.74113 10.2164 9.53293 9.98591 10.3802L9.98424 10.3797C9.93717 10.5527 9.7981 10.6943 9.61089 10.7357L7.82298 11.1363V15.0395L9.56922 15.4309C9.76263 15.4568 9.93111 15.5954 9.98538 15.7955C10.2041 16.6003 10.5554 17.4687 10.9738 18.1833C11.0679 18.3403 11.072 18.5432 10.9674 18.7083L9.98631 20.2562L12.7447 23.0145L14.2877 22.0366C14.4398 21.9373 14.6408 21.9247 14.8093 22.0211C15.5663 22.4544 16.3584 22.7842 17.2054 23.0147L17.2049 23.0163C17.3779 23.0634 17.5195 23.2025 17.5609 23.3897L17.9616 25.1777H21.8649L22.2563 23.4316C22.2823 23.2382 22.4209 23.0697 22.621 23.0155C23.4259 22.7968 24.2943 22.4455 25.009 22.0271C25.1659 21.9331 25.3689 21.9289 25.5339 22.0335L27.082 23.0146L29.8405 20.2563L28.8625 18.7135C28.7633 18.5614 28.7507 18.3604 28.8471 18.1919C29.2804 17.4348 29.6102 16.643 29.8407 15.7959L29.8423 15.7963C29.8894 15.6234 30.0285 15.4817 30.2157 15.4404L32.0038 15.0397V11.1365L30.2576 10.7452C30.0642 10.7193 29.8957 10.5807 29.8415 10.3805C29.6228 9.5756 29.2715 8.7074 28.853 7.99273C28.7589 7.8358 28.7548 7.63287 28.8594 7.46787L29.8405 5.91993L27.082 3.1616L25.5391 4.13947C25.387 4.23873 25.186 4.25127 25.0175 4.15493C24.6401 3.93853 24.2499 3.74633 23.849 3.58007ZM19.9133 5.08487C15.4933 5.08487 11.91 8.668 11.91 13.0878C11.91 17.5076 15.4933 21.0907 19.9133 21.0907C24.3334 21.0907 27.9167 17.5077 27.9167 13.0878C27.9167 8.66793 24.3334 5.08487 19.9133 5.08487ZM24.8655 8.13593C22.1305 5.40113 17.6961 5.40113 14.9612 8.13593C12.2262 10.8707 12.2262 15.3049 14.9612 18.0397C17.6962 20.7745 22.1305 20.7745 24.8655 18.0397C27.6005 15.3049 27.6005 10.8707 24.8655 8.13593ZM20.6528 8.28307C20.4214 7.5662 19.4054 7.56627 19.174 8.28307L18.2197 11.239L15.1121 11.2331C14.357 11.2315 14.0491 12.2003 14.6555 12.6391L17.1724 14.4602L16.2067 17.413C15.9741 18.1241 16.7931 18.7255 17.4027 18.2809L19.9134 16.4495L22.4241 18.2809C23.0339 18.7255 23.8527 18.1239 23.6202 17.413L22.6544 14.4601L25.1713 12.639C25.7776 12.2004 25.4699 11.2316 24.7146 11.233L21.607 11.2389L20.6528 8.28307ZM20.7073 11.6969L19.9133 9.2378L19.1195 11.6969C19.0146 12.0219 18.7217 12.236 18.3795 12.2354L15.7944 12.2305L17.8886 13.7457C18.1632 13.9445 18.2769 14.2941 18.1715 14.6162L17.3675 17.0744L19.4564 15.5507C19.7342 15.3481 20.0924 15.348 20.3703 15.5507L22.4592 17.0744L21.6552 14.6162C21.5498 14.2941 21.6634 13.9444 21.9381 13.7457L24.0323 12.2305L21.4472 12.2354C21.105 12.236 20.8121 12.0219 20.7073 11.6969ZM3.74782 23.8027H1.04519L1.00006 23.8479V31.9549L1.04519 32H3.74775L3.79289 31.9549V23.8479L3.74782 23.8027ZM10.0817 25.2493L13.5451 23.9653L13.5454 23.966C13.5606 23.9603 13.5532 23.9626 13.5504 23.9633C13.6709 23.917 13.8147 23.9344 13.9263 23.9898C14.3358 24.1929 14.3175 24.7875 13.8585 24.9577L13.8587 24.9583L11.4845 25.8191L10.0817 25.2493Z" fill="#5FC2D5"/>
</svg>
