<svg width="19" height="18" viewBox="0 0 19 18" fill="none" xmlns="http://www.w3.org/2000/svg">
<path d="M2.96316 8.26235C2.96316 8.26235 9.09985 5.75154 11.2282 4.86748C12.044 4.51385 14.8108 3.3822 14.8108 3.3822C14.8108 3.3822 16.0878 2.8872 15.9814 4.08945C15.9459 4.58454 15.6621 6.31732 15.3783 8.19157C14.9527 10.8439 14.4915 13.7435 14.4915 13.7435C14.4915 13.7435 14.4206 14.5569 13.8176 14.6984C13.2145 14.8399 12.2213 14.2033 12.044 14.0618C11.9021 13.9557 9.38363 12.3644 8.46141 11.5864C8.21307 11.3743 7.92929 10.9499 8.49685 10.4548C9.77382 9.28788 11.2991 7.83795 12.2214 6.91854C12.647 6.49413 13.0727 5.50395 11.2991 6.70629C8.78063 8.43907 6.29757 10.0658 6.29757 10.0658C6.29757 10.0658 5.7301 10.4194 4.66594 10.1012C3.60179 9.78289 2.36026 9.35857 2.36026 9.35857C2.36026 9.35857 1.50901 8.82804 2.96335 8.26235H2.96316Z" stroke="white" stroke-opacity="0.38"/>
</svg>
