<svg width="301" height="63" viewBox="0 0 301 63" fill="none" xmlns="http://www.w3.org/2000/svg">
<path d="M106.326 29.7228V7.23907H113.156V29.7228H106.326Z" fill="white"/>
<path d="M130.305 29.7228L121.984 17.6554V29.7228H115.154V7.23906H122.189L130.034 18.5649V7.23906H136.864V29.7228H130.305Z" fill="white"/>
<path d="M154.015 29.7228L145.695 17.6554V29.7228H138.864V7.23906H145.899L153.744 18.5649V7.23906H160.574V29.7228H154.015Z" fill="white"/>
<path d="M173.698 6.86713C180.665 6.86713 186.041 11.5866 186.041 18.4991C186.041 25.4116 180.665 30.1288 173.698 30.1288C166.732 30.1288 161.355 25.4116 161.355 18.4991C161.355 11.5866 166.732 6.86713 173.698 6.86713ZM173.698 12.8679C170.418 12.8679 168.288 15.3626 168.288 18.4991C168.288 21.6356 170.418 24.128 173.698 24.128C176.979 24.128 179.109 21.6333 179.109 18.4991C179.109 15.3649 176.979 12.8679 173.698 12.8679Z" fill="white"/>
<path d="M192.028 29.7228L183.71 7.23907H191.455L196.326 22.3726L201.195 7.23907H208.94L200.622 29.7228H192.031H192.028Z" fill="white"/>
<path d="M222.534 29.7228L221.656 26.8222H212.999L212.121 29.7228H204.715L213.033 7.23906H221.624L229.942 29.7228H222.537H222.534ZM217.326 13.2399L214.755 21.1616H219.895L217.324 13.2399H217.326Z" fill="white"/>
<path d="M232.309 29.7228V13.1718H226.255V7.23906H245.16V13.1718H239.139V29.7228H232.307H232.309Z" fill="white"/>
<path d="M245.94 29.7228V7.23906H252.77V29.7228H245.94Z" fill="white"/>
<path d="M265.893 6.86712C272.86 6.86712 278.236 11.5866 278.236 18.4991C278.236 25.4116 272.86 30.1288 265.893 30.1288C258.926 30.1288 253.55 25.4116 253.55 18.4991C253.55 11.5866 258.926 6.86712 265.893 6.86712ZM265.893 12.8679C262.612 12.8679 260.482 15.3626 260.482 18.4991C260.482 21.6356 262.612 24.128 265.893 24.128C269.174 24.128 271.303 21.6333 271.303 18.4991C271.303 15.3649 269.174 12.8679 265.893 12.8679Z" fill="white"/>
<path d="M294.167 29.7228L285.847 17.6554V29.7228H279.017V7.23907H286.052L293.897 18.5649V7.23907H300.727V29.7228H294.167Z" fill="white"/>
<path d="M105.11 44.0377C105.11 37.0935 110.454 32.4057 117.353 32.4057C123.441 32.4057 126.415 35.8438 127.768 38.9463L121.885 41.6746C121.309 39.9238 119.55 38.4043 117.353 38.4043C114.24 38.4043 112.042 40.899 112.042 44.0354C112.042 47.1719 114.24 49.6643 117.353 49.6643C119.55 49.6643 121.309 48.1471 121.885 46.394L127.768 49.0905C126.449 52.0887 123.439 55.6629 117.353 55.6629C110.454 55.6629 105.11 50.9457 105.11 44.0332V44.0377Z" fill="white"/>
<path d="M128.242 55.2637V32.7799H135.072V55.2637H128.242Z" fill="white"/>
<path d="M141.906 55.2637V38.7127H135.852V32.7799H154.756V38.7127H148.736V55.2637H141.904H141.906Z" fill="white"/>
<path d="M161.554 55.2637V46.3305L153.1 32.7799H160.776L164.969 40.3637L169.094 32.7799H176.771L168.385 46.3305V55.2637H161.554Z" fill="white"/>
<path d="M36.84 25.2891H62.1583C59.3598 10.8813 46.6415 0 31.3681 0C14.0425 0 0 13.9996 0 31.2673C0 48.5372 14.0448 62.5345 31.3681 62.5345C46.555 62.5345 59.2188 51.778 62.1128 37.4926H36.84V25.2891Z" fill="url(#paint0_linear_1173_920)"/>
<path d="M87.444 25.2891H62.1575C62.5329 27.2259 62.7377 29.2216 62.7377 31.2673C62.7377 33.3991 62.5215 35.481 62.1143 37.4926H87.4463V25.2891H87.444Z" fill="#5752A3"/>
<defs>
<linearGradient id="paint0_linear_1173_920" x1="15.5305" y1="31.2673" x2="77.6888" y2="31.2673" gradientUnits="userSpaceOnUse">
<stop stop-color="#85D2DB"/>
<stop offset="0.09" stop-color="#83CCD8"/>
<stop offset="0.2" stop-color="#81BCD2"/>
<stop offset="0.32" stop-color="#7CA2C7"/>
<stop offset="0.45" stop-color="#757EB7"/>
<stop offset="0.53" stop-color="#7165AD"/>
<stop offset="0.64" stop-color="#645CA8"/>
<stop offset="0.81" stop-color="#5A54A4"/>
<stop offset="1" stop-color="#5752A3"/>
</linearGradient>
</defs>
</svg>
