<svg width="34" height="34" viewBox="0 0 34 34" fill="none" xmlns="http://www.w3.org/2000/svg">
<g clip-path="url(#clip0_1456_2931)">
<path d="M33.7971 9.98943C33.7952 9.97661 33.7927 9.96386 33.7898 9.95118C33.5995 8.93762 33.2835 7.96802 32.8588 7.05885C32.8471 7.02419 32.8315 6.99072 32.8121 6.95884C32.4169 6.13282 31.9317 5.35779 31.3691 4.64671C31.3482 4.61171 31.3234 4.57851 31.2933 4.54836C31.2892 4.54431 31.2848 4.54086 31.2806 4.53694C30.7279 3.85462 30.1032 3.23292 29.4182 2.68334C29.4144 2.67923 29.4109 2.67491 29.4069 2.67086C29.376 2.63998 29.3418 2.61448 29.3057 2.59343C28.5918 2.03429 27.814 1.55318 26.9856 1.16211C26.9541 1.14279 26.9209 1.12745 26.8866 1.11582C25.9722 0.694144 24.9974 0.381836 23.9786 0.196828C23.9659 0.193973 23.9532 0.191582 23.9404 0.189723C23.2423 0.0650781 22.5239 0 21.7906 0C21.2266 0 20.6718 0.0393125 20.128 0.113621C20.1263 0.113754 20.1245 0.114152 20.1228 0.114352C14.966 0.821977 10.8255 4.76139 9.8171 9.81743C8.49349 10.0811 7.21882 10.5624 6.05014 11.2465C5.81227 11.3857 5.73239 11.6914 5.87157 11.9293C6.01083 12.1672 6.31656 12.247 6.5543 12.1079C7.52124 11.5418 8.56753 11.1272 9.6546 10.8736C9.60666 11.3124 9.58123 11.758 9.58123 12.2094C9.58123 12.942 9.64624 13.6598 9.77055 14.3572C9.77254 14.3709 9.775 14.3845 9.77812 14.398C9.96313 15.4164 10.2754 16.3909 10.6969 17.305C10.7085 17.3394 10.724 17.3727 10.7433 17.4043C11.1345 18.2326 11.6154 19.0104 12.1746 19.7243C12.1957 19.7604 12.2211 19.7946 12.2521 19.8255C12.256 19.8295 12.2603 19.8328 12.2644 19.8366C12.814 20.5217 13.4357 21.1464 14.1182 21.6992C14.1221 21.7034 14.1255 21.7078 14.1296 21.7119C14.1597 21.7419 14.1929 21.7668 14.2278 21.7876C14.9389 22.3503 15.714 22.8355 16.54 23.2306C16.5719 23.2502 16.6054 23.2657 16.64 23.2774C17.5493 23.7022 18.519 24.0182 19.5328 24.2085C19.5452 24.2114 19.5577 24.2138 19.5703 24.2157C20.2905 24.3486 21.0325 24.4186 21.7906 24.4186C22.2422 24.4186 22.6878 24.3932 23.1268 24.3452C21.9675 29.3003 17.5127 33.0018 12.2093 33.0018C6.02736 33.0018 0.997953 27.9724 0.997953 21.7904C0.997953 18.6732 2.24679 15.7775 4.51436 13.6366C4.71478 13.4474 4.72381 13.1316 4.53468 12.9312C4.34543 12.7307 4.0296 12.7217 3.82925 12.9108C2.63281 14.0404 1.69117 15.3735 1.03062 16.8732C0.34684 18.4262 0 20.0806 0 21.7906C0 28.5229 5.47719 34 12.2095 34C18.1232 34 23.0677 29.7736 24.1829 24.1828C29.2685 23.1684 33.2248 18.9855 33.8983 13.7867C33.8987 13.7836 33.8993 13.7806 33.8996 13.7776C33.9657 13.2641 34 12.7406 34 12.2094C34 11.4514 33.9299 10.7095 33.7971 9.98943ZM30.8856 5.66166C31.2187 6.12312 31.5181 6.61048 31.779 7.12061L22.9362 15.9634C22.6633 15.463 22.3561 14.984 22.0184 14.5289L30.8856 5.66166ZM30.2622 4.87349L21.3876 13.7481C21.0216 13.3309 20.628 12.9384 20.209 12.5744L29.0827 3.70069C29.504 4.0622 29.8985 4.45413 30.2622 4.87349ZM28.2915 3.08025L19.4243 11.9475C18.9672 11.6116 18.4862 11.3064 17.9839 11.0356L26.8253 2.19413C27.3377 2.45271 27.8278 2.74909 28.2915 3.08025ZM24.0323 1.22334C24.6584 1.35097 25.2656 1.53113 25.8493 1.75864L17.0327 10.5752C16.4697 10.3321 15.8852 10.1299 15.2825 9.97309L24.0323 1.22334ZM20.4086 1.08329C20.8616 1.0273 21.3228 0.99802 21.7907 0.99802C22.1309 0.99802 22.4675 1.01409 22.8002 1.04391L14.1141 9.73004C13.4933 9.63243 12.8572 9.58123 12.2095 9.58123C12.1081 9.58123 12.0068 9.58375 11.9056 9.58627L20.4086 1.08329ZM18.627 1.4533L11.0345 9.04579C12.1077 5.40328 14.9845 2.52643 18.627 1.4533ZM10.6253 13.219C10.5954 12.8862 10.5793 12.5497 10.5793 12.2094C10.5793 11.7415 10.6086 11.2803 10.6646 10.8273L10.826 10.6658C11.2835 10.6091 11.7454 10.5792 12.2095 10.5792C12.5498 10.5792 12.8863 10.5953 13.219 10.6251L10.6253 13.219ZM10.8046 14.451L14.451 10.8046C15.0771 10.9321 15.6843 11.1123 16.268 11.3399L11.3398 16.2681C11.1124 15.6844 10.9321 15.0771 10.8046 14.451ZM12.6615 18.7103C12.3303 18.2465 12.0339 17.7564 11.7754 17.2441L17.2442 11.7753C17.7565 12.0339 18.2466 12.3302 18.7104 12.6615L12.6615 18.7103ZM13.2819 19.5015L19.5015 13.2819C19.9227 13.6435 20.3173 14.0354 20.681 14.4547L14.4548 20.6809C14.0354 20.3173 13.6435 19.9227 13.2819 19.5015ZM15.2429 21.3043L21.3044 15.2429C21.6375 15.7043 21.9368 16.1916 22.1978 16.7018L16.7017 22.1978C16.1916 21.9368 15.7043 21.6374 15.2429 21.3043ZM19.4821 23.1812C18.8588 23.0503 18.2542 22.8677 17.6734 22.6376L22.6376 17.6734C22.8677 18.2542 23.0503 18.8588 23.1813 19.4821L19.4821 23.1812ZM23.346 23.0812L23.0812 23.346C22.6576 23.3948 22.2271 23.4208 21.7906 23.4208C21.425 23.4208 21.0635 23.4026 20.7067 23.3682L23.3682 20.7067C23.4026 21.0635 23.4208 21.4249 23.4208 21.7906C23.4208 22.2271 23.3949 22.6575 23.346 23.0812ZM24.0096 18.6538C23.8499 18.0535 23.6454 17.4714 23.4001 16.911L32.2189 8.09233C32.4489 8.67312 32.6315 9.27768 32.7625 9.90097L24.0096 18.6538ZM24.8395 22.9993L32.5806 15.2582C31.5236 18.9936 28.5748 21.9424 24.8395 22.9993ZM32.9273 13.4999L24.416 22.0111C24.4174 21.9377 24.4188 21.8643 24.4188 21.7905C24.4188 21.1185 24.3634 20.4593 24.2584 19.8165L32.9495 11.1255C32.9839 11.4822 33.002 11.8437 33.002 12.2094C33.002 12.6459 32.976 13.0764 32.9273 13.4999Z" fill="#5FC2D5"/>
</g>
<defs>
<clipPath id="clip0_1456_2931">
<rect width="34" height="34" fill="white"/>
</clipPath>
</defs>
</svg>
