<svg width="244" height="244" viewBox="0 0 244 244" fill="none" xmlns="http://www.w3.org/2000/svg">
<path d="M178.188 212.47H210.464" stroke="#5752A3" stroke-width="4" stroke-miterlimit="10" stroke-linecap="round" stroke-linejoin="round"/>
<path d="M227.365 212.47H236.393C239.06 212.47 241.221 210.308 241.221 207.641V168.795C241.221 159.258 233.49 151.526 223.953 151.526H172.177C163.999 151.526 157.153 157.211 155.366 164.843" stroke="#5752A3" stroke-width="4" stroke-miterlimit="10" stroke-linecap="round" stroke-linejoin="round"/>
<path d="M198.065 151.526V171.212" stroke="#5752A3" stroke-width="4" stroke-miterlimit="10" stroke-linejoin="round"/>
<path d="M2 191.748V207.641C2 210.308 4.16193 212.47 6.82897 212.47H65.0331V187.483C65.0331 174.98 75.1691 164.844 87.6723 164.844H87.8553C86.0681 157.212 79.222 151.526 71.0447 151.526H19.2689C9.73167 151.526 2 159.258 2 168.795V174.847" stroke="#5752A3" stroke-width="4" stroke-miterlimit="10" stroke-linecap="round" stroke-linejoin="round"/>
<path d="M45.1562 151.526V171.212" stroke="#5752A3" stroke-width="4" stroke-miterlimit="10" stroke-linejoin="round"/>
<path d="M103.722 164.843H87.6724C75.1692 164.843 65.0332 174.979 65.0332 187.482V237.171C65.0332 239.838 67.1951 242 69.8622 242H173.36C176.027 242 178.189 239.838 178.189 237.171V187.483C178.189 174.98 168.053 164.843 155.55 164.843H139.5" stroke="#5752A3" stroke-width="4" stroke-miterlimit="10" stroke-linejoin="round"/>
<path d="M103.723 154.897V174.408C103.723 176.068 105.571 177.06 106.953 176.141L121.611 166.407L136.269 176.141C137.652 177.059 139.5 176.068 139.5 174.408V154.897" stroke="#5752A3" stroke-width="4" stroke-miterlimit="10" stroke-linejoin="round"/>
<path d="M121.611 166.407V189.606" stroke="#5752A3" stroke-width="4" stroke-miterlimit="10" stroke-linecap="round" stroke-linejoin="round"/>
<path d="M121.611 206.507V242" stroke="#5752A3" stroke-width="4" stroke-miterlimit="10" stroke-linecap="round" stroke-linejoin="round"/>
<path d="M45.1562 86.7484V59.6057" stroke="#5752A3" stroke-width="4" stroke-miterlimit="10" stroke-linecap="round" stroke-linejoin="round"/>
<path d="M198.065 86.7484V59.6057" stroke="#5752A3" stroke-width="4" stroke-miterlimit="10" stroke-linecap="round" stroke-linejoin="round"/>
<path d="M121.611 84.0038V80.71" stroke="#5FC2D5" stroke-width="4" stroke-miterlimit="10" stroke-linecap="round" stroke-linejoin="round"/>
<path d="M101.11 78.5102L102.757 75.6577" stroke="#5FC2D5" stroke-width="4" stroke-miterlimit="10" stroke-linecap="round" stroke-linejoin="round"/>
<path d="M86.1025 63.5034L88.9545 61.8567" stroke="#5FC2D5" stroke-width="4" stroke-miterlimit="10" stroke-linecap="round" stroke-linejoin="round"/>
<path d="M80.6094 43.0015H83.9032" stroke="#5FC2D5" stroke-width="4" stroke-miterlimit="10" stroke-linecap="round" stroke-linejoin="round"/>
<path d="M86.1025 22.501L88.9545 24.1477" stroke="#5FC2D5" stroke-width="4" stroke-miterlimit="10" stroke-linecap="round" stroke-linejoin="round"/>
<path d="M101.11 7.49292L102.757 10.3454" stroke="#5FC2D5" stroke-width="4" stroke-miterlimit="10" stroke-linecap="round" stroke-linejoin="round"/>
<path d="M121.611 2V5.29336" stroke="#5FC2D5" stroke-width="4" stroke-miterlimit="10" stroke-linecap="round" stroke-linejoin="round"/>
<path d="M142.112 7.49292L140.465 10.3454" stroke="#5FC2D5" stroke-width="4" stroke-miterlimit="10" stroke-linecap="round" stroke-linejoin="round"/>
<path d="M157.12 22.501L154.268 24.1477" stroke="#5FC2D5" stroke-width="4" stroke-miterlimit="10" stroke-linecap="round" stroke-linejoin="round"/>
<path d="M162.613 43.0017H159.319" stroke="#5FC2D5" stroke-width="4" stroke-miterlimit="10" stroke-linecap="round" stroke-linejoin="round"/>
<path d="M157.119 63.5026L154.267 61.8555" stroke="#5FC2D5" stroke-width="4" stroke-miterlimit="10" stroke-linecap="round" stroke-linejoin="round"/>
<path d="M142.112 78.5102L140.466 75.6582" stroke="#5FC2D5" stroke-width="4" stroke-miterlimit="10" stroke-linecap="round" stroke-linejoin="round"/>
<path d="M198.718 59.6063C205.923 59.6063 211.765 53.765 211.765 46.5594C211.765 39.3538 205.923 33.5125 198.718 33.5125C191.512 33.5125 185.671 39.3538 185.671 46.5594C185.671 53.765 191.512 59.6063 198.718 59.6063Z" stroke="#5752A3" stroke-width="4" stroke-miterlimit="10" stroke-linecap="round" stroke-linejoin="round"/>
<path d="M45.8086 59.6063C53.0143 59.6063 58.8556 53.765 58.8556 46.5594C58.8556 39.3538 53.0143 33.5125 45.8086 33.5125C38.603 33.5125 32.7617 39.3538 32.7617 46.5594C32.7617 53.765 38.603 59.6063 45.8086 59.6063Z" stroke="#5752A3" stroke-width="4" stroke-miterlimit="10" stroke-linecap="round" stroke-linejoin="round"/>
<path d="M123.762 20.7307L130.077 29.9226C130.415 30.4157 130.913 30.7773 131.487 30.9468L142.181 34.1127C143.936 34.6323 144.625 36.7513 143.51 38.2033L136.72 47.05C136.355 47.5247 136.165 48.1095 136.181 48.7073L136.475 59.856C136.523 61.6862 134.72 62.9958 132.995 62.3844L122.483 58.6598C121.919 58.4599 121.304 58.4599 120.74 58.6598L110.228 62.3844C108.502 62.9958 106.7 61.6862 106.748 59.856L107.042 48.7073C107.058 48.1095 106.867 47.5242 106.503 47.05L99.7128 38.2033C98.5982 36.7513 99.2864 34.6323 101.042 34.1127L111.736 30.9468C112.31 30.7769 112.807 30.4157 113.146 29.9226L119.461 20.7307C120.497 19.2216 122.725 19.2216 123.762 20.7307Z" stroke="#5FC2D5" stroke-width="4" stroke-miterlimit="10" stroke-linecap="round" stroke-linejoin="round"/>
<path d="M45.157 151.526C58.0384 151.526 68.4809 141.083 68.4809 128.202C68.4809 115.32 58.0384 104.878 45.157 104.878C32.2755 104.878 21.833 115.32 21.833 128.202C21.833 141.083 32.2755 151.526 45.157 151.526Z" stroke="#5752A3" stroke-width="4" stroke-miterlimit="10" stroke-linejoin="round"/>
<path d="M121.611 160.683C138.498 160.683 152.188 146.994 152.188 130.106C152.188 113.219 138.498 99.5293 121.611 99.5293C104.724 99.5293 91.0342 113.219 91.0342 130.106C91.0342 146.994 104.724 160.683 121.611 160.683Z" stroke="#5752A3" stroke-width="4" stroke-miterlimit="10" stroke-linejoin="round"/>
<path d="M198.065 151.526C210.947 151.526 221.389 141.083 221.389 128.202C221.389 115.32 210.947 104.878 198.065 104.878C185.184 104.878 174.741 115.32 174.741 128.202C174.741 141.083 185.184 151.526 198.065 151.526Z" stroke="#5752A3" stroke-width="4" stroke-miterlimit="10" stroke-linejoin="round"/>
</svg>
