<svg width="25" height="24" viewBox="0 0 25 24" fill="none" xmlns="http://www.w3.org/2000/svg">
<path fill-rule="evenodd" clip-rule="evenodd" d="M3.52569 12C3.52569 7.30558 7.35845 3.5 12.0864 3.5C16.8143 3.5 20.6471 7.30558 20.6471 12C20.6471 16.6944 16.8143 20.5 12.0864 20.5C10.4022 20.5 8.83459 20.0182 7.51192 19.1861C7.26577 19.0313 6.96414 18.9899 6.68492 19.0726L3.7852 19.9319L4.87699 17.3953C5.00603 17.0955 4.97977 16.7521 4.80663 16.4751C3.9947 15.176 3.52569 13.6439 3.52569 12ZM12.0864 1.5C6.24599 1.5 1.51141 6.20101 1.51141 12C1.51141 13.8381 1.98793 15.5683 2.82535 17.0727L1.08886 21.107C0.935348 21.4637 1.00339 21.8763 1.26345 22.1657C1.5235 22.4552 1.92866 22.5692 2.30299 22.4582L6.83455 21.1155C8.38257 21.9965 10.1765 22.5 12.0864 22.5C17.9268 22.5 22.6614 17.799 22.6614 12C22.6614 6.20101 17.9268 1.5 12.0864 1.5ZM14.3953 14.1824L13.0717 15.1081C12.4518 14.7575 11.7664 14.2681 11.0789 13.5855C10.3643 12.8759 9.83443 12.1433 9.44376 11.4713L10.2849 10.7624C10.6459 10.4582 10.7447 9.94533 10.5223 9.53028L9.45053 7.53028C9.30621 7.26097 9.04598 7.0718 8.74383 7.01654C8.44167 6.96129 8.13064 7.046 7.89916 7.24659L7.5814 7.52195C6.81725 8.18414 6.36531 9.2723 6.73988 10.3741C7.1282 11.5163 7.95693 13.314 9.65466 14.9997C11.4812 16.8133 13.3366 17.5275 14.4215 17.8049C15.2957 18.0283 16.123 17.7288 16.7059 17.2572L17.3017 16.7752C17.5565 16.5691 17.694 16.2524 17.67 15.9269C17.6459 15.6014 17.4634 15.308 17.181 15.1409L15.4907 14.1409C15.1493 13.939 14.7203 13.9552 14.3953 14.1824Z" fill="white"/>
</svg>
