<svg width="141" height="42" viewBox="0 0 141 42" fill="none" xmlns="http://www.w3.org/2000/svg">
<rect width="141" height="42" rx="21" fill="url(#paint0_linear_727_34)"/>
<path d="M49.3502 25V16.6H50.6342L55.9022 23.068H55.2662V16.6H56.8142V25H55.5302L50.2622 18.532H50.8982V25H49.3502ZM61.933 25.084C61.221 25.084 60.597 24.944 60.061 24.664C59.533 24.376 59.121 23.984 58.825 23.488C58.537 22.992 58.393 22.428 58.393 21.796C58.393 21.156 58.533 20.592 58.813 20.104C59.101 19.608 59.493 19.22 59.989 18.94C60.493 18.66 61.065 18.52 61.705 18.52C62.329 18.52 62.885 18.656 63.373 18.928C63.861 19.2 64.245 19.584 64.525 20.08C64.805 20.576 64.945 21.16 64.945 21.832C64.945 21.896 64.941 21.968 64.933 22.048C64.933 22.128 64.929 22.204 64.921 22.276H59.581V21.28H64.129L63.541 21.592C63.549 21.224 63.473 20.9 63.313 20.62C63.153 20.34 62.933 20.12 62.653 19.96C62.381 19.8 62.065 19.72 61.705 19.72C61.337 19.72 61.013 19.8 60.733 19.96C60.461 20.12 60.245 20.344 60.085 20.632C59.933 20.912 59.857 21.244 59.857 21.628V21.868C59.857 22.252 59.945 22.592 60.121 22.888C60.297 23.184 60.545 23.412 60.865 23.572C61.185 23.732 61.553 23.812 61.969 23.812C62.329 23.812 62.653 23.756 62.941 23.644C63.229 23.532 63.485 23.356 63.709 23.116L64.513 24.04C64.225 24.376 63.861 24.636 63.421 24.82C62.989 24.996 62.493 25.084 61.933 25.084ZM69.3979 25.084C68.6859 25.084 68.0619 24.944 67.5259 24.664C66.9979 24.376 66.5859 23.984 66.2899 23.488C66.0019 22.992 65.8579 22.428 65.8579 21.796C65.8579 21.156 65.9979 20.592 66.2779 20.104C66.5659 19.608 66.9579 19.22 67.4539 18.94C67.9579 18.66 68.5299 18.52 69.1699 18.52C69.7939 18.52 70.3499 18.656 70.8379 18.928C71.3259 19.2 71.7099 19.584 71.9899 20.08C72.2699 20.576 72.4099 21.16 72.4099 21.832C72.4099 21.896 72.4059 21.968 72.3979 22.048C72.3979 22.128 72.3939 22.204 72.3859 22.276H67.0459V21.28H71.5939L71.0059 21.592C71.0139 21.224 70.9379 20.9 70.7779 20.62C70.6179 20.34 70.3979 20.12 70.1179 19.96C69.8459 19.8 69.5299 19.72 69.1699 19.72C68.8019 19.72 68.4779 19.8 68.1979 19.96C67.9259 20.12 67.7099 20.344 67.5499 20.632C67.3979 20.912 67.3219 21.244 67.3219 21.628V21.868C67.3219 22.252 67.4099 22.592 67.5859 22.888C67.7619 23.184 68.0099 23.412 68.3299 23.572C68.6499 23.732 69.0179 23.812 69.4339 23.812C69.7939 23.812 70.1179 23.756 70.4059 23.644C70.6939 23.532 70.9499 23.356 71.1739 23.116L71.9779 24.04C71.6899 24.376 71.3259 24.636 70.8859 24.82C70.4539 24.996 69.9579 25.084 69.3979 25.084ZM76.5627 25.084C75.9467 25.084 75.3907 24.948 74.8947 24.676C74.4067 24.396 74.0227 24.012 73.7427 23.524C73.4627 23.036 73.3227 22.46 73.3227 21.796C73.3227 21.132 73.4627 20.556 73.7427 20.068C74.0227 19.58 74.4067 19.2 74.8947 18.928C75.3907 18.656 75.9467 18.52 76.5627 18.52C77.0987 18.52 77.5787 18.64 78.0027 18.88C78.4267 19.112 78.7627 19.468 79.0107 19.948C79.2587 20.428 79.3827 21.044 79.3827 21.796C79.3827 22.54 79.2627 23.156 79.0227 23.644C78.7827 24.124 78.4507 24.484 78.0267 24.724C77.6027 24.964 77.1147 25.084 76.5627 25.084ZM76.7427 23.8C77.1027 23.8 77.4227 23.72 77.7027 23.56C77.9907 23.4 78.2187 23.168 78.3867 22.864C78.5627 22.56 78.6507 22.204 78.6507 21.796C78.6507 21.38 78.5627 21.024 78.3867 20.728C78.2187 20.424 77.9907 20.192 77.7027 20.032C77.4227 19.872 77.1027 19.792 76.7427 19.792C76.3827 19.792 76.0587 19.872 75.7707 20.032C75.4907 20.192 75.2627 20.424 75.0867 20.728C74.9187 21.024 74.8347 21.38 74.8347 21.796C74.8347 22.204 74.9187 22.56 75.0867 22.864C75.2627 23.168 75.4907 23.4 75.7707 23.56C76.0587 23.72 76.3827 23.8 76.7427 23.8ZM78.6867 25V23.488L78.7467 21.784L78.6267 20.08V16.096H80.1147V25H78.6867ZM91.4534 16.6H93.0134V25H91.4534V16.6ZM87.1094 25H85.5494V16.6H87.1094V25ZM91.5734 21.4H86.9774V20.068H91.5734V21.4ZM98.1322 25.084C97.4202 25.084 96.7962 24.944 96.2602 24.664C95.7322 24.376 95.3202 23.984 95.0242 23.488C94.7362 22.992 94.5922 22.428 94.5922 21.796C94.5922 21.156 94.7322 20.592 95.0122 20.104C95.3002 19.608 95.6922 19.22 96.1882 18.94C96.6922 18.66 97.2642 18.52 97.9042 18.52C98.5282 18.52 99.0842 18.656 99.5722 18.928C100.06 19.2 100.444 19.584 100.724 20.08C101.004 20.576 101.144 21.16 101.144 21.832C101.144 21.896 101.14 21.968 101.132 22.048C101.132 22.128 101.128 22.204 101.12 22.276H95.7802V21.28H100.328L99.7402 21.592C99.7482 21.224 99.6722 20.9 99.5122 20.62C99.3522 20.34 99.1322 20.12 98.8522 19.96C98.5802 19.8 98.2642 19.72 97.9042 19.72C97.5362 19.72 97.2122 19.8 96.9322 19.96C96.6602 20.12 96.4442 20.344 96.2842 20.632C96.1322 20.912 96.0562 21.244 96.0562 21.628V21.868C96.0562 22.252 96.1442 22.592 96.3202 22.888C96.4962 23.184 96.7442 23.412 97.0642 23.572C97.3842 23.732 97.7522 23.812 98.1682 23.812C98.5282 23.812 98.8522 23.756 99.1402 23.644C99.4282 23.532 99.6842 23.356 99.9082 23.116L100.712 24.04C100.424 24.376 100.06 24.636 99.6202 24.82C99.1882 24.996 98.6922 25.084 98.1322 25.084ZM102.585 25V16.096H104.085V25H102.585ZM109.606 25.084C109.086 25.084 108.61 24.964 108.178 24.724C107.754 24.484 107.414 24.124 107.158 23.644C106.91 23.156 106.786 22.54 106.786 21.796C106.786 21.044 106.906 20.428 107.146 19.948C107.394 19.468 107.73 19.112 108.154 18.88C108.578 18.64 109.062 18.52 109.606 18.52C110.238 18.52 110.794 18.656 111.274 18.928C111.762 19.2 112.146 19.58 112.426 20.068C112.714 20.556 112.858 21.132 112.858 21.796C112.858 22.46 112.714 23.04 112.426 23.536C112.146 24.024 111.762 24.404 111.274 24.676C110.794 24.948 110.238 25.084 109.606 25.084ZM106.054 27.328V18.592H107.482V20.104L107.434 21.808L107.554 23.512V27.328H106.054ZM109.438 23.8C109.798 23.8 110.118 23.72 110.398 23.56C110.686 23.4 110.914 23.168 111.082 22.864C111.25 22.56 111.334 22.204 111.334 21.796C111.334 21.38 111.25 21.024 111.082 20.728C110.914 20.424 110.686 20.192 110.398 20.032C110.118 19.872 109.798 19.792 109.438 19.792C109.078 19.792 108.754 19.872 108.466 20.032C108.178 20.192 107.95 20.424 107.782 20.728C107.614 21.024 107.53 21.38 107.53 21.796C107.53 22.204 107.614 22.56 107.782 22.864C107.95 23.168 108.178 23.4 108.466 23.56C108.754 23.72 109.078 23.8 109.438 23.8ZM115.421 22.216C115.421 21.92 115.469 21.66 115.565 21.436C115.661 21.212 115.785 21.012 115.937 20.836C116.089 20.66 116.249 20.496 116.417 20.344C116.593 20.192 116.757 20.044 116.909 19.9C117.061 19.756 117.185 19.604 117.281 19.444C117.377 19.284 117.425 19.104 117.425 18.904C117.425 18.568 117.289 18.296 117.017 18.088C116.745 17.88 116.381 17.776 115.925 17.776C115.485 17.776 115.101 17.856 114.773 18.016C114.453 18.176 114.185 18.404 113.969 18.7L112.805 17.944C113.141 17.488 113.581 17.132 114.125 16.876C114.669 16.612 115.313 16.48 116.057 16.48C116.641 16.48 117.153 16.568 117.593 16.744C118.033 16.912 118.377 17.16 118.625 17.488C118.873 17.808 118.997 18.2 118.997 18.664C118.997 18.984 118.945 19.264 118.841 19.504C118.745 19.744 118.617 19.956 118.457 20.14C118.305 20.316 118.141 20.484 117.965 20.644C117.789 20.796 117.621 20.948 117.461 21.1C117.309 21.252 117.185 21.416 117.089 21.592C116.993 21.768 116.945 21.976 116.945 22.216H115.421ZM116.189 25.084C115.909 25.084 115.677 24.992 115.493 24.808C115.317 24.624 115.229 24.404 115.229 24.148C115.229 23.892 115.317 23.676 115.493 23.5C115.677 23.316 115.909 23.224 116.189 23.224C116.469 23.224 116.697 23.316 116.873 23.5C117.049 23.676 117.137 23.892 117.137 24.148C117.137 24.404 117.049 24.624 116.873 24.808C116.697 24.992 116.469 25.084 116.189 25.084Z" fill="white"/>
<path fill-rule="evenodd" clip-rule="evenodd" d="M20.5257 21C20.5257 16.3056 24.3585 12.5 29.0864 12.5C33.8143 12.5 37.6471 16.3056 37.6471 21C37.6471 25.6944 33.8143 29.5 29.0864 29.5C27.4022 29.5 25.8346 29.0182 24.5119 28.1861C24.2658 28.0313 23.9641 27.9899 23.6849 28.0726L20.7852 28.9319L21.877 26.3953C22.006 26.0955 21.9798 25.7521 21.8066 25.4751C20.9947 24.176 20.5257 22.6439 20.5257 21ZM29.0864 10.5C23.246 10.5 18.5114 15.201 18.5114 21C18.5114 22.8381 18.9879 24.5683 19.8254 26.0727L18.0889 30.107C17.9353 30.4637 18.0034 30.8763 18.2634 31.1657C18.5235 31.4552 18.9287 31.5692 19.303 31.4582L23.8345 30.1155C25.3826 30.9965 27.1765 31.5 29.0864 31.5C34.9268 31.5 39.6614 26.799 39.6614 21C39.6614 15.201 34.9268 10.5 29.0864 10.5ZM31.3953 23.1824L30.0717 24.1081C29.4518 23.7575 28.7664 23.2681 28.0789 22.5855C27.3643 21.8759 26.8344 21.1433 26.4438 20.4713L27.2849 19.7624C27.6459 19.4582 27.7447 18.9453 27.5223 18.5303L26.4505 16.5303C26.3062 16.261 26.046 16.0718 25.7438 16.0165C25.4417 15.9613 25.1306 16.046 24.8992 16.2466L24.5814 16.5219C23.8172 17.1841 23.3653 18.2723 23.7399 19.3741C24.1282 20.5163 24.9569 22.314 26.6547 23.9997C28.4812 25.8133 30.3366 26.5275 31.4215 26.8049C32.2957 27.0283 33.123 26.7288 33.7059 26.2572L34.3017 25.7752C34.5565 25.5691 34.694 25.2524 34.67 24.9269C34.6459 24.6014 34.4634 24.308 34.181 24.1409L32.4907 23.1409C32.1493 22.939 31.7203 22.9552 31.3953 23.1824Z" fill="white"/>
<defs>
<linearGradient id="paint0_linear_727_34" x1="0" y1="21" x2="141" y2="21" gradientUnits="userSpaceOnUse">
<stop stop-color="#7ECA7E"/>
<stop offset="1" stop-color="#1FA12D"/>
</linearGradient>
</defs>
</svg>
