<svg width="42" height="42" viewBox="0 0 42 42" fill="none" xmlns="http://www.w3.org/2000/svg">
<circle cx="21" cy="21" r="21" fill="url(#paint0_linear_726_29)"/>
<path fill-rule="evenodd" clip-rule="evenodd" d="M11.0833 21C11.0833 15.5232 15.5232 11.0833 21 11.0833C26.4768 11.0833 30.9166 15.5232 30.9166 21C30.9166 26.4768 26.4768 30.9167 21 30.9167C19.0491 30.9167 17.2331 30.3546 15.7009 29.3838C15.4158 29.2032 15.0664 29.1549 14.7429 29.2514L11.3839 30.2539L12.6486 27.2945C12.7981 26.9447 12.7677 26.5441 12.5671 26.2209C11.6266 24.7053 11.0833 22.9179 11.0833 21ZM21 8.75C14.2345 8.75 8.74998 14.2345 8.74998 21C8.74998 23.1444 9.30198 25.163 10.2721 26.9181L8.26051 31.6248C8.08268 32.041 8.16151 32.5224 8.46275 32.86C8.764 33.1977 9.23333 33.3307 9.66695 33.2012L14.9163 31.6347C16.7095 32.6626 18.7876 33.25 21 33.25C27.7655 33.25 33.25 27.7655 33.25 21C33.25 14.2345 27.7655 8.75 21 8.75ZM23.6745 23.5461L22.1413 24.6261C21.4232 24.2171 20.6293 23.6461 19.8329 22.8497C19.0051 22.0219 18.3913 21.1672 17.9388 20.3832L18.9131 19.5561C19.3313 19.2012 19.4457 18.6029 19.1881 18.1187L17.9466 15.7853C17.7794 15.4711 17.478 15.2504 17.128 15.186C16.7779 15.1215 16.4177 15.2203 16.1495 15.4544L15.7814 15.7756C14.8962 16.5482 14.3727 17.8177 14.8066 19.1031C15.2564 20.4357 16.2164 22.533 18.1831 24.4996C20.2989 26.6155 22.4481 27.4487 23.705 27.7724C24.7177 28.033 25.676 27.6836 26.3512 27.1334L27.0413 26.5711C27.3365 26.3306 27.4957 25.9611 27.468 25.5814C27.4401 25.2016 27.2287 24.8593 26.9015 24.6644L24.9435 23.4977C24.548 23.2622 24.051 23.2811 23.6745 23.5461Z" fill="white"/>
<defs>
<linearGradient id="paint0_linear_726_29" x1="21" y1="0" x2="21" y2="42" gradientUnits="userSpaceOnUse">
<stop stop-color="#74C676"/>
<stop offset="1" stop-color="#22A230"/>
</linearGradient>
</defs>
</svg>
