<svg width="225" height="48" viewBox="0 0 225 48" fill="none" xmlns="http://www.w3.org/2000/svg">
<g clip-path="url(#clip0_336_311)">
<path d="M76.6289 21.5704V4.31055H81.8421V21.5704H76.6289Z" fill="#101010"/>
<path d="M94.9304 21.5704L88.5828 12.3076V21.5704H83.3696V4.31055H88.7373L94.7274 13.0068V4.31055H99.9406V21.5704H94.9348H94.9304Z" fill="#101010"/>
<path d="M113.02 21.5704L106.672 12.3076V21.5704H101.459V4.31055H106.827L112.817 13.0068V4.31055H118.03V21.5704H113.024H113.02Z" fill="#101010"/>
<path d="M128.045 4.0273C133.36 4.0273 137.465 7.65186 137.465 12.9537C137.465 18.2556 133.36 21.8801 128.045 21.8801C122.731 21.8801 118.625 18.2556 118.625 12.9537C118.625 7.65186 122.731 4.0273 128.045 4.0273ZM128.045 8.63434C125.543 8.63434 123.918 10.5506 123.918 12.9537C123.918 15.3568 125.547 17.2775 128.045 17.2775C130.544 17.2775 132.173 15.3612 132.173 12.9537C132.173 10.5462 130.544 8.63434 128.045 8.63434Z" fill="#101010"/>
<path d="M142.03 21.5704L135.682 4.31055H141.593L145.31 15.9277L149.026 4.31055H154.937L148.589 21.5704H142.034H142.03Z" fill="#101010"/>
<path d="M165.315 21.5704L164.644 19.3443H158.036L157.365 21.5704H151.715L158.062 4.31055H164.618L170.965 21.5704H165.311H165.315ZM161.338 8.91759L159.378 14.9984H163.302L161.342 8.91759H161.338Z" fill="#101010"/>
<path d="M172.771 21.5704V8.86448H168.149V4.31055H182.579V8.86448H177.984V21.5704H172.771Z" fill="#101010"/>
<path d="M183.175 21.5704V4.31055H188.388V21.5704H183.175Z" fill="#101010"/>
<path d="M198.399 4.0273C203.714 4.0273 207.819 7.65186 207.819 12.9537C207.819 18.2556 203.714 21.8801 198.399 21.8801C193.085 21.8801 188.979 18.2556 188.979 12.9537C188.979 7.65186 193.085 4.0273 198.399 4.0273ZM198.399 8.63434C195.897 8.63434 194.272 10.5506 194.272 12.9537C194.272 15.3568 195.901 17.2775 198.399 17.2775C200.898 17.2775 202.527 15.3612 202.527 12.9537C202.527 10.5462 200.898 8.63434 198.399 8.63434Z" fill="#101010"/>
<path d="M219.98 21.5704L213.633 12.3076V21.5704H208.419V4.31055H213.787L219.777 13.0068V4.31055H224.99V21.5704H219.985H219.98Z" fill="#101010"/>
<path d="M75.7021 32.5591C75.7021 27.2307 79.7809 23.6327 85.047 23.6327C89.6952 23.6327 91.9641 26.2703 92.997 28.6513L88.5033 30.749C88.0619 29.4037 86.72 28.2397 85.0426 28.2397C82.6678 28.2397 80.9904 30.156 80.9904 32.5591C80.9904 34.9622 82.6678 36.8829 85.0426 36.8829C86.72 36.8829 88.0619 35.719 88.5033 34.3736L92.997 36.4448C91.9906 38.7461 89.6908 41.49 85.047 41.49C79.7809 41.49 75.7021 37.8654 75.7021 32.5635V32.5591Z" fill="#101010"/>
<path d="M93.3545 41.1757V23.9159H98.5677V41.1757H93.3545Z" fill="#101010"/>
<path d="M103.781 41.1757V28.4699H99.1592V23.9159H113.589V28.4699H108.994V41.1757H103.781Z" fill="#101010"/>
<path d="M118.776 41.1757V34.3205L112.322 23.9159H118.18L121.38 29.74L124.532 23.9159H130.39L123.989 34.3205V41.1757H118.776Z" fill="#101010"/>
<path d="M28.3729 19.4107H47.6939C45.5574 8.3511 35.8505 0 24.197 0C10.9765 0 0.258789 10.7453 0.258789 24C0.258789 37.2547 10.9765 48 24.197 48C35.7887 48 45.4514 39.7418 47.6585 28.7796H28.3729V19.4107Z" fill="url(#paint0_linear_336_311)"/>
<path d="M66.9929 19.4107H47.694C47.9809 20.8977 48.1354 22.4289 48.1354 24C48.1354 25.5711 47.9721 27.2351 47.6587 28.7796H66.9885V19.4107H66.9929Z" fill="#5752A3"/>
</g>
<defs>
<linearGradient id="paint0_linear_336_311" x1="12.1109" y1="24" x2="59.546" y2="24" gradientUnits="userSpaceOnUse">
<stop stop-color="#85D2DB"/>
<stop offset="0.09" stop-color="#83CCD8"/>
<stop offset="0.2" stop-color="#81BCD2"/>
<stop offset="0.32" stop-color="#7CA2C7"/>
<stop offset="0.45" stop-color="#757EB7"/>
<stop offset="0.53" stop-color="#7165AD"/>
<stop offset="0.64" stop-color="#645CA8"/>
<stop offset="0.81" stop-color="#5A54A4"/>
<stop offset="1" stop-color="#5752A3"/>
</linearGradient>
<clipPath id="clip0_336_311">
<rect width="224.727" height="48" fill="white"/>
</clipPath>
</defs>
</svg>
