<svg width="72" height="72" viewBox="0 0 72 72" fill="none" xmlns="http://www.w3.org/2000/svg">
<rect width="72" height="72" rx="36" fill="url(#paint0_linear_10165_1466)" fill-opacity="0.5"/>
<rect x="0.5" y="0.5" width="71" height="71" rx="35.5" stroke="white" stroke-opacity="0.18"/>
<path d="M22.6665 39.3334C22.3511 39.3345 22.0419 39.2461 21.7747 39.0784C21.5076 38.9107 21.2935 38.6707 21.1574 38.3862C21.0213 38.1017 20.9686 37.7844 21.0057 37.4712C21.0427 37.158 21.1678 36.8617 21.3665 36.6168L37.8665 19.6168C37.9903 19.4739 38.1589 19.3774 38.3448 19.343C38.5307 19.3086 38.7227 19.3385 38.8894 19.4276C39.0561 19.5168 39.1875 19.6599 39.262 19.8336C39.3366 20.0073 39.35 20.2012 39.2998 20.3834L36.0998 30.4168C36.0055 30.6693 35.9738 30.941 36.0075 31.2085C36.0412 31.4759 36.1393 31.7312 36.2933 31.9525C36.4474 32.1737 36.6528 32.3543 36.8919 32.4787C37.1311 32.6031 37.3969 32.6677 37.6665 32.6668H49.3332C49.6485 32.6657 49.9578 32.7541 50.2249 32.9218C50.492 33.0895 50.7061 33.3295 50.8422 33.614C50.9784 33.8985 51.031 34.2158 50.994 34.529C50.957 34.8422 50.8319 35.1385 50.6332 35.3834L34.1332 52.3834C34.0094 52.5263 33.8407 52.6228 33.6549 52.6572C33.469 52.6916 33.277 52.6618 33.1103 52.5726C32.9436 52.4834 32.8122 52.3403 32.7376 52.1666C32.663 51.9929 32.6497 51.799 32.6998 51.6168L35.8998 41.5834C35.9942 41.3309 36.0259 41.0592 35.9922 40.7918C35.9585 40.5243 35.8604 40.269 35.7063 40.0477C35.5523 39.8265 35.3469 39.6459 35.1077 39.5215C34.8685 39.3971 34.6027 39.3326 34.3332 39.3334H22.6665Z" stroke="white" stroke-width="2" stroke-linecap="round" stroke-linejoin="round"/>
<defs>
<linearGradient id="paint0_linear_10165_1466" x1="6.11321" y1="11.2075" x2="65.2075" y2="58.7547" gradientUnits="userSpaceOnUse">
<stop stop-color="#5752A3" stop-opacity="0"/>
<stop offset="1" stop-color="#5752A3"/>
</linearGradient>
</defs>
</svg>
