<svg width="72" height="72" viewBox="0 0 72 72" fill="none" xmlns="http://www.w3.org/2000/svg">
<rect width="72" height="72" rx="36" fill="url(#paint0_linear_10165_1478)" fill-opacity="0.5"/>
<rect x="0.5" y="0.5" width="71" height="71" rx="35.5" stroke="white" stroke-opacity="0.18"/>
<path d="M35.9997 52.6667C45.2044 52.6667 52.6663 45.2048 52.6663 36C52.6663 26.7953 45.2044 19.3334 35.9997 19.3334C26.7949 19.3334 19.333 26.7953 19.333 36C19.333 45.2048 26.7949 52.6667 35.9997 52.6667Z" stroke="white" stroke-width="2" stroke-linecap="round" stroke-linejoin="round"/>
<path d="M35.9997 19.3334C31.7201 23.827 29.333 29.7946 29.333 36C29.333 42.2055 31.7201 48.1731 35.9997 52.6667C40.2793 48.1731 42.6663 42.2055 42.6663 36C42.6663 29.7946 40.2793 23.827 35.9997 19.3334Z" stroke="white" stroke-width="2" stroke-linecap="round" stroke-linejoin="round"/>
<path d="M19.333 36H52.6663" stroke="white" stroke-width="2" stroke-linecap="round" stroke-linejoin="round"/>
<defs>
<linearGradient id="paint0_linear_10165_1478" x1="6.11321" y1="11.2075" x2="65.2075" y2="58.7547" gradientUnits="userSpaceOnUse">
<stop stop-color="#5752A3" stop-opacity="0"/>
<stop offset="1" stop-color="#5752A3"/>
</linearGradient>
</defs>
</svg>
