<svg width="36" height="36" viewBox="0 0 36 36" fill="none" xmlns="http://www.w3.org/2000/svg">
<path d="M35.3118 18.3925C35.3118 17.1152 35.1939 15.8773 34.9778 14.6982H18.0195V21.6741H27.7071C27.2748 23.9142 25.9976 25.8203 24.0915 27.0976V31.6368H29.9473C33.3468 28.4928 35.3118 23.8749 35.3118 18.3925Z" fill="#4285F4"/>
<path d="M18.0203 36.0001C22.8739 36.0001 26.9612 34.3888 29.948 31.6377L24.0922 27.0985C22.4809 28.1793 20.4373 28.8277 18.0203 28.8277C13.3435 28.8277 9.35446 25.664 7.93963 21.3999H1.94629V26.057C4.91349 31.9325 10.9854 35.9804 18.0203 35.9804V36.0001Z" fill="#34A853"/>
<path d="M7.9191 21.3993C7.56539 20.3185 7.34924 19.1788 7.34924 17.9801C7.34924 16.7814 7.56539 15.6417 7.9191 14.5609V9.90381H1.92574C0.707419 12.3208 0 15.0522 0 17.9801C0 20.908 0.707419 23.6394 1.92574 26.0564L6.60251 22.4211L7.9191 21.3993Z" fill="#FBBC05"/>
<path d="M18.0203 7.15272C20.6731 7.15272 23.0311 8.07629 24.9175 9.84482L30.0659 4.69643C26.9415 1.78818 22.8739 0 18.0203 0C10.9854 0 4.91349 4.04797 1.94629 9.94307L7.93963 14.6002C9.35446 10.3361 13.3435 7.17237 18.0203 7.17237V7.15272Z" fill="#EA4335"/>
</svg>
