<svg width="72" height="72" viewBox="0 0 72 72" fill="none" xmlns="http://www.w3.org/2000/svg">
<rect width="72" height="72" rx="36" fill="url(#paint0_linear_10165_1471)" fill-opacity="0.5"/>
<rect x="0.5" y="0.5" width="71" height="71" rx="35.5" stroke="white" stroke-opacity="0.18"/>
<path d="M48.3563 40.0232C50.9997 37.3799 52.6663 35.1666 52.6663 31.8332C52.6663 29.9786 52.1037 28.1676 51.0528 26.6394C50.0019 25.1112 48.5121 23.9377 46.7803 23.2739C45.0485 22.6101 43.1561 22.4873 41.353 22.9217C39.5499 23.356 37.921 24.327 36.6813 25.7066M48.3563 40.0232C48.0276 40.352 47.6373 40.6128 47.2078 40.7908C46.7783 40.9687 46.3179 41.0603 45.853 41.0603C45.3881 41.0603 44.9277 40.9687 44.4982 40.7908C44.0687 40.6128 43.6784 40.352 43.3497 40.0232C43.7056 40.3451 43.9924 40.7359 44.1926 41.172C44.3928 41.6081 44.5022 42.0803 44.5143 42.56C44.5263 43.0397 44.4407 43.5169 44.2627 43.9625C44.0846 44.4081 43.8178 44.8128 43.4785 45.1521C43.1392 45.4914 42.7345 45.7582 42.2889 45.9362C41.8433 46.1143 41.3662 46.1999 40.8865 46.1878C40.4068 46.1758 39.9345 46.0663 39.4984 45.8661C39.0623 45.6659 38.6715 45.3792 38.3497 45.0232C38.6787 45.351 38.9399 45.7403 39.1183 46.1691C39.2967 46.5978 39.3888 47.0575 39.3895 47.5219C39.3901 47.9862 39.2991 48.4462 39.1219 48.8754C38.9446 49.3046 38.6845 49.6947 38.3563 50.0232C38.0396 50.3401 37.6623 50.5898 37.2469 50.7575C36.8316 50.9252 36.3866 51.0075 35.9388 50.9994C35.4909 50.9913 35.0492 50.893 34.6402 50.7104C34.2311 50.5278 33.8631 50.2646 33.558 49.9366L24.333 40.9999C21.833 38.4999 19.333 35.6666 19.333 31.8332C19.3334 29.9787 19.8962 28.1679 20.9473 26.64C21.9983 25.1121 23.4881 23.9388 25.2198 23.2753C26.9515 22.6117 28.8438 22.489 30.6468 22.9234C32.4497 23.3578 34.0785 24.3288 35.318 25.7082C35.5033 25.8805 35.747 25.9761 36 25.9758C36.253 25.9754 36.4965 25.8793 36.6813 25.7066M48.3563 40.0232C48.9812 39.3982 49.3323 38.5505 49.3323 37.6666C49.3323 36.7827 48.9812 35.935 48.3563 35.3099L45.2213 32.1732C44.8483 31.8001 44.4055 31.5041 43.918 31.3021C43.4306 31.1001 42.9081 30.9962 42.3805 30.9962C41.8529 30.9962 41.3304 31.1001 40.843 31.3021C40.3556 31.5041 39.9127 31.8001 39.5397 32.1732L36.6897 35.0232C36.0646 35.6482 35.2169 35.9992 34.333 35.9992C33.4491 35.9992 32.6014 35.6482 31.9763 35.0232C31.3514 34.3982 31.0004 33.5505 31.0004 32.6666C31.0004 31.7827 31.3514 30.935 31.9763 30.3099L36.6813 25.7066" stroke="white" stroke-width="2" stroke-linecap="round" stroke-linejoin="round"/>
<defs>
<linearGradient id="paint0_linear_10165_1471" x1="6.11321" y1="11.2075" x2="65.2075" y2="58.7547" gradientUnits="userSpaceOnUse">
<stop stop-color="#5752A3" stop-opacity="0"/>
<stop offset="1" stop-color="#5752A3"/>
</linearGradient>
</defs>
</svg>
