<svg width="72" height="72" viewBox="0 0 72 72" fill="none" xmlns="http://www.w3.org/2000/svg">
<rect width="72" height="72" rx="36" fill="url(#paint0_linear_4586_4844)" fill-opacity="0.5"/>
<rect x="0.5" y="0.5" width="71" height="71" rx="35.5" stroke="white" stroke-opacity="0.18"/>
<path d="M41.8333 28.5L45.6666 32.3333C45.9782 32.6387 46.3971 32.8097 46.8333 32.8097C47.2696 32.8097 47.6884 32.6387 48 32.3333L51.5 28.8333C51.8054 28.5217 51.9764 28.1029 51.9764 27.6666C51.9764 27.2304 51.8054 26.8115 51.5 26.5L47.6666 22.6666" stroke="white" stroke-width="2" stroke-linecap="round" stroke-linejoin="round"/>
<path d="M51 19.3334L35 35.3334" stroke="white" stroke-width="2" stroke-linecap="round" stroke-linejoin="round"/>
<path d="M28.5 51C33.5626 51 37.6666 46.8959 37.6666 41.8333C37.6666 36.7707 33.5626 32.6666 28.5 32.6666C23.4374 32.6666 19.3333 36.7707 19.3333 41.8333C19.3333 46.8959 23.4374 51 28.5 51Z" stroke="white" stroke-width="2" stroke-linecap="round" stroke-linejoin="round"/>
<defs>
<linearGradient id="paint0_linear_4586_4844" x1="6.11321" y1="11.2075" x2="65.2075" y2="58.7547" gradientUnits="userSpaceOnUse">
<stop stop-color="#5752A3" stop-opacity="0"/>
<stop offset="1" stop-color="#5752A3"/>
</linearGradient>
</defs>
</svg>
