<svg width="109" height="16" viewBox="0 0 109 16" fill="none" xmlns="http://www.w3.org/2000/svg">
<path d="M108.966 6.08025C108.944 6.00438 108.888 5.93935 108.821 5.88516C108.765 5.83097 108.675 5.78762 108.596 5.77678L104.111 5.14816C103.82 5.10481 103.54 4.99643 103.293 4.82301C103.057 4.66044 102.856 4.43284 102.732 4.17272L100.725 0.249279C100.68 0.173411 100.624 0.108382 100.557 0.0650288C100.479 0.0216759 100.4 0 100.31 0C100.221 0 100.142 0.0216759 100.064 0.0650288C99.9966 0.108382 99.9405 0.173411 99.8956 0.249279L97.8998 4.17272C97.7653 4.43284 97.5635 4.66044 97.328 4.82301C97.0814 4.99643 96.8011 5.10481 96.5095 5.14816L92.0246 5.77678C91.9462 5.78762 91.8677 5.83097 91.8004 5.88516C91.7331 5.92852 91.6771 6.00438 91.6546 6.08025C91.6322 6.16696 91.621 6.24282 91.6546 6.32953C91.6771 6.4054 91.7219 6.48127 91.7892 6.53546L95.0295 9.59184C95.2425 9.78693 95.3995 10.0362 95.4892 10.318C95.5789 10.589 95.6013 10.8816 95.5565 11.1634L94.7941 15.477C94.7716 15.5637 94.7828 15.6396 94.8165 15.7154C94.8501 15.8021 94.9062 15.8672 94.9734 15.9105C95.0407 15.9647 95.1304 15.9864 95.2089 15.9972C95.2986 16.0081 95.3883 15.9864 95.4556 15.943L99.4696 13.9055C99.7275 13.7754 100.019 13.7104 100.322 13.7104C100.624 13.7104 100.916 13.7754 101.174 13.9055L105.188 15.943C105.266 15.9864 105.345 16.0081 105.434 15.9972C105.524 15.9972 105.603 15.9647 105.67 15.9105C105.737 15.8672 105.793 15.8021 105.827 15.7263C105.861 15.6396 105.872 15.5637 105.849 15.477L105.087 11.1634C105.042 10.8816 105.064 10.589 105.154 10.318C105.244 10.0362 105.401 9.78693 105.614 9.59184L108.865 6.53546C108.865 6.53546 108.966 6.4054 108.989 6.32953C109 6.29702 109 6.2645 109 6.23199C109 6.18863 108.989 6.13444 108.978 6.08025H108.966ZM82.696 9.59184L85.9364 6.53546C86.0036 6.48127 86.0485 6.4054 86.0709 6.32953C86.0933 6.24282 86.0821 6.16696 86.0597 6.08025C86.0261 6.00438 85.9812 5.93935 85.9139 5.88516C85.8467 5.83097 85.7682 5.78762 85.6897 5.77678L81.2048 5.14816C80.9133 5.10481 80.633 4.99643 80.3863 4.82301C80.1508 4.66044 79.949 4.43284 79.8145 4.17272L77.8187 0.249279C77.7739 0.173411 77.7178 0.108382 77.6505 0.0650288C77.572 0.0216759 77.4935 0 77.4038 0C77.3141 0 77.2356 0.0216759 77.1572 0.0650288C77.0899 0.108382 77.0338 0.173411 76.989 0.249279L74.982 4.17272C74.8587 4.43284 74.6568 4.66044 74.4214 4.82301C74.1747 4.99643 73.8944 5.10481 73.6029 5.14816L69.118 5.77678C69.0395 5.78762 68.9498 5.83097 68.8937 5.88516C68.8265 5.92852 68.7704 6.00438 68.748 6.08025C68.7255 6.16696 68.7143 6.24282 68.7368 6.32953C68.7592 6.4054 68.804 6.48127 68.8601 6.53546L72.1116 9.59184C72.3247 9.78693 72.4817 10.0362 72.5714 10.318C72.6611 10.589 72.6835 10.8816 72.6386 11.1634L71.8762 15.477C71.8538 15.5637 71.865 15.6396 71.8986 15.7154C71.9323 15.8021 71.9883 15.8672 72.0556 15.9105C72.1229 15.9647 72.2014 15.9864 72.291 15.9972C72.3807 16.0081 72.4592 15.9864 72.5377 15.943L76.5517 13.9055C76.8096 13.7754 77.1011 13.7104 77.4038 13.7104C77.7066 13.7104 77.9981 13.7754 78.256 13.9055L82.27 15.943C82.3372 15.9864 82.4269 16.0081 82.5166 15.9972C82.5951 15.9972 82.6848 15.9647 82.7521 15.9105C82.8194 15.8672 82.8754 15.8021 82.9091 15.7263C82.9427 15.6396 82.9539 15.5637 82.9315 15.477L82.169 11.1634C82.1242 10.8816 82.1466 10.589 82.2363 10.318C82.326 10.0362 82.483 9.78693 82.696 9.59184ZM63.0073 5.88516C62.94 5.83097 62.8615 5.78762 62.7831 5.77678L58.2982 5.14816C57.9954 5.10481 57.7151 4.99643 57.4796 4.82301C57.233 4.66044 57.0424 4.43284 56.9078 4.17272L54.912 0.249279C54.8672 0.173411 54.8111 0.108382 54.7326 0.0650288C54.6654 0.0216759 54.5757 0 54.4972 0C54.4075 0 54.329 0.0216759 54.2505 0.0650288C54.1833 0.108382 54.116 0.173411 54.0823 0.249279L52.0753 4.17272C51.952 4.43284 51.7502 4.66044 51.5147 4.82301C51.2681 4.99643 50.9878 5.10481 50.6962 5.14816L46.2113 5.77678C46.1216 5.78762 46.0431 5.83097 45.9759 5.88516C45.9086 5.92852 45.8638 6.00438 45.8413 6.08025C45.8077 6.16696 45.8077 6.24282 45.8301 6.32953C45.8525 6.4054 45.8974 6.48127 45.9534 6.53546L49.1938 9.59184C49.4068 9.78693 49.575 10.0362 49.6647 10.318C49.7544 10.589 49.7768 10.8816 49.732 11.1634L48.9583 15.477C48.9471 15.5637 48.9583 15.6396 48.992 15.7154C49.0256 15.8021 49.0817 15.8672 49.1489 15.9105C49.2162 15.9647 49.2947 15.9864 49.3844 15.9972C49.4741 16.0081 49.5526 15.9864 49.6311 15.943L53.6338 13.9055C53.9029 13.7754 54.1945 13.7104 54.4972 13.7104C54.7999 13.7104 55.0914 13.7754 55.3493 13.9055L59.3521 15.943C59.4306 15.9864 59.5203 16.0081 59.61 15.9972C59.6885 15.9972 59.7782 15.9647 59.8454 15.9105C59.9127 15.8672 59.9688 15.8021 60.0024 15.7263C60.036 15.6396 60.036 15.5637 60.0248 15.477L59.2624 11.1634C59.2063 10.8816 59.2288 10.589 59.3297 10.318C59.4194 10.0362 59.5764 9.78693 59.7894 9.59184L63.0297 6.53546C63.097 6.48127 63.1418 6.4054 63.1531 6.32953C63.1755 6.24282 63.1755 6.16696 63.1531 6.08025C63.1194 6.00438 63.0746 5.93935 63.0073 5.88516ZM40.1006 5.88516C40.0334 5.83097 39.9549 5.78762 39.8652 5.77678L35.3915 5.14816C35.0888 5.10481 34.8085 4.99643 34.573 4.82301C34.3263 4.66044 34.1357 4.43284 34.0012 4.17272L31.9942 0.249279C31.9605 0.173411 31.9045 0.108382 31.826 0.0650288C31.7587 0.0216759 31.669 0 31.5905 0C31.5008 0 31.4111 0.0216759 31.3439 0.0650288C31.2766 0.108382 31.2093 0.173411 31.1757 0.249279L29.1687 4.17272C29.0341 4.43284 28.8435 4.66044 28.5969 4.82301C28.3614 4.99643 28.0811 5.10481 27.7896 5.14816L23.3047 5.77678C23.215 5.78762 23.1365 5.83097 23.0692 5.88516C23.002 5.92852 22.9571 6.00438 22.9347 6.08025C22.901 6.16696 22.901 6.24282 22.9235 6.32953C22.9459 6.4054 22.9907 6.48127 23.0468 6.53546L26.2871 9.59184C26.5002 9.78693 26.6684 10.0362 26.7581 10.318C26.8478 10.589 26.8702 10.8816 26.8253 11.1634L26.0517 15.477C26.0405 15.5637 26.0517 15.6396 26.0853 15.7154C26.119 15.8021 26.1638 15.8672 26.2423 15.9105C26.3096 15.9647 26.3881 15.9864 26.4778 15.9972C26.5562 16.0081 26.6459 15.9864 26.7244 15.943L30.7272 13.9055C30.9963 13.7754 31.2878 13.7104 31.5905 13.7104C31.8933 13.7104 32.1736 13.7754 32.4427 13.9055L36.4454 15.943C36.5239 15.9864 36.6136 16.0081 36.6921 15.9972C36.7818 15.9972 36.8715 15.9647 36.9388 15.9105C37.0061 15.8672 37.0621 15.8021 37.0958 15.7263C37.1294 15.6396 37.1294 15.5637 37.1182 15.477L36.3558 11.1634C36.2997 10.8816 36.3221 10.589 36.4118 10.318C36.5127 10.0362 36.6697 9.78693 36.8827 9.59184L40.1231 6.53546C40.1903 6.48127 40.2352 6.4054 40.2464 6.32953C40.2688 6.24282 40.2688 6.16696 40.2464 6.08025C40.2128 6.00438 40.1679 5.93935 40.1006 5.88516ZM13.9761 9.59184L17.2164 6.53546C17.2164 6.53546 17.3173 6.4054 17.3398 6.32953C17.3622 6.24282 17.3622 6.16696 17.3286 6.08025C17.3061 6.00438 17.2613 5.93935 17.194 5.88516C17.1267 5.83097 17.0482 5.78762 16.9585 5.77678L12.4736 5.14816C12.1821 5.10481 11.9018 4.99643 11.6664 4.82301C11.4197 4.66044 11.2291 4.43284 11.0945 4.17272L9.08753 0.249279C9.0539 0.173411 8.99784 0.108382 8.91936 0.0650288C8.85208 0.0216759 8.76238 0 8.67268 0C8.5942 0 8.5045 0.0216759 8.43723 0.0650288C8.35874 0.108382 8.30268 0.173411 8.26904 0.249279L6.26205 4.17272C6.1275 4.43284 5.93689 4.66044 5.69022 4.82301C5.45476 4.99643 5.17446 5.10481 4.87173 5.14816L0.398031 5.77678C0.308333 5.78762 0.229848 5.83097 0.162575 5.88516C0.0953011 5.92852 0.0504552 6.00438 0.0168184 6.08025C-0.00560613 6.16696 -0.00560613 6.24282 0.0168184 6.32953C0.0280307 6.4054 0.0728804 6.48127 0.140154 6.53546L3.3805 9.59184C3.59353 9.78693 3.7505 10.0362 3.85141 10.318C3.94111 10.589 3.96354 10.8816 3.90747 11.1634L3.14504 15.477C3.14504 15.5637 3.14504 15.6396 3.17868 15.7154C3.2011 15.8021 3.25716 15.8672 3.32443 15.9105C3.40292 15.9647 3.48141 15.9864 3.5711 15.9972C3.64959 16.0081 3.73929 15.9864 3.81777 15.943L7.82055 13.9055C8.08965 13.7754 8.38117 13.7104 8.67268 13.7104C8.9642 13.7104 9.26693 13.7754 9.53603 13.9055L13.5388 15.943C13.6173 15.9864 13.707 16.0081 13.7855 15.9972C13.8752 15.9972 13.9537 15.9647 14.0321 15.9105C14.0994 15.8672 14.1555 15.8021 14.1779 15.7263C14.2115 15.6396 14.2227 15.5637 14.2115 15.477L13.4491 11.1634C13.393 10.8816 13.4155 10.589 13.5052 10.318C13.6061 10.0362 13.763 9.78693 13.9761 9.59184Z" fill="#FFA84B"/>
</svg>
