<svg width="16" height="14" viewBox="0 0 16 14" fill="none" xmlns="http://www.w3.org/2000/svg">
<path d="M1.9631 6.26235C1.9631 6.26235 8.09979 3.75154 10.2281 2.86748C11.0439 2.51385 13.8108 1.3822 13.8108 1.3822C13.8108 1.3822 15.0877 0.887197 14.9813 2.08945C14.9458 2.58454 14.662 4.31732 14.3782 6.19157C13.9526 8.84385 13.4914 11.7435 13.4914 11.7435C13.4914 11.7435 13.4206 12.5569 12.8176 12.6984C12.2145 12.8399 11.2213 12.2033 11.0439 12.0618C10.9021 11.9557 8.38357 10.3644 7.46135 9.58645C7.21301 9.37429 6.92923 8.94988 7.49679 8.45479C8.77376 7.28788 10.2991 5.83795 11.2213 4.91854C11.6469 4.49413 12.0726 3.50395 10.2991 4.70629C7.78057 6.43907 5.29751 8.06582 5.29751 8.06582C5.29751 8.06582 4.73004 8.41945 3.66588 8.10117C2.60173 7.78289 1.3602 7.35857 1.3602 7.35857C1.3602 7.35857 0.508945 6.82804 1.96329 6.26235H1.9631Z" stroke="white" stroke-opacity="0.38"/>
</svg>
