<svg width="24" height="24" viewBox="0 0 24 24" fill="none" xmlns="http://www.w3.org/2000/svg">
<path d="M10.5 22H6C5.46957 22 4.96086 21.7893 4.58579 21.4142C4.21071 21.0391 4 20.5304 4 20V4.00001C4 3.46957 4.21071 2.96087 4.58579 2.58579C4.96086 2.21072 5.46957 2.00001 6 2.00001H14C14.3169 1.99923 14.6308 2.06122 14.9236 2.18239C15.2164 2.30357 15.4823 2.48153 15.706 2.70601L19.294 6.29401C19.5185 6.51768 19.6964 6.78359 19.8176 7.0764C19.9388 7.36921 20.0008 7.68312 20 8.00001V14" stroke="#5EBED3" stroke-width="1.5" stroke-linecap="round" stroke-linejoin="round"/>
<path d="M14 2V7C14 7.26522 14.1054 7.51957 14.2929 7.70711C14.4804 7.89464 14.7348 8 15 8H20" stroke="#5EBED3" stroke-width="1.5" stroke-linecap="round" stroke-linejoin="round"/>
<path d="M14 20L16 22L20 18" stroke="#5EBED3" stroke-width="1.5" stroke-linecap="round" stroke-linejoin="round"/>
</svg>
