<svg width="278" height="81" viewBox="0 0 278 81" fill="none" xmlns="http://www.w3.org/2000/svg">
<path d="M5.20006 15.06C4.16006 15.06 3.16006 14.8933 2.20006 14.56C1.25339 14.2133 0.520059 13.7733 5.86361e-05 13.24L0.580059 12.1C1.07339 12.58 1.73339 12.9867 2.56006 13.32C3.40006 13.64 4.28006 13.8 5.20006 13.8C6.08006 13.8 6.79339 13.6933 7.34006 13.48C7.90006 13.2533 8.30673 12.9533 8.56006 12.58C8.82673 12.2067 8.96006 11.7933 8.96006 11.34C8.96006 10.7933 8.80006 10.3533 8.48006 10.02C8.17339 9.68667 7.76673 9.42667 7.26006 9.24C6.75339 9.04 6.19339 8.86667 5.58006 8.72C4.96673 8.57334 4.35339 8.42 3.74006 8.26C3.12673 8.08667 2.56006 7.86 2.04006 7.58C1.53339 7.3 1.12006 6.93334 0.800059 6.48C0.493392 6.01334 0.340059 5.40667 0.340059 4.66C0.340059 3.96667 0.520059 3.33334 0.880059 2.76C1.25339 2.17333 1.82006 1.70667 2.58006 1.36C3.34006 1 4.31339 0.820002 5.50006 0.820002C6.28673 0.820002 7.06673 0.933335 7.84006 1.16C8.61339 1.37334 9.28006 1.67333 9.84006 2.06L9.34006 3.24C8.74006 2.84 8.10006 2.54667 7.42006 2.36C6.75339 2.17334 6.10673 2.08 5.48006 2.08C4.64006 2.08 3.94673 2.19334 3.40006 2.42C2.85339 2.64667 2.44673 2.95334 2.18006 3.34C1.92673 3.71333 1.80006 4.14 1.80006 4.62C1.80006 5.16667 1.95339 5.60667 2.26006 5.94C2.58006 6.27334 2.99339 6.53334 3.50006 6.72C4.02006 6.90667 4.58673 7.07334 5.20006 7.22C5.81339 7.36667 6.42006 7.52667 7.02006 7.7C7.63339 7.87334 8.19339 8.1 8.70006 8.38C9.22006 8.64667 9.63339 9.00667 9.94006 9.46C10.2601 9.91334 10.4201 10.5067 10.4201 11.24C10.4201 11.92 10.2334 12.5533 9.86006 13.14C9.48673 13.7133 8.91339 14.18 8.14006 14.54C7.38006 14.8867 6.40006 15.06 5.20006 15.06ZM16.8647 15.04C15.8781 15.04 15.1181 14.7733 14.5847 14.24C14.0514 13.7067 13.7847 12.9533 13.7847 11.98V2.12H15.2047V11.9C15.2047 12.5133 15.3581 12.9867 15.6647 13.32C15.9847 13.6533 16.4381 13.82 17.0247 13.82C17.6514 13.82 18.1714 13.64 18.5847 13.28L19.0847 14.3C18.8047 14.5533 18.4647 14.74 18.0647 14.86C17.6781 14.98 17.2781 15.04 16.8647 15.04ZM11.9047 5.62V4.44H18.4047V5.62H11.9047ZM28.4497 14.94V12.62L28.3897 12.24V8.36C28.3897 7.46667 28.1364 6.78 27.6297 6.3C27.1364 5.82 26.3964 5.58 25.4097 5.58C24.7297 5.58 24.0831 5.69334 23.4697 5.92C22.8564 6.14667 22.3364 6.44667 21.9097 6.82L21.2697 5.76C21.8031 5.30667 22.4431 4.96 23.1897 4.72C23.9364 4.46667 24.7231 4.34 25.5497 4.34C26.9097 4.34 27.9564 4.68 28.6897 5.36C29.4364 6.02667 29.8097 7.04667 29.8097 8.42V14.94H28.4497ZM24.8297 15.04C24.0431 15.04 23.3564 14.9133 22.7697 14.66C22.1964 14.3933 21.7564 14.0333 21.4497 13.58C21.1431 13.1133 20.9897 12.58 20.9897 11.98C20.9897 11.4333 21.1164 10.94 21.3697 10.5C21.6364 10.0467 22.0631 9.68667 22.6497 9.42C23.2497 9.14 24.0497 9 25.0497 9H28.6697V10.06H25.0897C24.0764 10.06 23.3697 10.24 22.9697 10.6C22.5831 10.96 22.3897 11.4067 22.3897 11.94C22.3897 12.54 22.6231 13.02 23.0897 13.38C23.5564 13.74 24.2097 13.92 25.0497 13.92C25.8497 13.92 26.5364 13.74 27.1097 13.38C27.6964 13.0067 28.1231 12.4733 28.3897 11.78L28.7097 12.76C28.4431 13.4533 27.9764 14.0067 27.3097 14.42C26.6564 14.8333 25.8297 15.04 24.8297 15.04ZM33.8666 14.94V4.44H35.2266V7.3L35.0866 6.8C35.38 6 35.8733 5.39334 36.5666 4.98C37.26 4.55334 38.12 4.34 39.1466 4.34V5.72C39.0933 5.72 39.04 5.72 38.9866 5.72C38.9333 5.70667 38.88 5.7 38.8266 5.7C37.72 5.7 36.8533 6.04 36.2266 6.72C35.6 7.38667 35.2866 8.34 35.2866 9.58V14.94H33.8666ZM45.7069 15.04C44.7203 15.04 43.9603 14.7733 43.4269 14.24C42.8936 13.7067 42.6269 12.9533 42.6269 11.98V2.12H44.0469V11.9C44.0469 12.5133 44.2003 12.9867 44.5069 13.32C44.8269 13.6533 45.2803 13.82 45.8669 13.82C46.4936 13.82 47.0136 13.64 47.4269 13.28L47.9269 14.3C47.6469 14.5533 47.3069 14.74 46.9069 14.86C46.5203 14.98 46.1203 15.04 45.7069 15.04ZM40.7469 5.62V4.44H47.2469V5.62H40.7469ZM50.7119 14.94V4.44H52.1319V14.94H50.7119ZM51.4319 2.12C51.1386 2.12 50.8919 2.02 50.6919 1.82C50.4919 1.62 50.3919 1.38 50.3919 1.1C50.3919 0.820001 50.4919 0.586668 50.6919 0.400001C50.8919 0.200001 51.1386 0.100002 51.4319 0.100002C51.7253 0.100002 51.9719 0.193335 52.1719 0.380002C52.3719 0.566668 52.4719 0.800002 52.4719 1.08C52.4719 1.37334 52.3719 1.62 52.1719 1.82C51.9853 2.02 51.7386 2.12 51.4319 2.12ZM61.643 4.34C62.4964 4.34 63.243 4.50667 63.883 4.84C64.5364 5.16 65.043 5.65334 65.403 6.32C65.7764 6.98667 65.963 7.82667 65.963 8.84V14.94H64.543V8.98C64.543 7.87334 64.263 7.04 63.703 6.48C63.1564 5.90667 62.383 5.62 61.383 5.62C60.6364 5.62 59.983 5.77334 59.423 6.08C58.8764 6.37334 58.4497 6.80667 58.143 7.38C57.8497 7.94 57.703 8.62 57.703 9.42V14.94H56.283V4.44H57.643V7.32L57.423 6.78C57.7564 6.02 58.2897 5.42667 59.023 5C59.7564 4.56 60.6297 4.34 61.643 4.34ZM74.4787 18.92C73.5187 18.92 72.5987 18.78 71.7187 18.5C70.8387 18.22 70.1253 17.82 69.5787 17.3L70.2987 16.22C70.792 16.66 71.3987 17.0067 72.1187 17.26C72.852 17.5267 73.6253 17.66 74.4387 17.66C75.772 17.66 76.752 17.3467 77.3787 16.72C78.0053 16.1067 78.3187 15.1467 78.3187 13.84V11.22L78.5187 9.42L78.3787 7.62V4.44H79.7387V13.66C79.7387 15.4733 79.292 16.8 78.3987 17.64C77.5187 18.4933 76.212 18.92 74.4787 18.92ZM74.2187 14.54C73.2187 14.54 72.3187 14.3267 71.5187 13.9C70.7187 13.46 70.0853 12.8533 69.6187 12.08C69.1653 11.3067 68.9387 10.42 68.9387 9.42C68.9387 8.42 69.1653 7.54 69.6187 6.78C70.0853 6.00667 70.7187 5.40667 71.5187 4.98C72.3187 4.55334 73.2187 4.34 74.2187 4.34C75.152 4.34 75.992 4.53334 76.7387 4.92C77.4853 5.30667 78.0787 5.88 78.5187 6.64C78.9587 7.4 79.1787 8.32667 79.1787 9.42C79.1787 10.5133 78.9587 11.44 78.5187 12.2C78.0787 12.96 77.4853 13.54 76.7387 13.94C75.992 14.34 75.152 14.54 74.2187 14.54ZM74.3587 13.28C75.132 13.28 75.8187 13.12 76.4187 12.8C77.0187 12.4667 77.492 12.0133 77.8387 11.44C78.1853 10.8533 78.3587 10.18 78.3587 9.42C78.3587 8.66 78.1853 7.99334 77.8387 7.42C77.492 6.84667 77.0187 6.4 76.4187 6.08C75.8187 5.74667 75.132 5.58 74.3587 5.58C73.5987 5.58 72.912 5.74667 72.2987 6.08C71.6987 6.4 71.2253 6.84667 70.8787 7.42C70.5453 7.99334 70.3787 8.66 70.3787 9.42C70.3787 10.18 70.5453 10.8533 70.8787 11.44C71.2253 12.0133 71.6987 12.4667 72.2987 12.8C72.912 13.12 73.5987 13.28 74.3587 13.28ZM89.5644 14.94V3.12C89.5644 2.18667 89.8378 1.43334 90.3844 0.860001C90.9311 0.286668 91.7178 1.66893e-06 92.7444 1.66893e-06C93.1444 1.66893e-06 93.5311 0.0533351 93.9044 0.160002C94.2778 0.266669 94.5911 0.433335 94.8444 0.660002L94.3644 1.72C94.1644 1.54667 93.9311 1.42 93.6644 1.34C93.3978 1.24667 93.1111 1.2 92.8044 1.2C92.2044 1.2 91.7444 1.36667 91.4244 1.7C91.1044 2.03334 90.9444 2.52667 90.9444 3.18V4.78L90.9844 5.44V14.94H89.5644ZM87.6844 5.62V4.44H94.1844V5.62H87.6844ZM96.3018 14.94V4.44H97.6618V7.3L97.5218 6.8C97.8151 6 98.3084 5.39334 99.0018 4.98C99.6951 4.55334 100.555 4.34 101.582 4.34V5.72C101.528 5.72 101.475 5.72 101.422 5.72C101.368 5.70667 101.315 5.7 101.262 5.7C100.155 5.7 99.2884 6.04 98.6618 6.72C98.0351 7.38667 97.7218 8.34 97.7218 9.58V14.94H96.3018ZM108.555 15.04C107.542 15.04 106.629 14.8133 105.815 14.36C105.015 13.8933 104.382 13.26 103.915 12.46C103.449 11.6467 103.215 10.72 103.215 9.68C103.215 8.62667 103.449 7.7 103.915 6.9C104.382 6.1 105.015 5.47334 105.815 5.02C106.615 4.56667 107.529 4.34 108.555 4.34C109.595 4.34 110.515 4.56667 111.315 5.02C112.129 5.47334 112.762 6.1 113.215 6.9C113.682 7.7 113.915 8.62667 113.915 9.68C113.915 10.72 113.682 11.6467 113.215 12.46C112.762 13.26 112.129 13.8933 111.315 14.36C110.502 14.8133 109.582 15.04 108.555 15.04ZM108.555 13.78C109.315 13.78 109.989 13.6133 110.575 13.28C111.162 12.9333 111.622 12.4533 111.955 11.84C112.302 11.2133 112.475 10.4933 112.475 9.68C112.475 8.85334 112.302 8.13334 111.955 7.52C111.622 6.90667 111.162 6.43334 110.575 6.1C109.989 5.75334 109.322 5.58 108.575 5.58C107.829 5.58 107.162 5.75334 106.575 6.1C105.989 6.43334 105.522 6.90667 105.175 7.52C104.829 8.13334 104.655 8.85334 104.655 9.68C104.655 10.4933 104.829 11.2133 105.175 11.84C105.522 12.4533 105.989 12.9333 106.575 13.28C107.162 13.6133 107.822 13.78 108.555 13.78ZM130.134 4.34C130.988 4.34 131.728 4.50667 132.354 4.84C132.994 5.16 133.488 5.65334 133.834 6.32C134.194 6.98667 134.374 7.82667 134.374 8.84V14.94H132.954V8.98C132.954 7.87334 132.688 7.04 132.154 6.48C131.634 5.90667 130.894 5.62 129.934 5.62C129.214 5.62 128.588 5.77334 128.054 6.08C127.534 6.37334 127.128 6.80667 126.834 7.38C126.554 7.94 126.414 8.62 126.414 9.42V14.94H124.994V8.98C124.994 7.87334 124.728 7.04 124.194 6.48C123.661 5.90667 122.914 5.62 121.954 5.62C121.248 5.62 120.628 5.77334 120.094 6.08C119.561 6.37334 119.148 6.80667 118.854 7.38C118.574 7.94 118.434 8.62 118.434 9.42V14.94H117.014V4.44H118.374V7.28L118.154 6.78C118.474 6.02 118.988 5.42667 119.694 5C120.414 4.56 121.261 4.34 122.234 4.34C123.261 4.34 124.134 4.6 124.854 5.12C125.574 5.62667 126.041 6.39334 126.254 7.42L125.694 7.2C126.001 6.34667 126.541 5.66 127.314 5.14C128.101 4.60667 129.041 4.34 130.134 4.34ZM0.340059 37.252H32.5321V43.14H22.8041C24.4681 44.548 25.6201 46.404 26.2601 48.516H32.5321V54.34H26.5161C25.5561 59.844 21.6521 63.044 18.1321 64.26L26.8361 79.94H14.2281L7.12406 65.604H0.340059V57.54H10.1321C13.0121 57.54 14.8681 56.324 15.7001 54.34H0.340059V48.516H15.7641C14.9321 46.532 13.0761 45.316 10.1321 45.316H0.340059V37.252ZM58.3281 79.94H47.3201V51.332L40.1521 58.564L33.8801 51.972L48.7921 37.252H58.3281V79.94ZM64.7451 74.692C64.7451 71.428 67.4971 68.676 70.7611 68.676C74.0251 68.676 76.7771 71.428 76.7771 74.692C76.7771 77.956 74.0251 80.708 70.7611 80.708C67.4971 80.708 64.7451 77.956 64.7451 74.692ZM81.0991 58.692C81.0991 45.06 89.2911 36.612 102.219 36.612C107.275 36.612 112.011 38.212 115.211 40.708L110.411 48.772C108.043 46.852 105.739 45.956 102.219 45.956C96.5871 45.956 92.2351 50.244 92.2351 56.26V56.772C94.3471 53.956 98.3791 51.844 102.731 51.844C110.411 51.844 117.515 56.644 117.515 65.732C117.515 74.5 110.411 80.708 100.491 80.708C86.9871 80.708 81.0991 70.916 81.0991 58.692ZM106.379 66.18C106.379 62.404 102.923 60.868 99.4031 60.868C96.7151 60.868 94.1551 61.892 92.2351 63.748C92.5551 67.268 94.6031 71.364 99.9791 71.364C104.139 71.364 106.379 68.74 106.379 66.18ZM121.495 74.5L127.383 67.14C130.327 69.892 134.487 71.364 138.583 71.364C143.255 71.364 145.559 68.868 145.559 66.116C145.559 63.108 143.319 60.932 138.903 60.932C135.511 60.932 132.823 61.956 130.455 64.132L122.839 62.276V37.252H153.815V46.532H133.463V55.3C135.895 53.252 139.223 51.844 142.999 51.844C150.295 51.844 156.759 57.092 156.759 65.668C156.759 74.884 149.783 80.708 138.711 80.708C131.159 80.708 125.463 78.404 121.495 74.5ZM194.716 79.94H173.596V47.924H181.852V72.74H194.716V79.94ZM230.107 79.94H221.131L219.499 75.092H206.203L204.571 79.94H195.595L207.643 47.924H218.011L230.107 79.94ZM217.339 68.132L212.827 55.124L208.363 68.132H217.339ZM246.38 80.516C236.78 80.516 229.292 73.796 229.292 63.956C229.292 54.068 236.78 47.396 246.38 47.396C254.348 47.396 258.476 51.764 260.588 55.988L253.484 59.348C252.428 56.804 249.692 54.692 246.38 54.692C241.388 54.692 237.692 58.724 237.692 63.956C237.692 69.188 241.388 73.22 246.38 73.22C249.692 73.22 252.428 71.108 253.484 68.564L260.588 71.924C258.524 76.052 254.348 80.516 246.38 80.516ZM271.599 62.9H268.095L268.335 57.764L264.015 60.548L262.287 57.524L266.847 55.172L262.287 52.82L264.015 49.844L268.335 52.58L268.095 47.444H271.599L271.311 52.58L275.631 49.844L277.407 52.82L272.847 55.172L277.407 57.524L275.631 60.548L271.311 57.764L271.599 62.9Z" fill="white"/>
</svg>
