<svg width="17" height="12" viewBox="0 0 17 12" fill="none" xmlns="http://www.w3.org/2000/svg">
<path d="M1.38858 9.94922C0.870472 7.50422 0.870472 4.97766 1.38858 2.53258C1.45666 2.28428 1.58819 2.05797 1.77025 1.87592C1.9523 1.69386 2.17861 1.56233 2.42691 1.49425C6.4048 0.83525 10.464 0.83525 14.4419 1.49425C14.6902 1.56233 14.9165 1.69386 15.0986 1.87592C15.2806 2.05797 15.4121 2.28428 15.4802 2.53258C15.9983 4.97766 15.9983 7.50422 15.4802 9.94922C15.4121 10.1975 15.2806 10.4238 15.0986 10.6059C14.9165 10.788 14.6902 10.9195 14.4419 10.9876C10.464 11.6467 6.40479 11.6467 2.42691 10.9876C2.17861 10.9195 1.9523 10.788 1.77025 10.6059C1.58819 10.4238 1.45666 10.1975 1.38858 9.94922Z" stroke="white" stroke-opacity="0.38" stroke-linecap="round" stroke-linejoin="round"/>
<path d="M6.95068 8.46611L10.659 6.24111L6.95068 4.01611V8.46611Z" stroke="white" stroke-opacity="0.38" stroke-linecap="round" stroke-linejoin="round"/>
</svg>
