<svg width="24" height="24" viewBox="0 0 24 24" fill="none" xmlns="http://www.w3.org/2000/svg">
<path d="M22.56 12.25C22.56 11.47 22.49 10.72 22.36 10H12V14.26H17.92C17.66 15.63 16.88 16.79 15.71 17.57V20.34H19.28C21.36 18.42 22.56 15.6 22.56 12.25Z" fill="#4285F4"/>
<path d="M12.0002 23.0001C14.9702 23.0001 17.4602 22.0201 19.2802 20.3401L15.7102 17.5701C14.7302 18.2301 13.4802 18.6301 12.0002 18.6301C9.14018 18.6301 6.71018 16.7001 5.84018 14.1001H2.18018V16.9401C3.99018 20.5301 7.70018 23.0001 12.0002 23.0001Z" fill="#34A853"/>
<path d="M5.84 14.0901C5.62 13.4301 5.49 12.7301 5.49 12.0001C5.49 11.2701 5.62 10.5701 5.84 9.91007V7.07007H2.18C1.43 8.55007 1 10.2201 1 12.0001C1 13.7801 1.43 15.4501 2.18 16.9301L5.03 14.7101L5.84 14.0901Z" fill="#FBBC05"/>
<path d="M12.0002 5.38C13.6202 5.38 15.0602 5.94 16.2102 7.02L19.3602 3.87C17.4502 2.09 14.9702 1 12.0002 1C7.70018 1 3.99018 3.47 2.18018 7.07L5.84018 9.91C6.71018 7.31 9.14018 5.38 12.0002 5.38Z" fill="#EA4335"/>
</svg>
