<svg width="72" height="72" viewBox="0 0 72 72" fill="none" xmlns="http://www.w3.org/2000/svg">
<rect width="72" height="72" rx="36" fill="url(#paint0_linear_4586_4837)" fill-opacity="0.5"/>
<rect x="0.5" y="0.5" width="71" height="71" rx="35.5" stroke="white" stroke-opacity="0.18"/>
<path d="M46 51C46 47.4637 44.5953 44.0724 42.0948 41.5719C39.5943 39.0714 36.2029 37.6666 32.6667 37.6666C29.1305 37.6666 25.7391 39.0714 23.2386 41.5719C20.7381 44.0724 19.3334 47.4637 19.3334 51" stroke="white" stroke-width="2" stroke-linecap="round" stroke-linejoin="round"/>
<path d="M32.6667 37.6667C37.2691 37.6667 41 33.9357 41 29.3333C41 24.731 37.2691 21 32.6667 21C28.0643 21 24.3334 24.731 24.3334 29.3333C24.3334 33.9357 28.0643 37.6667 32.6667 37.6667Z" stroke="white" stroke-width="2" stroke-linecap="round" stroke-linejoin="round"/>
<path d="M52.6667 49.3333C52.6667 43.7166 49.3333 38.5 46 36C47.0957 35.1779 47.9719 34.0984 48.5509 32.8571C49.13 31.6157 49.3942 30.2507 49.32 28.883C49.2459 27.5152 48.8357 26.1868 48.1258 25.0153C47.4159 23.8438 46.4282 22.8654 45.25 22.1666" stroke="white" stroke-width="2" stroke-linecap="round" stroke-linejoin="round"/>
<defs>
<linearGradient id="paint0_linear_4586_4837" x1="6.11321" y1="11.2075" x2="65.2075" y2="58.7547" gradientUnits="userSpaceOnUse">
<stop stop-color="#5752A3" stop-opacity="0"/>
<stop offset="1" stop-color="#5752A3"/>
</linearGradient>
</defs>
</svg>
