<svg width="108" height="20" viewBox="0 0 108 20" fill="none" xmlns="http://www.w3.org/2000/svg">
<path d="M9.60453 1.91249C9.64105 1.83871 9.69746 1.7766 9.7674 1.73318C9.83735 1.68976 9.91803 1.66675 10.0004 1.66675C10.0827 1.66675 10.1634 1.68976 10.2333 1.73318C10.3033 1.7766 10.3597 1.83871 10.3962 1.91249L12.3212 5.81166C12.448 6.0683 12.6352 6.29033 12.8667 6.4587C13.0982 6.62707 13.3671 6.73675 13.6504 6.77833L17.9554 7.40833C18.0369 7.42015 18.1136 7.45455 18.1766 7.50766C18.2396 7.56076 18.2866 7.63045 18.312 7.70883C18.3375 7.78721 18.3406 7.87116 18.3208 7.95119C18.3011 8.03121 18.2594 8.10412 18.2004 8.16166L15.087 11.1933C14.8817 11.3934 14.7281 11.6404 14.6394 11.913C14.5507 12.1856 14.5296 12.4757 14.5779 12.7583L15.3129 17.0417C15.3273 17.1232 15.3185 17.2071 15.2874 17.2839C15.2564 17.3607 15.2045 17.4272 15.1375 17.4758C15.0705 17.5245 14.9912 17.5533 14.9086 17.5591C14.826 17.5648 14.7434 17.5472 14.6704 17.5083L10.822 15.485C10.5685 15.3518 10.2863 15.2823 9.99994 15.2823C9.71354 15.2823 9.43143 15.3518 9.17786 15.485L5.33036 17.5083C5.2573 17.547 5.17486 17.5644 5.0924 17.5585C5.00995 17.5527 4.93079 17.5238 4.86394 17.4752C4.79709 17.4266 4.74522 17.3601 4.71424 17.2835C4.68326 17.2069 4.67441 17.1231 4.68869 17.0417L5.42286 12.7592C5.47136 12.4764 5.45035 12.1862 5.36164 11.9134C5.27294 11.6406 5.1192 11.3935 4.91369 11.1933L1.80036 8.16249C1.74086 8.10502 1.69869 8.03199 1.67866 7.95172C1.65864 7.87145 1.66156 7.78717 1.68709 7.70849C1.71263 7.6298 1.75975 7.55986 1.82309 7.50665C1.88643 7.45343 1.96345 7.41907 2.04536 7.40749L6.34953 6.77833C6.63307 6.73708 6.90235 6.62754 7.13418 6.45915C7.36601 6.29076 7.55345 6.06855 7.68036 5.81166L9.60453 1.91249Z" fill="#F8DA81"/>
<path d="M31.6036 1.91249C31.6401 1.83871 31.6965 1.7766 31.7664 1.73318C31.8364 1.68976 31.9171 1.66675 31.9994 1.66675C32.0817 1.66675 32.1624 1.68976 32.2323 1.73318C32.3023 1.7766 32.3587 1.83871 32.3952 1.91249L34.3202 5.81166C34.447 6.0683 34.6342 6.29033 34.8657 6.4587C35.0972 6.62707 35.3662 6.73675 35.6494 6.77833L39.9544 7.40833C40.036 7.42015 40.1126 7.45455 40.1756 7.50766C40.2387 7.56076 40.2856 7.63045 40.3111 7.70883C40.3366 7.78721 40.3396 7.87116 40.3199 7.95119C40.3001 8.03121 40.2584 8.10412 40.1994 8.16166L37.0861 11.1933C36.8807 11.3934 36.7271 11.6404 36.6384 11.913C36.5497 12.1856 36.5286 12.4757 36.5769 12.7583L37.3119 17.0417C37.3263 17.1232 37.3175 17.2071 37.2865 17.2839C37.2555 17.3607 37.2035 17.4272 37.1365 17.4758C37.0695 17.5245 36.9902 17.5533 36.9076 17.5591C36.825 17.5648 36.7425 17.5472 36.6694 17.5083L32.8211 15.485C32.5675 15.3518 32.2854 15.2823 31.999 15.2823C31.7126 15.2823 31.4305 15.3518 31.1769 15.485L27.3294 17.5083C27.2563 17.547 27.1739 17.5644 27.0914 17.5585C27.009 17.5527 26.9298 17.5238 26.863 17.4752C26.7961 17.4266 26.7442 17.3601 26.7133 17.2835C26.6823 17.2069 26.6734 17.1231 26.6877 17.0417L27.4219 12.7592C27.4704 12.4764 27.4494 12.1862 27.3607 11.9134C27.272 11.6406 27.1182 11.3935 26.9127 11.1933L23.7994 8.16249C23.7399 8.10502 23.6977 8.03199 23.6777 7.95172C23.6577 7.87145 23.6606 7.78717 23.6861 7.70849C23.7117 7.6298 23.7588 7.55986 23.8221 7.50665C23.8855 7.45343 23.9625 7.41907 24.0444 7.40749L28.3486 6.77833C28.6321 6.73708 28.9014 6.62754 29.1332 6.45915C29.365 6.29076 29.5525 6.06855 29.6794 5.81166L31.6036 1.91249Z" fill="#F8DA81"/>
<path d="M53.604 1.91249C53.6406 1.83871 53.697 1.7766 53.7669 1.73318C53.8369 1.68976 53.9175 1.66675 53.9999 1.66675C54.0822 1.66675 54.1629 1.68976 54.2328 1.73318C54.3028 1.7766 54.3592 1.83871 54.3957 1.91249L56.3207 5.81166C56.4475 6.0683 56.6347 6.29033 56.8662 6.4587C57.0977 6.62707 57.3666 6.73675 57.6499 6.77833L61.9549 7.40833C62.0364 7.42015 62.1131 7.45455 62.1761 7.50766C62.2391 7.56076 62.2861 7.63045 62.3116 7.70883C62.337 7.78721 62.3401 7.87116 62.3204 7.95119C62.3006 8.03121 62.2589 8.10412 62.1999 8.16166L59.0865 11.1933C58.8812 11.3934 58.7276 11.6404 58.6389 11.913C58.5502 12.1856 58.5291 12.4757 58.5774 12.7583L59.3124 17.0417C59.3268 17.1232 59.318 17.2071 59.287 17.2839C59.2559 17.3607 59.204 17.4272 59.137 17.4758C59.07 17.5245 58.9907 17.5533 58.9081 17.5591C58.8255 17.5648 58.743 17.5472 58.6699 17.5083L54.8215 15.485C54.568 15.3518 54.2859 15.2823 53.9995 15.2823C53.7131 15.2823 53.4309 15.3518 53.1774 15.485L49.3299 17.5083C49.2568 17.547 49.1744 17.5644 49.0919 17.5585C49.0095 17.5527 48.9303 17.5238 48.8635 17.4752C48.7966 17.4266 48.7447 17.3601 48.7138 17.2835C48.6828 17.2069 48.6739 17.1231 48.6882 17.0417L49.4224 12.7592C49.4709 12.4764 49.4499 12.1862 49.3612 11.9134C49.2724 11.6406 49.1187 11.3935 48.9132 11.1933L45.7999 8.16249C45.7404 8.10502 45.6982 8.03199 45.6782 7.95172C45.6581 7.87145 45.6611 7.78717 45.6866 7.70849C45.7121 7.6298 45.7593 7.55986 45.8226 7.50665C45.8859 7.45343 45.963 7.41907 46.0449 7.40749L50.349 6.77833C50.6326 6.73708 50.9019 6.62754 51.1337 6.45915C51.3655 6.29076 51.553 6.06855 51.6799 5.81166L53.604 1.91249Z" fill="#F8DA81"/>
<path d="M75.6045 1.91249C75.641 1.83871 75.6975 1.7766 75.7674 1.73318C75.8373 1.68976 75.918 1.66675 76.0004 1.66675C76.0827 1.66675 76.1634 1.68976 76.2333 1.73318C76.3033 1.7766 76.3597 1.83871 76.3962 1.91249L78.3212 5.81166C78.448 6.0683 78.6352 6.29033 78.8667 6.4587C79.0982 6.62707 79.3671 6.73675 79.6504 6.77833L83.9554 7.40833C84.0369 7.42015 84.1136 7.45455 84.1766 7.50766C84.2396 7.56076 84.2866 7.63045 84.312 7.70883C84.3375 7.78721 84.3406 7.87116 84.3208 7.95119C84.3011 8.03121 84.2594 8.10412 84.2004 8.16166L81.087 11.1933C80.8817 11.3934 80.7281 11.6404 80.6394 11.913C80.5507 12.1856 80.5296 12.4757 80.5779 12.7583L81.3129 17.0417C81.3273 17.1232 81.3185 17.2071 81.2874 17.2839C81.2564 17.3607 81.2045 17.4272 81.1375 17.4758C81.0705 17.5245 80.9912 17.5533 80.9086 17.5591C80.826 17.5648 80.7434 17.5472 80.6704 17.5083L76.822 15.485C76.5685 15.3518 76.2863 15.2823 75.9999 15.2823C75.7135 15.2823 75.4314 15.3518 75.1779 15.485L71.3304 17.5083C71.2573 17.547 71.1749 17.5644 71.0924 17.5585C71.0099 17.5527 70.9308 17.5238 70.8639 17.4752C70.7971 17.4266 70.7452 17.3601 70.7142 17.2835C70.6833 17.2069 70.6744 17.1231 70.6887 17.0417L71.4229 12.7592C71.4714 12.4764 71.4503 12.1862 71.3616 11.9134C71.2729 11.6406 71.1192 11.3935 70.9137 11.1933L67.8004 8.16249C67.7409 8.10502 67.6987 8.03199 67.6787 7.95172C67.6586 7.87145 67.6616 7.78717 67.6871 7.70849C67.7126 7.6298 67.7597 7.55986 67.8231 7.50665C67.8864 7.45343 67.9634 7.41907 68.0454 7.40749L72.3495 6.77833C72.6331 6.73708 72.9024 6.62754 73.1342 6.45915C73.366 6.29076 73.5534 6.06855 73.6804 5.81166L75.6045 1.91249Z" fill="#F8DA81"/>
<path d="M97.6036 1.91249C97.6401 1.83871 97.6965 1.7766 97.7664 1.73318C97.8364 1.68976 97.9171 1.66675 97.9994 1.66675C98.0817 1.66675 98.1624 1.68976 98.2323 1.73318C98.3023 1.7766 98.3587 1.83871 98.3952 1.91249L100.32 5.81166C100.447 6.0683 100.634 6.29033 100.866 6.4587C101.097 6.62707 101.366 6.73675 101.649 6.77833L105.954 7.40833C106.036 7.42015 106.113 7.45455 106.176 7.50766C106.239 7.56076 106.286 7.63045 106.311 7.70883C106.337 7.78721 106.34 7.87116 106.32 7.95119C106.3 8.03121 106.258 8.10412 106.199 8.16166L103.086 11.1933C102.881 11.3934 102.727 11.6404 102.638 11.913C102.55 12.1856 102.529 12.4757 102.577 12.7583L103.312 17.0417C103.326 17.1232 103.317 17.2071 103.286 17.2839C103.255 17.3607 103.203 17.4272 103.137 17.4758C103.07 17.5245 102.99 17.5533 102.908 17.5591C102.825 17.5648 102.742 17.5472 102.669 17.5083L98.8211 15.485C98.5675 15.3518 98.2854 15.2823 97.999 15.2823C97.7126 15.2823 97.4305 15.3518 97.1769 15.485L93.3294 17.5083C93.2563 17.547 93.1739 17.5644 93.0914 17.5585C93.009 17.5527 92.9298 17.5238 92.863 17.4752C92.7961 17.4266 92.7442 17.3601 92.7133 17.2835C92.6823 17.2069 92.6734 17.1231 92.6877 17.0417L93.4219 12.7592C93.4704 12.4764 93.4494 12.1862 93.3607 11.9134C93.272 11.6406 93.1182 11.3935 92.9127 11.1933L89.7994 8.16249C89.7399 8.10502 89.6977 8.03199 89.6777 7.95172C89.6577 7.87145 89.6606 7.78717 89.6861 7.70849C89.7117 7.6298 89.7588 7.55986 89.8221 7.50665C89.8855 7.45343 89.9625 7.41907 90.0444 7.40749L94.3486 6.77833C94.6321 6.73708 94.9014 6.62754 95.1332 6.45915C95.365 6.29076 95.5525 6.06855 95.6794 5.81166L97.6036 1.91249Z" fill="#F8DA81"/>
</svg>
