<?xml version="1.0" encoding="UTF-8"?>
<svg id="Layer_2" data-name="Layer 2" xmlns="http://www.w3.org/2000/svg" viewBox="0 0 24 24">
  <defs>
    <style>
      .cls-1 {
        fill: #00ffaf;
        stroke-width: 0px;
      }
    </style>
  </defs>
  <g id="_Слой_1" data-name="Слой 1">
    <path class="cls-1" d="M12,0C5.38,0,0,5.38,0,12c0,3.38,1.41,6.44,3.67,8.62.05.07.12.12.19.17,2.14,1.98,5,3.21,8.14,3.21s6-1.22,8.14-3.21c.07-.05.14-.1.19-.17,2.26-2.18,3.67-5.24,3.67-8.62C24,5.38,18.62,0,12,0ZM12,22.5c-2.68,0-5.11-1.01-6.97-2.67.23-2.75,3.14-4.79,6.97-4.79s6.74,2.04,6.97,4.79c-1.86,1.65-4.29,2.67-6.97,2.67ZM8.03,9.58c0-2.19,1.78-3.97,3.97-3.97s3.97,1.78,3.97,3.97-1.78,3.97-3.97,3.97-3.97-1.78-3.97-3.97ZM20.23,18.5c-.65-2.1-2.51-3.74-5.03-4.5,1.37-.99,2.27-2.6,2.27-4.42,0-3.01-2.46-5.47-5.47-5.47s-5.47,2.45-5.47,5.47c0,1.82.9,3.43,2.27,4.42-2.52.76-4.38,2.4-5.03,4.5-1.42-1.79-2.27-4.05-2.27-6.5C1.5,6.21,6.21,1.5,12,1.5s10.5,4.71,10.5,10.5c0,2.45-.85,4.71-2.27,6.5Z"/>
  </g>
</svg>