<svg width="105" height="22" viewBox="0 0 105 22" fill="none" xmlns="http://www.w3.org/2000/svg">
<g clip-path="url(#clip0_9405_1219)">
<path d="M35.6829 10.5357V2.49219H38.119V10.5357H35.6829Z" fill="white"/>
<path d="M44.2335 10.5357L41.2667 6.21826V10.5357H38.8306V2.49219H41.3389L44.1369 6.54438V2.49219H46.5731V10.5357H44.2335Z" fill="white"/>
<path d="M52.6866 10.5357L49.7199 6.21826V10.5357H47.2837V2.49219H49.7921L52.5901 6.54438V2.49219H55.0263V10.5357H52.6866Z" fill="white"/>
<path d="M59.7056 2.35938C62.1896 2.35938 64.1074 4.04759 64.1074 6.51946C64.1074 8.99134 62.1896 10.6796 59.7056 10.6796C57.2215 10.6796 55.3037 8.99134 55.3037 6.51946C55.3037 4.04759 57.2207 2.35938 59.7056 2.35938ZM59.7056 4.50594C58.5357 4.50594 57.7764 5.39832 57.7764 6.51946C57.7764 7.64061 58.5357 8.53298 59.7056 8.53298C60.8754 8.53298 61.6347 7.64061 61.6347 6.51946C61.6347 5.39832 60.8746 4.50594 59.7056 4.50594Z" fill="white"/>
<path d="M66.2409 10.5357L63.2742 2.49219H66.0357L67.7725 7.90647L69.5094 2.49219H72.2709L69.3042 10.5357H66.2409Z" fill="white"/>
<path d="M77.1189 10.5357L76.8058 9.49895H73.719L73.405 10.5357H70.7644L73.7311 2.49219H76.7944L79.7612 10.5357H77.1205H77.1189ZM75.262 4.63875L74.3453 7.47245H76.1779L75.2612 4.63875H75.262Z" fill="white"/>
<path d="M80.604 10.5357V4.61442H78.4453V2.49219H85.1868V4.61442H83.0402V10.5357H80.604Z" fill="white"/>
<path d="M85.4634 10.5357V2.49219H87.8996V10.5357H85.4634Z" fill="white"/>
<path d="M92.5781 2.35938C95.0622 2.35938 96.9799 4.04759 96.9799 6.51946C96.9799 8.99134 95.0622 10.6796 92.5781 10.6796C90.0941 10.6796 88.1763 8.99134 88.1763 6.51946C88.1763 4.04759 90.0941 2.35938 92.5781 2.35938ZM92.5781 4.50594C91.4083 4.50594 90.649 5.39832 90.649 6.51946C90.649 7.64061 91.4091 8.53298 92.5781 8.53298C93.7471 8.53298 94.5073 7.64061 94.5073 6.51946C94.5073 5.39832 93.7471 4.50594 92.5781 4.50594Z" fill="white"/>
<path d="M102.66 10.5357L99.6935 6.21826V10.5357H97.2573V2.49219H99.7657L102.564 6.54438V2.49219H105V10.5357H102.66Z" fill="white"/>
<path d="M35.2488 15.6562C35.2488 13.1721 37.1544 11.4961 39.6141 11.4961C41.785 11.4961 42.8461 12.7259 43.328 13.8357L41.2293 14.8125C41.0241 14.1854 40.397 13.6427 39.6133 13.6427C38.5035 13.6427 37.7198 14.535 37.7198 15.6562C37.7198 16.7773 38.5035 17.6697 39.6133 17.6697C40.397 17.6697 41.0241 17.127 41.2293 16.4999L43.328 17.4645C42.8575 18.5377 41.7842 19.8163 39.6141 19.8163C37.1544 19.8163 35.2488 18.1281 35.2488 15.6562Z" fill="white"/>
<path d="M43.4976 19.6724V11.6289H45.9337V19.6724H43.4976Z" fill="white"/>
<path d="M48.3692 19.6724V13.7511H46.2104V11.6289H52.9519V13.7511H50.8054V19.6724H48.3692Z" fill="white"/>
<path d="M55.3759 19.6724V16.4769L52.3613 11.6289H55.0985L56.5936 14.3425L58.0644 11.6289H60.8016L57.8105 16.4769V19.6724H55.3743H55.3759Z" fill="white"/>
<path d="M13.1357 9.04624H22.1633C21.1655 3.89237 16.6306 0 11.1847 0C5.00703 0 0 5.00784 0 11.1847C0 17.3624 5.00784 22.3694 11.1847 22.3694C16.5998 22.3694 21.1152 18.5216 22.1471 13.4116H13.1357V9.04624Z" fill="white"/>
<path d="M31.1796 9.04688H22.1634C22.2972 9.73968 22.3702 10.4536 22.3702 11.1853C22.3702 11.9479 22.2932 12.6926 22.1479 13.4122H31.1804V9.04688H31.1796Z" fill="white"/>
</g>
<defs>
<clipPath id="clip0_9405_1219">
<rect width="105" height="22" fill="white"/>
</clipPath>
</defs>
</svg>
