<svg width="104" height="23" viewBox="0 0 104 23" fill="none" xmlns="http://www.w3.org/2000/svg">
<path d="M35.3428 9.95716V1.99023H37.7558V9.95716H35.3428Z" fill="black"/>
<path d="M43.8119 9.95716L40.8734 5.68082V9.95716H38.4604V1.99023H40.9449L43.7163 6.00383V1.99023H46.1293V9.95716H43.8119Z" fill="black"/>
<path d="M52.185 9.95716L49.2465 5.68082V9.95716H46.8335V1.99023H49.318L52.0893 6.00383V1.99023H54.5023V9.95716H52.185Z" fill="black"/>
<path d="M59.1368 1.85938C61.5972 1.85938 63.4967 3.5315 63.4967 5.97984C63.4967 8.42817 61.5972 10.1011 59.1368 10.1011C56.6764 10.1011 54.7769 8.42898 54.7769 5.97984C54.7769 3.5307 56.6764 1.85938 59.1368 1.85938ZM59.1368 3.98549C57.9781 3.98549 57.226 4.86937 57.226 5.97984C57.226 7.09031 57.9789 7.97499 59.1368 7.97499C60.2946 7.97499 61.0475 7.09111 61.0475 5.97984C61.0475 4.86857 60.2946 3.98549 59.1368 3.98549Z" fill="black"/>
<path d="M65.6099 9.95716L62.6714 1.99023H65.4066L67.1269 7.35295L68.8473 1.99023H71.5825L68.644 9.95716H65.6099Z" fill="black"/>
<path d="M76.3843 9.95716L76.0742 8.93026H73.0168L72.7058 9.95716H70.0903L73.0288 1.99023H76.0629L79.0014 9.95716H76.3859H76.3843ZM74.5443 4.11635L73.6363 6.92306H75.4514L74.5435 4.11635H74.5443Z" fill="black"/>
<path d="M79.8364 9.95716V4.09225H77.6982V1.99023H84.3755V4.09225H82.2494V9.95716H79.8364Z" fill="black"/>
<path d="M84.6494 9.95716V1.99023H87.0624V9.95716H84.6494Z" fill="black"/>
<path d="M91.6963 1.85938C94.1567 1.85938 96.0563 3.5315 96.0563 5.97984C96.0563 8.42817 94.1567 10.1011 91.6963 10.1011C89.236 10.1011 87.3364 8.42898 87.3364 5.97984C87.3364 3.5307 89.236 1.85938 91.6963 1.85938ZM91.6963 3.98549C90.5377 3.98549 89.7856 4.86937 89.7856 5.97984C89.7856 7.09031 90.5385 7.97499 91.6963 7.97499C92.8542 7.97499 93.6071 7.09111 93.6071 5.97984C93.6071 4.86857 92.8542 3.98549 91.6963 3.98549Z" fill="black"/>
<path d="M101.683 9.95716L98.744 5.68082V9.95716H96.3311V1.99023H98.8156L101.587 6.00383V1.99023H104V9.95716H101.683Z" fill="black"/>
<path d="M34.9131 15.0287C34.9131 12.5683 36.8006 10.9082 39.2368 10.9082C41.3871 10.9082 42.4381 12.1263 42.9154 13.2256L40.8367 14.193C40.6334 13.5719 40.0122 13.0343 39.236 13.0343C38.1368 13.0343 37.3606 13.9182 37.3606 15.0287C37.3606 16.1391 38.1368 17.0238 39.236 17.0238C40.0122 17.0238 40.6334 16.4863 40.8367 15.8651L42.9154 16.8205C42.4493 17.8836 41.3863 19.1499 39.2368 19.1499C36.7998 19.1499 34.9131 17.4778 34.9131 15.0287Z" fill="black"/>
<path d="M43.0835 19.006V11.0391H45.4965V19.006H43.0835Z" fill="black"/>
<path d="M47.9087 19.006V13.1411H45.7705V11.0391H52.4478V13.1411H50.3217V19.006H47.9087Z" fill="black"/>
<path d="M54.8487 19.006V15.8409L51.8628 11.0391H54.5739L56.0548 13.7268L57.5124 11.0391H60.2234L57.2609 15.8409V19.006H54.8479H54.8487Z" fill="black"/>
<path d="M13.0106 8.96009H21.9523C20.9639 3.8553 16.4722 0 11.0782 0C4.95934 0 0 4.96015 0 11.0782C0 17.197 4.96015 22.1563 11.0782 22.1563C16.4417 22.1563 20.9141 18.3452 21.9362 13.2838H13.0106V8.96009Z" fill="url(#paint0_linear_9405_1240)"/>
<path d="M30.8826 8.96094H21.9523C22.0849 9.64715 22.1572 10.3542 22.1572 11.079C22.1572 11.8343 22.0808 12.572 21.937 13.2847H30.8834V8.96094H30.8826Z" fill="#5752A3"/>
<defs>
<linearGradient id="paint0_linear_9405_1240" x1="5.48485" y1="11.0782" x2="27.4371" y2="11.0782" gradientUnits="userSpaceOnUse">
<stop stop-color="#85D2DB"/>
<stop offset="0.09" stop-color="#83CCD8"/>
<stop offset="0.2" stop-color="#81BCD2"/>
<stop offset="0.32" stop-color="#7CA2C7"/>
<stop offset="0.45" stop-color="#757EB7"/>
<stop offset="0.53" stop-color="#7165AD"/>
<stop offset="0.64" stop-color="#645CA8"/>
<stop offset="0.81" stop-color="#5A54A4"/>
<stop offset="1" stop-color="#5752A3"/>
</linearGradient>
</defs>
</svg>
