<svg width="135" height="34" viewBox="0 0 135 34" fill="none" xmlns="http://www.w3.org/2000/svg">
<path d="M6.82003 32.5525C5.9323 32.7962 5.06198 33.0051 4.19166 33.0051C2.10289 33.0051 0.257812 31.9433 0.257812 29.576C0.257812 27.0695 2.05067 25.7988 4.33091 25.7988C5.18382 25.7988 5.96711 25.9729 6.71559 26.4081C6.57634 26.7214 6.4719 27.0869 6.43709 27.4176H6.29784C5.84527 26.7388 5.13161 26.3906 4.34832 26.3906C2.69471 26.3906 1.89401 27.905 1.89401 29.5934C1.89401 31.3341 2.76433 32.3785 4.26129 32.3785C4.74867 32.3785 5.1142 32.2392 5.34049 32.0999V29.7501C5.58417 29.7675 5.82786 29.8023 6.07155 29.8023C6.31524 29.8023 6.55893 29.7675 6.82003 29.7501V32.5525Z" fill="#FFFEFE"/>
<path d="M7.82812 30.5336C7.82812 28.9497 8.73326 27.9053 10.2302 27.9053C11.7272 27.9053 12.6497 28.8278 12.6497 30.3248C12.6497 31.8565 11.762 32.9705 10.2128 32.9705C8.76807 32.9705 7.82812 32.0306 7.82812 30.5336ZM9.29026 30.5162C9.29026 31.1603 9.3773 32.518 10.2302 32.518C10.9961 32.5006 11.205 31.2647 11.205 30.1681C11.205 29.1933 10.9613 28.3578 10.2998 28.3578C9.49914 28.3578 9.29026 29.3152 9.29026 30.5162Z" fill="#FFFEFE"/>
<path d="M15.769 31.4906C16.1867 30.3417 16.6045 29.1929 16.97 28.0093C17.0919 28.0267 17.2311 28.0267 17.3704 28.0267C17.4922 28.0267 17.6315 28.0093 17.7533 28.0093C17.7707 28.1137 17.7185 28.1833 17.6837 28.253C17.4922 28.6359 17.3356 29.0189 17.1789 29.4366C16.7438 30.568 16.2564 31.682 15.8908 32.8831C15.7168 32.8657 15.5601 32.8309 15.3861 32.8309C15.212 32.8309 15.0553 32.8657 14.8813 32.8831C14.3243 31.2469 13.7847 29.6629 13.1406 28.0093C13.4017 28.0267 13.6454 28.0615 13.9065 28.0615C14.1676 28.0615 14.4113 28.0267 14.655 28.0093L15.769 31.4906Z" fill="#FFFEFE"/>
<path d="M19.7356 30.4464C19.7008 31.4734 20.0663 32.3089 21.1107 32.3089C21.511 32.3089 21.9636 32.1175 22.2595 31.8564L22.3814 31.9434L22.1551 32.5004C21.7547 32.7789 21.2325 32.953 20.7451 32.953C19.1089 32.953 18.2734 31.9434 18.2734 30.3072C18.2734 28.8973 19.0915 27.8877 20.5363 27.8877C22.0854 27.8877 22.6599 28.9843 22.5554 30.429H19.7356M21.1803 29.9591C21.1803 29.4195 21.1107 28.3577 20.5363 28.3577C19.8226 28.3577 19.753 29.4195 19.7356 29.9591H21.1803Z" fill="#FFFEFE"/>
<path d="M23.5117 27.9923C23.738 28.0097 23.9643 28.0445 24.1906 28.0445C24.4169 28.0445 24.6431 28.0097 24.8694 27.9923V29.2456C25.0783 28.5145 25.5135 27.9053 26.4708 27.9053C26.4186 28.3752 26.3838 28.8452 26.4186 29.2804L26.3316 29.3674C26.2097 29.2804 25.9834 29.2282 25.8268 29.2282C25.3916 29.2282 25.0435 29.4544 24.9216 29.8896C24.8346 30.1855 24.8694 30.7251 24.8694 31.0558V32.8661C24.6431 32.8487 24.4169 32.8139 24.1906 32.8139C23.9643 32.8139 23.738 32.8487 23.5117 32.8661V27.9923Z" fill="#FFFEFE"/>
<path d="M27.2383 27.9923C27.4646 28.0097 27.6734 28.0445 27.8997 28.0445C28.126 28.0445 28.3349 28.0097 28.5612 27.9923V28.7408C28.9615 28.2708 29.4663 27.9053 30.0755 27.9053C31.3114 27.9053 31.6247 28.7234 31.6247 29.9244V32.8661C31.3984 32.8487 31.1721 32.8139 30.9458 32.8139C30.7196 32.8139 30.4933 32.8487 30.267 32.8661V30.3596C30.267 29.4196 30.1452 28.7408 29.4489 28.7408C28.596 28.7408 28.596 29.907 28.596 30.551V32.8661C28.3697 32.8487 28.1434 32.8139 27.9171 32.8139C27.6908 32.8139 27.4646 32.8487 27.2383 32.8661V27.9923Z" fill="#FFFEFE"/>
<path d="M32.6836 27.9921C32.9099 28.0095 33.1362 28.0444 33.3624 28.0444C33.5887 28.0444 33.815 28.0095 34.0413 27.9921V28.7406C34.3198 28.2532 34.9116 27.8877 35.486 27.8877C36.1127 27.8877 36.6 28.201 36.7915 28.8102C37.1396 28.2706 37.6444 27.8877 38.2885 27.8877C39.4373 27.8877 39.8202 28.5665 39.8202 29.6457V32.8485C39.5939 32.8311 39.3676 32.7963 39.1414 32.7963C38.9151 32.7963 38.6888 32.8311 38.4625 32.8485V30.1157C38.4625 29.4543 38.4103 28.7232 37.7489 28.7232C37.0526 28.7232 36.9307 29.1758 36.9307 29.8024V32.8485C36.7045 32.8311 36.4782 32.7963 36.2519 32.7963C36.0256 32.7963 35.7993 32.8311 35.5731 32.8485V30.1157C35.5731 29.4543 35.5034 28.7232 34.8594 28.7232C34.1805 28.7232 34.0413 29.3498 34.0413 29.9068V32.8485C33.815 32.8311 33.5887 32.7963 33.3624 32.7963C33.1362 32.7963 32.9099 32.8311 32.6836 32.8485V27.9921Z" fill="#FFFEFE"/>
<path d="M42.1908 30.4464C42.156 31.4734 42.5215 32.3089 43.5659 32.3089C43.9663 32.3089 44.4188 32.1175 44.7148 31.8564L44.8366 31.9434L44.6277 32.5004C44.2274 32.7789 43.7052 32.953 43.2178 32.953C41.5816 32.953 40.7461 31.9434 40.7461 30.3072C40.7461 28.8973 41.5816 27.8877 43.0089 27.8877C44.5581 27.8877 45.1325 28.9843 45.0281 30.429H42.1908M43.653 29.9591C43.653 29.4195 43.6007 28.3577 43.0089 28.3577C42.2953 28.3577 42.2256 29.4195 42.2082 29.9591H43.653Z" fill="#FFFEFE"/>
<path d="M45.8594 27.9923C46.0857 28.0097 46.2945 28.0445 46.5208 28.0445C46.7297 28.0445 46.956 28.0097 47.1649 27.9923V28.7408C47.5652 28.2708 48.07 27.9053 48.6792 27.9053C49.9151 27.9053 50.2458 28.7234 50.2458 29.9244V32.8661C50.0195 32.8487 49.7932 32.8139 49.5669 32.8139C49.3407 32.8139 49.1144 32.8487 48.8881 32.8661V30.3596C48.8881 29.4196 48.7662 28.7408 48.0874 28.7408C47.2345 28.7408 47.2345 29.907 47.2345 30.551V32.8661C47.0082 32.8487 46.7819 32.8139 46.5556 32.8139C46.3293 32.8139 46.1031 32.8487 45.8768 32.8661V27.9923" fill="#FFFEFE"/>
<path d="M52.9996 31.5085C52.9996 32.2048 53.0344 32.5703 53.9222 32.344V32.727C53.5566 32.8662 53.1911 32.9532 52.8952 32.9532C51.8682 32.9532 51.6419 32.257 51.6419 31.3345V28.6365H50.9805C51.0153 28.4102 51.0153 28.2187 50.9805 27.9924H51.6419V26.861C52.0945 26.6869 52.5296 26.4607 52.9996 26.2344V27.9924H53.8351C53.8003 28.2187 53.8003 28.3928 53.8351 28.6365H52.9996V31.5085Z" fill="#FFFEFE"/>
<path d="M57.1602 30.5336C57.1602 28.9497 58.0653 27.9053 59.5622 27.9053C61.0592 27.9053 61.9817 28.8278 61.9817 30.3248C61.9817 31.8565 61.094 32.9705 59.5448 32.9705C58.0827 32.9705 57.1602 32.0306 57.1602 30.5336ZM58.6049 30.5162C58.6049 31.1603 58.6919 32.518 59.5448 32.518C60.3107 32.5006 60.5196 31.2647 60.5196 30.1681C60.5196 29.1933 60.2759 28.3578 59.6145 28.3578C58.8138 28.3578 58.6049 29.3152 58.6049 30.5162Z" fill="#FFFEFE"/>
<path d="M62.3984 28.6361C62.4333 28.4272 62.4333 28.2358 62.3984 27.9921H63.1295C63.2165 27.4525 63.3384 26.8607 63.6517 26.3211C64.1217 25.4333 64.6787 25.1026 65.6882 25.2767C65.6186 25.6944 65.6186 26.1818 65.6534 26.5474L65.5316 26.5996C65.2879 26.4603 64.9572 26.3211 64.6613 26.3211C64.4872 26.3211 64.2435 26.3211 64.1217 26.4429C64.0694 26.5125 63.9998 26.5648 63.9998 26.6518C63.9998 26.9129 64.3131 27.6788 64.435 27.9747H65.4271C65.3923 28.2184 65.3923 28.375 65.4271 28.6187H64.5046V32.8485C64.2783 32.8311 64.052 32.7963 63.8258 32.7963C63.5995 32.7963 63.3732 32.8311 63.1469 32.8485V28.6187H62.3984" fill="#FFFEFE"/>
<path d="M68.8906 25.9735H70.9968C71.4668 25.9735 72.1804 25.956 72.5982 26.1823C73.1552 26.4782 73.4511 26.9308 73.4511 27.6271C73.4511 28.6192 72.8419 29.2285 71.9193 29.4373C72.4589 30.3947 73.0682 31.3346 73.66 32.2572L74.0429 32.8838C73.747 32.8664 73.4511 32.8316 73.1378 32.8316C72.8419 32.8316 72.546 32.8664 72.2501 32.8838L71.0838 30.7776C70.9446 30.4991 70.6661 30.0466 70.4398 29.6636H70.3702V32.8838C70.1265 32.8664 69.8828 32.8316 69.6217 32.8316C69.378 32.8316 69.1343 32.8664 68.8906 32.8838V25.9735ZM70.3702 29.211C71.3971 29.3155 71.9193 28.8107 71.9193 27.7663C71.9193 27.6271 71.9019 27.4704 71.8671 27.2615C71.7105 26.426 70.962 26.5131 70.3702 26.5131V29.211Z" fill="#FFFEFE"/>
<path d="M78.4484 31.9784C78.4484 32.3439 78.5529 32.4658 78.9532 32.4483V32.6746C78.7095 32.7791 78.344 32.9531 78.0655 32.9531C77.5955 32.9531 77.2474 32.6572 77.0907 32.2221C76.8296 32.692 76.3423 32.9531 75.8201 32.9531C75.002 32.9531 74.4102 32.5006 74.4102 31.6302C74.4102 30.6729 74.9846 30.3944 76.2204 30.0985C76.4641 30.0463 76.7252 29.9766 76.9341 29.8374C77.0559 29.7155 77.0907 29.5937 77.0907 29.4544C77.0907 28.9671 76.6034 28.5667 76.1508 28.5667C75.5242 28.5667 75.002 29.0019 74.9498 29.1933H74.8801L74.7583 28.5841C75.2283 28.149 75.9593 27.9053 76.586 27.9053C77.4215 27.9053 78.4658 28.2534 78.4658 29.2456V31.9784M77.0907 30.2377C76.847 30.3422 76.3945 30.4466 76.116 30.6729C75.8549 30.8818 75.8027 31.1777 75.8027 31.5084C75.8027 31.8739 75.9245 32.3091 76.3423 32.3091C76.9515 32.3091 77.0733 31.7173 77.0907 31.2125V30.2377Z" fill="#FFFEFE"/>
<path d="M79.8048 31.5954C79.9789 32.1002 80.3966 32.4483 80.9362 32.4483C81.2844 32.4483 81.7021 32.1873 81.7021 31.8391C81.7021 30.8992 79.4219 31.2647 79.4219 29.5067C79.4219 28.4797 80.2226 27.9053 81.1277 27.9053C81.6151 27.9053 82.1721 28.0619 82.555 28.3752C82.468 28.6712 82.381 28.9671 82.3113 29.263H82.0328C81.9632 28.8278 81.5455 28.4275 81.0929 28.4275C80.7274 28.4275 80.3618 28.6015 80.3618 29.0019C80.3618 29.9766 82.6769 29.4893 82.6769 31.3517C82.6769 32.2917 81.9632 32.9531 80.7796 32.9531C80.2922 32.9531 79.8222 32.8139 79.4219 32.5354C79.4741 32.2221 79.5263 31.9087 79.5785 31.578H79.8048" fill="#FFFEFE"/>
<path d="M87.4469 30.7779C87.1858 31.5438 86.9421 32.1704 86.7507 32.8493C86.594 32.8493 86.4374 32.8145 86.2981 32.8145C86.1414 32.8145 85.9848 32.8319 85.8281 32.8493L88.648 25.8867C88.7698 25.9041 88.8916 25.9215 89.0135 25.9215C89.1353 25.9215 89.2572 25.9215 89.3964 25.8867L92.1466 32.8667C91.8681 32.8493 91.5896 32.8145 91.2937 32.8145C91.0152 32.8145 90.7367 32.8493 90.4408 32.8667C90.2145 32.1182 90.0057 31.4394 89.7446 30.7605H87.4469M89.5183 30.1687L88.648 27.8188L87.7254 30.1687H89.5183Z" fill="#FFFEFE"/>
<path d="M94.3225 32.867C94.0963 32.8496 93.87 32.8148 93.6437 32.8148C93.4174 32.8148 93.1911 32.8496 92.9648 32.867V25.2256C93.1911 25.243 93.4174 25.2778 93.6437 25.2778C93.87 25.2778 94.0963 25.243 94.3225 25.2256V32.867Z" fill="#FFFEFE"/>
<path d="M98.4627 25.9731C98.7064 25.9906 98.9501 26.0254 99.1938 26.0254C99.4375 26.0254 99.6812 25.9906 99.9249 25.9731V29.1237C100.795 28.0793 101.665 27.0349 102.484 25.9731C102.658 25.9906 102.832 26.0254 103.006 26.0254C103.18 26.0254 103.354 25.9906 103.528 25.9731V26.0602L101.909 27.7834C101.596 28.1141 101.317 28.4623 100.969 28.8452L103.632 32.7268V32.8661C103.389 32.8487 103.145 32.8139 102.901 32.8139C102.658 32.8139 102.414 32.8487 102.153 32.8661L99.9075 29.6807V32.8661C99.6638 32.8487 99.4201 32.8139 99.1764 32.8139C98.9327 32.8139 98.689 32.8487 98.4453 32.8661V25.9731" fill="#FFFEFE"/>
<path d="M105.668 28.6895C106.017 28.2891 106.591 27.9062 107.131 27.9062C107.583 27.9062 107.949 28.0454 108.279 28.3761C108.645 28.7417 108.697 29.1594 108.697 29.6468V32.867C108.471 32.8496 108.245 32.8148 108.018 32.8148C107.792 32.8148 107.566 32.8496 107.339 32.867V30.3605C107.339 29.4205 107.218 28.7417 106.539 28.7417C105.634 28.7417 105.686 29.9079 105.686 30.5519V32.867C105.46 32.8496 105.233 32.8148 105.007 32.8148C104.781 32.8148 104.554 32.8496 104.328 32.867V25.2256C104.554 25.243 104.781 25.2778 105.007 25.2778C105.233 25.2778 105.46 25.243 105.686 25.2256V28.6895" fill="#FFFEFE"/>
<path d="M113.521 31.9784C113.521 32.3439 113.625 32.4658 114.026 32.4483V32.6746C113.782 32.7791 113.416 32.9531 113.138 32.9531C112.668 32.9531 112.32 32.6572 112.163 32.2221C111.902 32.692 111.415 32.9531 110.91 32.9531C110.092 32.9531 109.5 32.5006 109.5 31.6302C109.5 30.6729 110.074 30.3944 111.31 30.0985C111.554 30.0463 111.815 29.9766 112.024 29.8374C112.146 29.7155 112.181 29.5937 112.181 29.4544C112.181 28.9671 111.693 28.5667 111.241 28.5667C110.614 28.5667 110.092 29.0019 110.04 29.1933H109.97L109.848 28.5841C110.318 28.149 111.049 27.9053 111.676 27.9053C112.511 27.9053 113.556 28.2534 113.556 29.2456V31.9784M112.163 30.2377C111.919 30.3422 111.467 30.4466 111.188 30.6729C110.927 30.8818 110.875 31.1777 110.875 31.5084C110.875 31.8739 110.997 32.3091 111.415 32.3091C112.024 32.3091 112.146 31.7173 112.163 31.2125V30.2377Z" fill="#FFFEFE"/>
<path d="M115.556 25.3633C115.973 25.3633 116.339 25.7288 116.339 26.1466C116.339 26.5817 115.973 26.9473 115.556 26.9473C115.138 26.9473 114.79 26.5817 114.79 26.1466C114.772 25.7288 115.12 25.3633 115.556 25.3633ZM114.877 27.9916C115.103 28.0091 115.329 28.0439 115.556 28.0439C115.782 28.0439 116.008 28.0091 116.234 27.9916V32.8654C116.008 32.848 115.782 32.8132 115.556 32.8132C115.329 32.8132 115.103 32.848 114.877 32.8654V27.9916Z" fill="#FFFEFE"/>
<path d="M117.457 27.9921C117.683 28.0095 117.91 28.0444 118.136 28.0444C118.362 28.0444 118.588 28.0095 118.815 27.9921V28.7406C119.093 28.2532 119.685 27.8877 120.259 27.8877C120.886 27.8877 121.356 28.201 121.565 28.8102C121.913 28.2706 122.418 27.8877 123.062 27.8877C124.211 27.8877 124.594 28.5665 124.594 29.6457V32.8485C124.367 32.8311 124.141 32.7963 123.915 32.7963C123.689 32.7963 123.462 32.8311 123.236 32.8485V30.1157C123.236 29.4543 123.184 28.7232 122.522 28.7232C121.826 28.7232 121.704 29.1758 121.704 29.8024V32.8485C121.478 32.8311 121.252 32.7963 121.025 32.7963C120.799 32.7963 120.573 32.8311 120.346 32.8485V30.1157C120.346 29.4543 120.294 28.7232 119.633 28.7232C118.954 28.7232 118.815 29.3498 118.815 29.9068V32.8485C118.588 32.8311 118.362 32.7963 118.136 32.7963C117.91 32.7963 117.683 32.8311 117.457 32.8485V27.9921Z" fill="#FFFEFE"/>
<path d="M129.411 31.9784C129.411 32.3439 129.516 32.4658 129.916 32.4483V32.6746C129.69 32.7791 129.307 32.9531 129.029 32.9531C128.576 32.9531 128.21 32.6572 128.054 32.2221C127.793 32.692 127.305 32.9531 126.801 32.9531C126 32.9531 125.391 32.5006 125.391 31.6302C125.391 30.6729 125.965 30.3944 127.201 30.0985C127.445 30.0463 127.706 29.9766 127.915 29.8374C128.036 29.7155 128.071 29.5937 128.071 29.4544C128.071 28.9671 127.584 28.5667 127.131 28.5667C126.505 28.5667 125.982 29.0019 125.93 29.1933H125.861L125.739 28.5841C126.209 28.149 126.94 27.9053 127.566 27.9053C128.385 27.9053 129.446 28.2534 129.446 29.2456V31.9784M128.054 30.2377C127.81 30.3422 127.358 30.4466 127.079 30.6729C126.818 30.8818 126.766 31.1777 126.766 31.5084C126.766 31.8739 126.888 32.3091 127.305 32.3091C127.897 32.3091 128.036 31.7173 128.054 31.2125V30.2377Z" fill="#FFFEFE"/>
<path d="M131.971 28.6895C132.319 28.2891 132.894 27.9062 133.433 27.9062C133.886 27.9062 134.251 28.0454 134.582 28.3761C134.947 28.7417 135 29.1594 135 29.6468V32.867C134.773 32.8496 134.547 32.8148 134.321 32.8148C134.095 32.8148 133.868 32.8496 133.642 32.867V30.3605C133.642 29.4205 133.52 28.7417 132.824 28.7417C131.919 28.7417 131.971 29.9079 131.971 30.5519V32.867C131.745 32.8496 131.518 32.8148 131.292 32.8148C131.066 32.8148 130.84 32.8496 130.613 32.867V25.2256C130.84 25.243 131.066 25.2778 131.292 25.2778C131.518 25.2778 131.745 25.243 131.971 25.2256V28.6895Z" fill="#FFFEFE"/>
<path d="M11.5868 16.8698C11.6042 17.4616 11.3083 18.0186 10.9776 18.5234H10.3857C8.05329 18.5234 7.75737 17.0439 7.72256 15.5469C7.63553 15.4251 7.46147 15.3729 7.2874 15.3729C4.85051 15.3729 4.72866 19.8115 3.07506 19.8115C1.00369 19.8115 0.585938 16.2258 0.585938 15.0595C0.585938 13.3711 1.38663 11.7523 3.28393 10.8994C4.50238 10.3424 5.96452 10.5861 7.30481 10.5861C8.03588 10.5861 8.80176 10.5165 9.42839 10.1858C9.1847 11.1953 6.34746 11.0387 5.45973 11.0387C2.63989 11.0387 1.36923 12.7967 1.36923 14.9203C1.36923 15.7732 1.85661 18.0012 3.30134 18.0012C4.58941 18.0012 5.33789 13.58 7.827 13.58C8.83657 13.58 8.61029 14.4155 8.61029 14.9551C8.61029 16.2258 9.67208 16.7306 10.995 16.748C11.1864 16.748 11.3953 16.7306 11.6042 16.7132V16.8698M8.74954 9.24581C8.19254 9.07174 7.68775 8.51474 7.18297 8.23623C6.64337 8.58436 6.22562 9.01952 5.70342 9.35024C5.0942 9.12396 4.5546 8.6888 4.06722 8.30586C4.34572 7.85329 5.05939 7.24407 5.61639 6.96557C6.1734 7.20926 6.55634 7.67923 7.07853 7.99254C7.63553 7.66182 8.01847 7.17444 8.50585 6.7915C9.11507 7.12223 9.63727 7.52257 10.1421 7.92292C9.75911 8.39289 9.21952 8.79324 8.74954 9.24581Z" fill="#FFFEFE"/>
<path d="M18.2585 18.5233H17.7711C17.2315 18.5233 16.7094 18.4537 16.1698 18.3492C16.1872 19.2718 15.4561 21.1169 14.0288 21.1169C13.1584 21.1169 12.4448 20.7687 12.4448 20.0203C12.4448 19.4632 12.7581 18.9585 12.9322 18.4189C12.3404 18.4885 11.5745 18.5059 10.9826 18.5059C10.7041 18.5059 10.3908 18.5407 10.356 18.4537C10.3386 17.7748 10.739 17.3745 11.0175 16.7653C11.5397 16.7653 12.2011 16.7478 12.7581 16.7478C14.4987 16.7478 14.4291 16.0342 15.4561 15.0942H15.665C15.7694 16.5738 16.7616 16.7653 18.2585 16.7653C18.4848 16.7653 18.9896 16.7304 18.9896 16.9045C18.9548 17.4963 18.4326 17.9663 18.2585 18.5233ZM14.3769 18.0707C14.1854 18.3144 14.0984 18.5929 14.0636 18.8888C14.2376 19.0803 14.2725 19.4458 14.6206 19.4458C15.0209 19.4458 15.2472 19.1673 15.2472 18.854C15.2472 18.5755 14.8295 18.0533 14.4291 18.0707H14.3769Z" fill="#FFFEFE"/>
<path d="M25.7939 18.5232H25.2021C24.1926 18.5232 22.8 18.2099 22.3649 17.4092C22.2779 17.2526 22.1038 16.7652 21.8427 16.7652C21.7208 16.7652 21.5642 17.0785 21.5468 17.1307C20.955 18.1403 19.4754 18.5406 18.1873 18.5406H17.5781C17.5955 17.8792 18.0307 17.2874 18.257 16.8C18.5355 16.8 18.7444 16.7478 18.9358 16.7478C20.6591 16.7478 21.9645 15.8252 22.6956 14.6416C23.2352 14.6938 23.1656 16.7652 25.3936 16.7652C25.5154 16.7652 25.6373 16.8 25.7939 16.8C26.1943 16.8 26.4206 16.7478 26.4032 16.9392C26.2639 17.357 26.2117 18.1229 25.7939 18.5232ZM23.4615 23.0141C22.9393 22.7356 22.6086 22.2656 22.1386 21.9349C21.5468 22.0741 20.9898 22.9967 20.4328 22.9967C20.2587 22.9967 19.2317 21.9523 19.2317 21.8653C19.2317 21.6042 20.5546 20.7512 20.9027 20.6642C21.1638 21.0472 21.6686 21.2734 21.9297 21.6564H22.069C22.4693 21.2386 23.0089 20.9601 23.4615 20.5772C24.1403 20.6816 24.4188 21.4127 24.9584 21.726C24.5581 22.2308 24.0707 22.7008 23.4615 23.0141Z" fill="#FFFEFE"/>
<path d="M35.6623 16.1736C31.4848 16.6958 31.8503 18.6801 25.7929 18.5235C25.2707 18.5061 24.9922 18.4887 24.9922 18.4887C25.2881 17.8272 24.94 18.4016 25.7929 16.7828C28.1253 16.7828 30.6319 16.8525 32.5814 15.7907C31.7285 15.5122 30.3185 15.3207 29.4134 15.3555C30.0749 13.4582 31.2933 12.1005 33.6258 11.4391C33.9739 11.352 34.8964 11.2128 34.8964 10.8124C34.8964 9.61141 34.4265 8.72368 34.0783 7.60967C33.2254 8.61924 33.8694 10.0118 33.0165 11.0387L32.9121 10.9517C32.9643 8.86293 33.6084 6.80897 34.9138 5.01611L35.1227 5.17277C35.5231 6.47825 36.0627 7.81855 36.0627 9.15884C36.0627 12.9708 33.0339 12.1876 31.2759 13.7019C32.6336 14.0674 34.0435 14.4156 35.5057 14.4156C36.1149 14.4156 36.7067 14.3285 37.2985 14.2067C37.2985 14.5026 35.9582 15.8603 35.6623 16.1736ZM29.0305 11.7524C28.5605 11.3172 28.0383 10.9517 27.6031 10.5165C27.9513 10.0292 28.6127 9.64622 29.1349 9.26327C29.6919 9.594 30.1445 9.97694 30.5622 10.4295C30.1793 10.9169 29.6571 11.4565 29.0305 11.7524Z" fill="#FFFEFE"/>
<path d="M41.7919 11.7002C41.7919 12.7271 41.7745 14.3807 41.2523 15.2859H41.0957L41.1131 14.6766C41.1653 13.0927 40.8172 11.5435 40.8172 9.95951C40.8172 8.68885 41.0434 7.38337 41.8789 6.25195C43.4107 7.24412 44.6118 11.7002 44.6118 13.2667C44.6118 16.2954 43.08 19.0805 38.8502 19.0805C38.3977 19.0805 37.9625 19.0457 37.5273 19.0108C37.9799 18.6105 38.8154 18.5931 39.3724 18.3146C41.3393 17.305 43.724 15.9647 43.724 13.8237C43.724 12.1179 42.4011 10.5687 41.7049 9.00216C41.5308 9.90729 41.7919 10.8124 41.7919 11.7002Z" fill="#FFFEFE"/>
<path d="M61.4604 18.4542C61.1819 20.717 58.9887 23.0321 55.96 23.0321C53.0009 23.0321 51.3125 21.1522 51.3125 18.8894C51.3125 13.4412 56.5344 14.4507 59.302 11.3872V11.7701C59.302 13.7719 52.2873 13.8763 52.2873 18.3324C52.2873 20.1078 54.376 21.2044 56.3952 21.2044C57.6658 21.2044 60.2072 20.4211 60.2072 19.2027C60.2072 18.2975 59.7894 17.462 59.1106 16.7484C59.4587 16.1914 59.8416 15.6692 60.3986 15.2688C60.799 16.174 61.9478 16.7484 63.0792 16.7484H63.671L63.0792 18.489C62.5744 18.5238 62.0871 18.5238 61.4604 18.4542Z" fill="#FFFEFE"/>
<path d="M66.0013 18.4188C65.688 18.4188 65.3921 18.4884 65.0613 18.4884C64.8699 18.4884 64.6958 18.4362 64.5392 18.3143C64.0344 18.4188 63.547 18.4884 63.0596 18.4884C62.7463 18.4884 62.4678 18.5058 62.1719 18.5058C62.3285 17.7922 62.6593 17.2352 63.0422 16.7652C63.3903 16.7652 63.7385 16.7826 64.0692 16.7826C65.9665 16.7826 65.4617 15.3901 66.1057 15.0942C66.1405 15.1464 66.1753 15.2334 66.1753 15.303C66.1753 15.5641 65.9839 16.3822 65.9143 16.6259C66.0361 16.6781 66.1754 16.6956 66.332 16.6956C67.4808 16.6956 67.5853 15.4423 68.1597 14.8853C68.2815 14.8505 68.3686 14.9549 68.4208 15.0419C68.386 16.156 67.3764 18.4188 66.0013 18.4188Z" fill="#FFFEFE"/>
<path d="M71.1539 5.25968H70.9276L70.9102 5.19006C70.9102 4.89415 72.9815 4.38937 73.5907 3.9368C73.4515 3.84977 73.2774 3.79755 73.1208 3.79755C72.7378 3.79755 72.4071 3.9368 72.0416 3.9368C71.6586 3.9368 71.3801 3.71052 71.3801 3.3972C71.3801 2.71835 72.1286 1.91766 72.7726 1.4999C73.1208 1.25621 73.8693 1.11696 74.3218 0.995117L74.4263 1.09955C74.0085 2.52688 72.6856 1.96987 72.4245 2.63132C72.5638 2.71835 72.7378 2.75316 72.9119 2.75316C73.2252 2.75316 73.5211 2.68354 73.8344 2.68354C74.0259 2.68354 74.4611 2.80538 74.4611 2.97945C74.4437 4.30234 72.6508 5.2945 71.1539 5.25968Z" fill="#FFFEFE"/>
<path d="M72.5828 11.7002C72.5828 12.7271 72.5653 14.3807 72.0432 15.2859H71.8865L71.9039 14.6766C71.9561 13.0927 71.608 11.5435 71.608 9.95951C71.608 8.68885 71.8343 7.38337 72.6524 6.25195C74.1841 7.24412 75.3852 11.7002 75.3852 13.2667C75.3852 16.2954 73.8534 19.0805 69.6237 19.0805C69.1711 19.0805 68.7359 19.0457 68.3008 19.0108C68.7533 18.6105 69.5889 18.5931 70.1633 18.3146C72.1302 17.305 74.5149 15.9647 74.5149 13.8237C74.5149 12.1179 73.2094 10.5687 72.4957 9.00216C72.3217 9.90729 72.5828 10.8124 72.5828 11.7002Z" fill="#FFFEFE"/>
<path d="M83.6504 15.4073C83.4938 15.2855 83.2501 15.2159 83.0064 15.2159C82.9542 15.2159 82.6061 15.3377 82.519 15.3551C80.6565 17.6179 80.1169 21.047 75.922 21.047C74.721 21.047 73.4851 20.9774 72.3711 20.5944C75.7131 19.9852 78.6896 19.2193 80.5695 16.7476C81.2658 15.7903 82.0491 13.3882 83.7201 13.3882C83.8593 13.3882 84.2771 13.5274 84.2771 13.6667C84.2771 14.2933 83.8767 14.8155 83.6504 15.4073Z" fill="#FFFEFE"/>
<path d="M102.745 16.8698C102.762 17.4616 102.466 18.0186 102.136 18.5234H101.544C99.2113 18.5234 98.9154 17.0439 98.8806 15.5469C98.7936 15.4251 98.6195 15.3729 98.428 15.3729C95.9911 15.3729 95.8693 19.8115 94.2157 19.8115C92.1443 19.8115 91.7266 16.2258 91.7266 15.0595C91.7266 13.3711 92.5273 11.7523 94.4246 10.8994C95.643 10.3424 97.1051 10.5861 98.4454 10.5861C99.1765 10.5861 99.9424 10.5165 100.552 10.1858C100.325 11.1953 97.4707 11.0387 96.5829 11.0387C93.7631 11.0387 92.4924 12.7967 92.4924 14.9203C92.4924 15.7732 92.9798 18.0012 94.4246 18.0012C95.7126 18.0012 96.4611 13.58 98.9502 13.58C99.9598 13.58 99.7335 14.4155 99.7335 14.9551C99.7335 16.2258 100.795 16.7306 102.101 16.748C102.292 16.748 102.501 16.7306 102.71 16.7132V16.8698M99.9076 9.24581C99.3506 9.07174 98.8458 8.51474 98.3236 8.23623C97.784 8.58436 97.3662 9.01952 96.844 9.35024C96.2348 9.12396 95.6952 8.6888 95.2078 8.30586C95.4863 7.85329 96.1826 7.24407 96.757 6.96557C97.314 7.20926 97.697 7.67923 98.2191 7.99254C98.7762 7.66182 99.1591 7.17444 99.6465 6.7915C100.256 7.12223 100.778 7.52257 101.283 7.92292C100.917 8.39289 100.378 8.79324 99.9076 9.24581Z" fill="#FFFEFE"/>
<path d="M108.371 16.7473C107.361 16.9213 106.073 16.9387 105.203 17.4087C104.176 18.0005 103.27 18.5749 101.965 18.5053L101.582 18.4879C101.652 17.9135 101.913 17.4087 102.139 16.7647C102.696 16.7647 103.34 16.7299 103.827 16.6776C105.69 16.4688 104.576 15.3373 105.498 14.5889C106.073 14.85 106.717 14.9718 107.361 14.9718C107.901 14.9718 108.44 14.8674 108.945 14.7107C108.893 15.407 108.632 16.0858 108.371 16.7473Z" fill="#FFFEFE"/>
<path d="M117.227 18.5233H116.687C116.026 18.5233 115.365 18.3666 114.947 17.9489C114.163 19.6373 112.667 21.0646 110.264 21.0646C109.255 21.0646 108.228 20.8209 107.375 20.3509V20.2465L107.915 20.2639C110.09 20.2987 112.492 19.6895 113.815 18.1925C113.902 18.0881 114.32 17.5659 114.32 17.4963C114.32 17.3919 114.372 17.0437 114.181 17.0437C113.868 17.0437 113.45 17.3048 112.928 17.3048C112.492 17.3048 112.266 16.9915 112.266 16.6434C112.266 16.0864 113.572 14.3979 114.338 14.3979C115.173 14.3979 115.539 15.4075 115.539 15.9297C115.539 16.6434 116.409 16.7652 117.21 16.7652C117.471 16.7652 117.871 16.7304 117.888 16.9219C117.836 17.5137 117.453 18.1577 117.227 18.5233Z" fill="#FFFEFE"/>
<path d="M124.035 11.2305L123.93 11.1434C124.261 9.73351 124.923 8.37581 125.41 7.0007C124 7.57511 122.903 8.75875 121.372 9.29835C121.581 10.7257 120.606 15.9824 122.834 16.7135C123.043 16.7657 123.443 16.7657 123.826 16.7657C123.948 16.7657 124.105 16.7483 124.244 16.7483L123.826 18.5063H122.938C121.772 18.5063 121.024 17.5142 120.571 16.7831C119.857 17.6012 119.161 18.5063 117.769 18.5063C117.473 18.5063 116.968 18.5586 116.759 18.3845C116.829 17.7927 117.038 17.2879 117.229 16.7483H117.977C118.9 16.7657 119.77 16.4872 120.38 15.9302C120.362 14.938 120.432 13.9459 120.432 12.9711C120.432 12.24 120.414 11.4916 120.223 10.7431C120.432 10.3079 120.745 9.89017 120.989 9.47241C119.823 9.6987 118.639 10.0642 117.42 10.0642C117.038 10.0642 116.672 10.0294 116.289 9.95979C116.306 9.73351 116.55 9.6987 116.759 9.66389C119.039 9.33316 125.427 6.54814 126.489 4.89453L126.628 5.22525C125.601 7.19218 125.236 9.33316 124.035 11.2305Z" fill="#FFFEFE"/>
<path d="M125.708 18.2974C125.603 19.0981 125.116 19.8117 124.959 20.6124L124.629 20.4384C124.751 19.7769 124.82 19.1155 125.012 18.4715C124.385 18.5411 123.741 18.5237 123.114 18.5411L123.027 18.4366C123.219 17.8622 123.55 17.34 123.845 16.783C123.845 16.783 124.159 16.8004 124.176 16.8004C124.716 16.8527 125.238 16.7134 125.725 16.609C126.126 15.4253 127.553 12.6577 129.363 12.6577C131.243 12.6577 131.905 14.3984 134.063 14.0502C134.115 14.1199 134.133 14.2939 134.133 14.3461C134.133 14.642 133.489 15.5472 133.193 15.7386C130.355 15.8431 128.441 17.8796 125.708 18.2974ZM128.893 14.5376C127.797 14.5376 126.892 15.6864 126.648 16.4349C127.901 16.1042 129.328 15.7038 130.355 15.025C129.99 14.6943 129.45 14.5376 128.893 14.5376Z" fill="#FFFEFE"/>
</svg>
