<svg width="8" height="11" viewBox="0 0 8 11" fill="none" xmlns="http://www.w3.org/2000/svg">
<path d="M6.8297 4.7897L2.5897 0.549705C2.49674 0.455976 2.38613 0.381582 2.26428 0.330813C2.14242 0.280044 2.01171 0.253906 1.8797 0.253906C1.74769 0.253906 1.61698 0.280044 1.49512 0.330813C1.37326 0.381582 1.26266 0.455976 1.1697 0.549705C0.983448 0.737067 0.878906 0.990519 0.878906 1.2547C0.878906 1.51889 0.983448 1.77234 1.1697 1.9597L4.7097 5.4997L1.1697 9.0397C0.983448 9.22707 0.878906 9.48052 0.878906 9.74471C0.878906 10.0089 0.983448 10.2623 1.1697 10.4497C1.26314 10.5424 1.37395 10.6157 1.49579 10.6655C1.61763 10.7152 1.74809 10.7405 1.8797 10.7397C2.01131 10.7405 2.14177 10.7152 2.26361 10.6655C2.38544 10.6157 2.49626 10.5424 2.5897 10.4497L6.8297 6.2097C6.92343 6.11674 6.99782 6.00614 7.04859 5.88428C7.09936 5.76242 7.1255 5.63172 7.1255 5.4997C7.1255 5.36769 7.09936 5.23699 7.04859 5.11513C6.99782 4.99327 6.92343 4.88267 6.8297 4.7897Z" fill="#00249C"/>
</svg>
