<?xml version="1.0" encoding="UTF-8"?>
<svg id="Layer_2" data-name="Layer 2" xmlns="http://www.w3.org/2000/svg" viewBox="0 0 49.65 49.65">
  <defs>
    <style>
      .cls-1 {
        fill: #00ffaf;
        stroke-width: 0px;
      }
    </style>
  </defs>
  <g id="Layer_1-2" data-name="Layer 1">
    <path class="cls-1" d="M24.83,0C11.14,0,0,11.14,0,24.83c0,5.61,1.83,10.91,5.29,15.31,4.74,6.05,11.87,9.51,19.54,9.51s14.8-3.47,19.54-9.52c3.46-4.41,5.28-9.7,5.28-15.31,0-13.69-11.14-24.83-24.83-24.83ZM44.58,23.37h-10.23c-.11-2.41-.47-4.68-1-6.78,3.07-.74,5.7-1.81,7.86-2.91,1.91,2.8,3.11,6.12,3.37,9.7ZM39.27,11.29c-1.9.92-4.16,1.8-6.76,2.42-1.17-3.43-2.68-6.26-3.98-8.34,4.2.8,7.93,2.93,10.75,5.93ZM17.86,23.37s0,0,0,0h0s0,0,0,0c.1-2.27.42-4.36.89-6.28,1.89.32,3.92.51,6.08.51,1.97,0,3.83-.16,5.57-.43.5,1.93.85,4,.96,6.2h-13.5ZM31.36,26.37c-.12,2.25-.5,4.38-1.03,6.35-1.72-.26-3.56-.42-5.51-.42-2.15,0-4.15.2-6.02.52-.49-1.96-.83-4.11-.94-6.45h13.49ZM24.66,5.01c1.28,1.77,3.33,5.02,4.84,9.26-1.48.21-3.03.33-4.68.33-1.85,0-3.6-.15-5.23-.41,1.48-4.34,3.55-7.47,4.86-9.17.07,0,.14-.01.22-.01ZM20.42,5.51c-1.28,2-2.71,4.71-3.81,8.06-2.38-.61-4.47-1.43-6.23-2.28,2.66-2.83,6.12-4.88,10.04-5.78ZM5.07,23.37c.26-3.58,1.46-6.89,3.37-9.7,2.03,1.04,4.5,2.05,7.36,2.79-.5,2.11-.83,4.41-.93,6.91H5.07ZM5.06,26.37h9.81c.11,2.56.47,4.92.99,7.07-2.91.75-5.36,1.75-7.29,2.72-2.04-2.91-3.25-6.25-3.51-9.8ZM10.52,38.55c1.68-.81,3.77-1.61,6.17-2.22,1.09,3.25,2.49,5.88,3.75,7.84-3.77-.85-7.21-2.79-9.92-5.62ZM24.66,44.65c-.07,0-.14,0-.21,0-1.28-1.66-3.31-4.71-4.78-8.94,1.61-.25,3.33-.41,5.16-.41,1.61,0,3.14.12,4.59.32-1.5,4.12-3.51,7.29-4.76,9.03ZM28.52,44.31c1.28-2.03,2.76-4.8,3.92-8.13,2.59.61,4.83,1.47,6.7,2.37-2.88,3.01-6.57,5-10.62,5.76ZM41.08,36.16c-2.12-1.07-4.73-2.13-7.79-2.86.56-2.14.94-4.46,1.06-6.93h10.24c-.27,3.54-1.47,6.88-3.51,9.79Z"/>
  </g>
</svg>