<svg width="266" height="94" viewBox="0 0 266 94" fill="none" xmlns="http://www.w3.org/2000/svg">
<path d="M65.9883 58.1628C65.9883 42.0573 75.6533 32.0804 90.9046 32.0804C96.8693 32.0804 102.456 33.9686 106.234 36.9218L100.57 46.4479C97.7765 44.1807 95.0551 43.1223 90.9046 43.1223C84.2611 43.1223 79.1251 48.1859 79.1251 55.2945V55.9021C81.6181 52.5765 86.3755 50.0806 91.5115 50.0806C100.57 50.0806 108.956 55.7519 108.956 66.4867C108.956 77.2215 100.576 84.1799 88.8685 84.1799C72.9385 84.1799 65.9883 72.6153 65.9883 58.1759V58.1628ZM95.8121 67.0094C95.8121 62.5469 91.7334 60.7371 87.5828 60.7371C84.4112 60.7371 81.3897 61.9458 79.1251 64.1411C79.5036 68.2965 81.9183 73.138 88.2615 73.138C93.1691 73.138 95.8121 70.041 95.8121 67.0159V67.0094Z" fill="#101010"/>
<path d="M120.63 83.0365C120.252 83.1868 119.573 83.3371 118.894 83.3371C115.644 83.3371 113.008 80.6125 113.008 76.9144C113.008 73.2164 116.179 69.9626 119.958 69.9626C124.037 69.9626 127.659 73.138 127.659 78.6589C127.659 84.8594 124.337 90.302 119.051 94.0065L114.215 90.0733C116.63 88.8645 119.801 85.8394 120.637 83.043L120.63 83.0365Z" fill="#101010"/>
<path d="M130.413 58.1628C130.413 42.0573 140.078 32.0804 155.329 32.0804C161.294 32.0804 166.88 33.9686 170.659 36.9218L164.994 46.4479C162.201 44.1807 159.48 43.1223 155.329 43.1223C148.686 43.1223 143.55 48.1859 143.55 55.2945V55.9021C146.043 52.5765 150.8 50.0806 155.936 50.0806C164.994 50.0806 173.38 55.7519 173.38 66.4867C173.38 77.2215 165.001 84.1799 153.293 84.1799C137.363 84.1799 130.413 72.6153 130.413 58.1759V58.1628ZM160.237 67.0094C160.237 62.5469 156.158 60.7371 152.008 60.7371C148.836 60.7371 145.814 61.9458 143.55 64.1411C143.928 68.2965 146.343 73.138 152.686 73.138C157.594 73.138 160.237 70.041 160.237 67.0159V67.0094Z" fill="#101010"/>
<path d="M176.095 58.0844C176.095 44.7753 182.967 32.0804 197.689 32.0804C212.412 32.0804 219.284 44.7818 219.284 58.0844C219.284 71.387 212.412 84.1668 197.689 84.1668C182.967 84.1668 176.095 71.3935 176.095 58.0844ZM206.147 58.0844C206.147 49.1659 203.732 43.5666 197.689 43.5666C191.646 43.5666 189.232 49.1594 189.232 58.0844C189.232 67.0094 191.646 72.6741 197.689 72.6741C203.732 72.6741 206.147 67.0029 206.147 58.0844Z" fill="#101010"/>
<path d="M222.795 58.0844C222.795 44.7753 229.667 32.0804 244.389 32.0804C259.112 32.0804 265.984 44.7818 265.984 58.0844C265.984 71.387 259.112 84.1668 244.389 84.1668C229.667 84.1668 222.795 71.3935 222.795 58.0844ZM252.854 58.0844C252.854 49.1659 250.439 43.5666 244.396 43.5666C238.353 43.5666 235.938 49.1594 235.938 58.0844C235.938 67.0094 238.353 72.6741 244.396 72.6741C250.439 72.6741 252.854 67.0029 252.854 58.0844Z" fill="#101010"/>
<path d="M4.96387 10.2058L6.30822 8.31757C7.1305 9.17349 8.40307 9.89219 10.0085 9.89219C11.3724 9.89219 12.0315 9.24536 12.0315 8.57892C12.0315 7.70341 11.02 7.40939 9.67564 7.09578C7.77005 6.65802 5.32932 6.13533 5.32932 3.52839C5.32932 1.58789 7.00651 0.0198059 9.74743 0.0198059C11.6008 0.0198059 13.1344 0.581702 14.2895 1.64669L12.9125 3.46305C11.9728 2.58754 10.7133 2.18899 9.57775 2.18899C8.44223 2.18899 7.86794 2.67901 7.86794 3.37812C7.86794 4.16216 8.84684 4.41044 10.1912 4.72405C12.1098 5.16181 14.5571 5.73677 14.5571 8.32411C14.5571 10.4541 13.0365 12.0614 9.89753 12.0614C7.66563 12.0614 6.06024 11.31 4.97692 10.2058H4.96387Z" fill="#9FAFBC"/>
<path d="M18.8255 2.37827H15.4189V0.189484H24.7055V2.37173H21.2989V11.8456H18.819V2.37827H18.8255Z" fill="#9FAFBC"/>
<path d="M28.1765 0.189484H31.2828L35.7662 11.8456H33.0579L32.3401 9.83319H27.0866L26.3883 11.8456H23.667L28.1765 0.189484ZM31.5961 7.69014L29.7297 2.33906L27.8436 7.69014H31.5961Z" fill="#9FAFBC"/>
<path d="M36.8301 0.189484H42.2793C44.707 0.189484 46.1884 1.77717 46.1884 3.94635C46.1884 5.81498 45.1051 6.97144 43.6563 7.42226L46.2602 11.8456H43.4148L41.1307 7.67054H39.3165V11.8456H36.8366V0.189484H36.8301ZM43.6563 3.93328C43.6563 2.95323 42.9058 2.326 41.9138 2.326H39.31V5.54056H41.9138C42.9058 5.54056 43.6563 4.91333 43.6563 3.93328Z" fill="#9FAFBC"/>
<path d="M50.5941 2.37827H47.1875V0.189484H56.474V2.37173H53.0674V11.8456H50.5875V2.37827H50.5941Z" fill="#9FAFBC"/>
<path d="M57.792 0.189484H60.2719V11.8456H57.792V0.189484Z" fill="#9FAFBC"/>
<path d="M62.6016 0.189484H65.1532L70.5502 7.74241V0.189484H73.0301V11.8456H70.6416L65.088 4.01822V11.8456H62.6081V0.189484H62.6016Z" fill="#9FAFBC"/>
<path d="M74.7526 6.03058C74.7526 2.34559 77.5457 0 80.9523 0C83.3604 0 84.881 1.16953 85.7685 2.55467L83.7063 3.67193C83.1646 2.84868 82.1727 2.20185 80.9458 2.20185C78.8314 2.20185 77.2978 3.82873 77.2978 6.03058C77.2978 8.23243 78.8314 9.85932 80.9458 9.85932C82.0095 9.85932 82.9558 9.42156 83.4583 8.97074V7.55293H80.3519V5.42295H85.9056V9.87892C84.7178 11.2053 83.0602 12.0808 80.9458 12.0808C77.5392 12.0808 74.7461 9.70251 74.7461 6.03712L74.7526 6.03058Z" fill="#9FAFBC"/>
<path d="M92.3474 0.189484H100.583V2.31946H94.8207V4.85453H100.459V6.98451H94.8207V11.8456H92.3408V0.189484H92.3474Z" fill="#9FAFBC"/>
<path d="M102.332 0.189484H107.781C110.209 0.189484 111.69 1.77717 111.69 3.94635C111.69 5.81498 110.607 6.97144 109.158 7.42226L111.762 11.8456H108.917L106.633 7.67054H104.818V11.8456H102.339V0.189484H102.332ZM109.158 3.93328C109.158 2.95323 108.408 2.326 107.416 2.326H104.812V5.54056H107.416C108.408 5.54056 109.158 4.91333 109.158 3.93328Z" fill="#9FAFBC"/>
<path d="M112.8 6.03058C112.8 2.51547 115.365 0 118.876 0C122.387 0 124.971 2.51547 124.971 6.03058C124.971 9.5457 122.406 12.0612 118.876 12.0612C115.345 12.0612 112.8 9.5457 112.8 6.03058ZM122.419 6.03058C122.419 3.84834 121.023 2.20185 118.876 2.20185C116.728 2.20185 115.351 3.8418 115.351 6.03058C115.351 8.21936 116.728 9.85932 118.876 9.85932C121.023 9.85932 122.419 8.19976 122.419 6.03058Z" fill="#9FAFBC"/>
<path d="M126.707 0.189484H130.179L133.004 7.46147L135.83 0.189484H139.321V11.8456H136.829V3.46286L133.546 11.8521H132.463L129.18 3.46286V11.8521H126.7V0.189484H126.707Z" fill="#9FAFBC"/>
<path d="M5.15951 32.7729C5.18562 32.8056 5.30961 32.9689 5.43361 33.1192C6.32767 34.1842 6.99985 35.9222 7.3653 38.1044C7.60677 39.5418 7.61982 39.9926 7.61982 45.4679V50.5641H5.17257C2.93415 50.5641 2.67963 50.5511 2.24239 50.4661C1.55063 50.3224 0.839298 49.9238 0.356373 49.4207C-0.0221352 49.0156 -0.0156092 48.996 0.0104948 50.2178C0.0365989 51.2306 0.0496509 51.3416 0.199749 51.897C0.434685 52.7725 0.75446 53.4193 1.24391 54.0008C1.90304 54.7979 2.58174 55.2422 3.54106 55.5428C3.74337 55.6016 4.18061 55.6277 5.71422 55.6343L7.62634 55.6604V60.7436L4.9311 60.724L2.22281 60.7044L1.75294 60.5149C1.19823 60.2928 0.943714 60.1294 0.402055 59.6394L0.00396884 59.2801L0.0300729 60.3973C0.0561769 61.4362 0.0627029 61.5538 0.212801 62.0765C0.721829 63.9386 1.94872 65.2714 3.57369 65.7026C3.97831 65.8137 4.13493 65.8203 5.82517 65.8464L7.63287 65.8725V71.1256C7.63287 74.2944 7.61329 76.6335 7.58719 77.032C7.56108 77.3979 7.46319 78.0774 7.38488 78.5479C7.00637 80.7366 6.32114 82.3831 5.33572 83.4481L5.13994 83.6637H15.0399C20.959 83.6637 25.3836 83.6376 26.0297 83.6115C27.1717 83.5527 29.7169 83.2978 30.2912 83.1802C30.4739 83.1476 30.8132 83.0953 31.0351 83.0561C31.5115 82.9842 32.2946 82.8209 33.4236 82.5334C35.016 82.1348 36.4648 81.6383 37.8874 81.0045C38.3312 80.8085 39.6103 80.1551 39.9496 79.9526C40.1324 79.8481 40.3477 79.7174 40.4326 79.6782C40.661 79.554 41.0395 79.3058 41.5942 78.9072C41.8683 78.7112 42.1424 78.5152 42.2011 78.476C42.4491 78.3126 43.2975 77.6005 43.6825 77.2477C45.1509 75.8952 46.3778 74.3859 47.3371 72.7786C47.4741 72.5434 47.6503 72.2494 47.7221 72.1253C47.9179 71.7986 48.7141 70.1586 48.7859 69.9103C48.8185 69.7993 48.8707 69.6817 48.8903 69.6555C49.0404 69.4595 49.9214 66.6892 50.0258 66.0881C50.0584 65.8921 50.078 65.866 50.2216 65.8333C50.313 65.8137 51.6769 65.8137 53.2562 65.8333C55.3576 65.8507 56.6388 65.9662 57.1 66.1796C57.4916 66.3626 57.609 66.441 58.0397 66.833C58.6075 67.3426 58.5553 67.4275 58.5227 66.1469C58.4966 65.3956 58.4705 64.9317 58.4182 64.7487C58.2225 64.03 58.1703 63.8732 57.9941 63.5139C57.4198 62.2594 56.4604 61.3643 55.2336 60.9331L54.7506 60.7567L52.7928 60.7305L50.8416 60.7044L50.8677 60.0184C50.8938 59.1167 50.8938 57.3265 50.8677 56.4052L50.8416 55.6669L53.452 55.6539C55.6904 55.6408 56.1015 55.6539 56.3495 55.7192C57.0869 55.9217 57.5829 56.2027 58.1964 56.7646L58.5357 57.0782V56.2092C58.5357 55.1769 58.4835 54.7195 58.2747 54.04C57.857 52.6614 57.0413 51.6356 55.8666 51.0019C55.103 50.5903 55.0574 50.5772 52.4404 50.5641C50.9068 50.5511 50.1041 50.5315 50.065 50.4923C50.0323 50.4596 49.9997 50.4008 49.9997 50.3485C49.9997 50.2962 49.9149 49.9304 49.7974 49.5318C48.4269 44.6838 45.8687 40.8355 42.1293 37.9803C41.6203 37.5882 40.3738 36.7585 39.8713 36.4775C39.6756 36.3664 39.4667 36.2488 39.4145 36.2162C39.1665 36.079 37.7569 35.3929 37.4045 35.2427C37.1957 35.1512 36.9216 35.0336 36.7976 34.9878C34.7288 34.0927 31.2635 33.2433 28.6205 32.9755C28.1898 32.9363 27.6155 32.8709 27.3479 32.8448C26.1537 32.7076 24.4961 32.6945 15.0921 32.6945C7.14342 32.6945 5.14646 32.7141 5.17909 32.7533L5.15951 32.7729ZM24.5156 35.3145C26.493 35.4321 27.7134 35.5824 29.1361 35.9287C33.4824 36.961 36.5365 39.1433 38.7554 42.7825C38.9577 43.1223 39.8257 44.8929 39.9562 45.2522C40.5696 46.9118 40.8698 47.8984 41.1309 49.1986C41.1961 49.5122 41.281 49.9369 41.3266 50.1394C41.3658 50.3354 41.3854 50.5119 41.3658 50.5315C41.3397 50.5576 35.4598 50.5641 28.2942 50.5576L15.2683 50.5445L15.2487 43.0112C15.2487 38.8754 15.2487 35.4321 15.2683 35.3668L15.2944 35.2557H19.458C21.7421 35.2557 24.0262 35.2819 24.5222 35.308L24.5156 35.3145ZM41.9336 55.8433C41.9727 56.0981 41.9727 60.3712 41.9336 60.5868L41.9009 60.7436L28.5813 60.7305L15.2683 60.7109L15.2552 58.2281C15.2422 56.8626 15.2552 55.7257 15.2683 55.6996C15.2879 55.6735 20.959 55.6539 28.5944 55.6539H41.8944L41.927 55.8433H41.9336ZM41.3332 65.9052C41.3593 65.9901 41.2222 66.7154 40.9351 67.8849C40.6088 69.2047 40.165 70.531 39.7147 71.5176C39.4928 72.0207 38.9381 73.1118 38.8011 73.3144C38.7358 73.4059 38.5466 73.7064 38.3834 73.9678C37.3327 75.6208 35.8252 77.1235 34.1089 78.2408C33.4824 78.6393 32.1968 79.3188 31.8509 79.4234C31.7791 79.443 31.7073 79.4756 31.6747 79.5018C31.6355 79.5344 31.1004 79.737 30.4804 79.9591C29.3384 80.3642 27.1652 80.802 25.4228 80.9849C24.2938 81.096 24.111 81.1025 19.7647 81.1025H15.2618V65.8921L28.1898 65.866C35.3031 65.8529 41.1635 65.8399 41.2092 65.8268C41.2614 65.8268 41.3136 65.8529 41.3332 65.8987V65.9052Z" fill="#101010"/>
</svg>
